<svg width="233" height="46" viewBox="0 0 233 46" fill="none" xmlns="http://www.w3.org/2000/svg">
<path d="M195.863 38.084C196.105 38.084 196.327 38.1042 196.529 38.1445C197.054 38.2253 197.316 38.7298 197.316 39.6582H179.273V38.084C182.26 38.084 183.794 37.0345 183.875 34.9355V15.2578H175.971V13.623H183.875V12.8359C183.875 9.76823 184.521 7.1849 185.812 5.08594C187.911 1.69531 191.322 0 196.045 0C198.225 0 200.081 0.383464 201.615 1.15039C203.714 2.19987 204.764 3.61263 204.764 5.38867C204.764 5.75195 204.703 6.09505 204.582 6.41797C204.057 7.70964 202.967 8.35547 201.312 8.35547C200.384 8.3151 199.577 7.91146 198.891 7.14453C198.648 6.82161 198.124 5.73177 197.316 3.875C196.671 2.34115 195.843 1.57422 194.834 1.57422C194.067 1.57422 193.441 1.85677 192.957 2.42188C192.029 3.59245 191.564 7.22526 191.564 13.3203V13.623H198.406V15.2578H191.564V38.084H195.863Z" fill="black"/>
<path d="M174.914 38.084C175.156 38.084 175.378 38.1042 175.58 38.1445C176.105 38.2253 176.367 38.7298 176.367 39.6582H158.324V38.084C161.311 38.084 162.845 37.0345 162.926 34.9355V15.2578H158.021V13.623H162.926V12.8359C162.926 9.76823 163.572 7.1849 164.863 5.08594C166.962 1.69531 170.373 0 175.096 0C177.275 0 179.132 0.383464 180.666 1.15039C182.765 2.19987 183.814 3.61263 183.814 5.38867C183.814 5.75195 183.754 6.09505 183.633 6.41797C183.108 7.70964 182.018 8.35547 180.363 8.35547C179.435 8.3151 178.628 7.91146 177.941 7.14453C177.699 6.82161 177.174 5.73177 176.367 3.875C175.721 2.34115 174.894 1.57422 173.885 1.57422C173.118 1.57422 172.492 1.85677 172.008 2.42188C171.079 3.59245 170.615 7.22526 170.615 13.3203V13.623H177.457V15.2578H170.615V38.084H174.914Z" fill="black"/>
<path d="M138.12 23.6849C136.223 26.9708 135.05 29.4865 134.602 31.2318C133.94 33.8323 134.692 35.7582 136.859 37.0095C138.083 37.7159 139.291 37.9241 140.484 37.634C142.579 37.0725 145.1 34.24 148.047 29.1363C149.883 25.9552 151.016 23.5095 151.444 21.7991C152.126 19.1637 151.349 17.2001 149.112 15.9084C147.784 15.1415 146.52 14.9481 145.322 15.3283C143.346 16.0054 140.946 18.791 138.12 23.6849ZM150.161 14.6965C153.168 16.4322 155.263 18.7371 156.446 21.6111C157.936 25.4078 157.551 29.2637 155.291 33.1789C153.596 36.1153 151.228 38.1975 148.189 39.4256C144.131 41.0447 140.04 40.6635 135.915 38.282C132.909 36.5463 130.847 34.144 129.729 31.0749C128.334 27.1936 128.777 23.2778 131.058 19.3277C132.672 16.5312 134.889 14.5484 137.708 13.3794C141.71 11.775 145.862 12.2141 150.161 14.6965Z" fill="black"/>
<path d="M117.52 39.6582L116.672 33.9668C116.47 34.4915 116.228 34.9961 115.945 35.4805C114.129 38.6693 111.344 40.2637 107.59 40.2637C105.329 40.2637 103.271 39.5775 101.414 38.2051C98.1445 35.8236 96.5098 32.1302 96.5098 27.125C96.5098 23.0885 97.5592 19.7383 99.6582 17.0742C102.08 14.1276 105.208 12.6543 109.043 12.6543C111.909 12.6543 114.371 13.5423 116.43 15.3184V1.87695H110.92V0.302734H124.119V38.0234H126.904C127.187 38.0234 127.429 38.0436 127.631 38.084C128.115 38.2051 128.357 38.7298 128.357 39.6582H117.52ZM104.805 26.3984C104.805 27.9323 104.906 29.3249 105.107 30.5762C105.794 35.1777 107.549 37.4785 110.375 37.4785C111.223 37.4785 112.01 37.2565 112.736 36.8125C115.279 35.1576 116.551 31.3027 116.551 25.248C116.551 23.8757 116.47 22.584 116.309 21.373C115.622 16.8926 113.826 14.6523 110.92 14.6523C110.113 14.6523 109.346 14.8542 108.619 15.2578C106.076 16.7917 104.805 20.5052 104.805 26.3984Z" fill="black"/>
<path d="M76.5918 38.084C76.834 38.084 77.056 38.1042 77.2578 38.1445C77.7826 38.2253 78.0449 38.7298 78.0449 39.6582H63.877V38.084C64.1999 38.084 64.5026 38.0638 64.7852 38.0234C66.5208 37.8216 67.3887 36.7923 67.3887 34.9355V15.1973H63.877V13.623H74.6543L74.957 18.3457C75.3203 17.6191 75.8047 16.9128 76.4102 16.2266C78.4688 13.8854 80.9714 12.7148 83.918 12.7148C84.9674 12.7148 85.9766 12.8763 86.9453 13.1992C90.4974 14.4505 92.2734 17.5788 92.2734 22.584V38.084H94.2715C94.5137 38.084 94.7559 38.1042 94.998 38.1445C95.5228 38.2253 95.7852 38.7298 95.7852 39.6582H81.7988V38.084C82.3639 38.084 82.8483 38.0234 83.252 37.9023C84.14 37.6198 84.584 36.6309 84.584 34.9355V21.5547C84.584 20.9896 84.5436 20.4447 84.4629 19.9199C84.0592 17.2155 82.707 15.8633 80.4062 15.8633C79.8008 15.8633 79.2155 16.0046 78.6504 16.2871C76.5918 17.2962 75.4212 19.3952 75.1387 22.584L75.0781 38.084H76.5918Z" fill="black"/>
<path d="M56.3086 40.2637C53.0794 40.0618 51.041 38.2253 50.1934 34.7539C49.9915 35.319 49.7292 35.8639 49.4062 36.3887C47.7917 38.972 45.2689 40.2637 41.8379 40.2637C40.7077 40.2637 39.6784 40.1224 38.75 39.8398C35.6016 38.8307 34.0273 36.5299 34.0273 32.9375C34.0677 27.6497 39.2747 24.9049 49.6484 24.7031V20.7676C49.6484 19.597 49.5677 18.5879 49.4062 17.7402C49.0026 15.4395 47.8522 14.2891 45.9551 14.2891C45.39 14.2891 44.8854 14.39 44.4414 14.5918C43.7552 14.9954 43.1901 16.0046 42.7461 17.6191C42.5846 18.1842 42.4635 18.5879 42.3828 18.8301C41.7773 20.5254 40.6068 21.373 38.8711 21.373C38.4674 21.373 38.084 21.3125 37.7207 21.1914C36.2272 20.7878 35.4805 19.7988 35.4805 18.2246C35.4805 17.5384 35.6621 16.8926 36.0254 16.2871C37.4382 13.9056 40.8893 12.7148 46.3789 12.7148C47.7917 12.7148 49.1035 12.8561 50.3145 13.1387C54.9967 14.3092 57.3379 17.4173 57.3379 22.4629V35.1172C57.3379 37.0547 57.7819 38.0638 58.6699 38.1445C59.8405 38.1042 60.5469 36.6914 60.7891 33.9062L62.3633 33.9668C62.2422 35.2181 62.0605 36.2474 61.8184 37.0547C61.0918 39.194 59.2552 40.2637 56.3086 40.2637ZM44.9863 37.6602C45.2689 37.6602 45.5918 37.5996 45.9551 37.4785C47.6504 36.8327 48.8815 35.097 49.6484 32.2715V26.3984C47.832 26.4792 46.3385 26.7012 45.168 27.0645C42.9883 27.8717 41.8984 29.6074 41.8984 32.2715C41.9388 35.7832 42.9681 37.5794 44.9863 37.6602Z" fill="black"/>
<path d="M12.7754 38.084C13.0176 38.084 13.2396 38.1042 13.4414 38.1445C13.9661 38.2253 14.2285 38.7298 14.2285 39.6582H0V38.084C0.282552 38.084 0.565104 38.0638 0.847656 38.0234C2.66406 37.862 3.57227 36.8327 3.57227 34.9355V1.87695H0V0.302734H11.2617V18.1641C11.5443 17.599 11.8874 17.0339 12.291 16.4688C14.2285 13.9661 16.832 12.7148 20.1016 12.7148C21.151 12.7148 22.1198 12.8763 23.0078 13.1992C26.6003 14.4102 28.3965 17.5384 28.3965 22.584V38.084H30.3945C30.6367 38.084 30.8789 38.1042 31.1211 38.1445C31.6458 38.2253 31.9082 38.7298 31.9082 39.6582H18.3457V38.084C19.0319 38.084 19.5768 37.9831 19.9805 37.7812C20.4648 37.4987 20.707 36.5501 20.707 34.9355V21.5547C20.707 21.151 20.6868 20.7878 20.6465 20.4648C20.3639 17.4375 18.9915 15.9238 16.5293 15.9238C15.8835 15.9238 15.2174 16.1055 14.5312 16.4688C12.3516 17.6393 11.2617 20.0007 11.2617 23.5527V38.084H12.7754Z" fill="black"/>
<path d="M205 41C205 40.4477 205.448 40 206 40H232C232.552 40 233 40.4477 233 41V44H205V41Z" fill="black"/>
</svg>
