<svg width="24" height="24" viewBox="0 0 24 24" fill="none" xmlns="http://www.w3.org/2000/svg">
<path fill-rule="evenodd" clip-rule="evenodd" d="M7.93306 4.68466C10.1793 2.43845 13.8211 2.43845 16.0673 4.68465L16.3188 4.93616C16.3326 4.94894 16.3463 4.96204 16.3597 4.97548L23.9143 12.5319L23.2072 13.2389C20.9611 15.485 17.3196 15.4851 15.0734 13.2392L11.9968 10.1694L8.92728 13.2389C6.68107 15.4851 3.03925 15.4851 0.793044 13.2389L0.0859375 12.5318L7.93306 4.68466ZM13.8507 5.48704C12.4193 4.67463 10.5676 4.87858 9.34727 6.09887L3.00964 12.4365C4.441 13.2489 6.29277 13.045 7.51306 11.8247L13.8507 5.48704ZM15.3689 6.81326L13.4161 8.76029L16.4872 11.8247C17.7075 13.045 19.5594 13.2489 20.9908 12.4364L15.3689 6.81326Z" fill="#3B3751"/>
<path fill-rule="evenodd" clip-rule="evenodd" d="M9.90337 13.6825C8.74534 14.8406 8.74534 16.7181 9.90337 17.8761C11.0614 19.0341 12.9389 19.0341 14.0969 17.8761C15.255 16.7181 15.255 14.8406 14.0969 13.6825C12.9389 12.5245 11.0614 12.5245 9.90337 13.6825ZM11.3176 16.4619C10.9406 16.0849 10.9406 15.4737 11.3176 15.0968C11.6946 14.7198 12.3057 14.7198 12.6827 15.0968C13.0597 15.4737 13.0597 16.0849 12.6827 16.4619C12.3058 16.8389 11.6946 16.8389 11.3176 16.4619Z" fill="#3B3751"/>
</svg>
