<svg width="24" height="24" viewBox="0 0 24 24" fill="none" xmlns="http://www.w3.org/2000/svg">
<path fill-rule="evenodd" clip-rule="evenodd" d="M21.0023 21.9951H3.0023C2.6553 21.9951 2.3343 21.8151 2.1513 21.5211C1.9683 21.2251 1.9533 20.8581 2.1073 20.5471L11.1073 2.54706C11.4463 1.87006 12.5573 1.87006 12.8963 2.54706L21.8963 20.5471C22.0503 20.8581 22.0353 21.2241 21.8523 21.5211C21.6703 21.8161 21.3493 21.9951 21.0023 21.9951ZM11.0023 9.99506H13.0023V15.9951H11.0023V9.99506ZM13.2523 17.9951C13.2523 18.6854 12.6926 19.2451 12.0023 19.2451C11.3119 19.2451 10.7523 18.6854 10.7523 17.9951C10.7523 17.3047 11.3119 16.7451 12.0023 16.7451C12.6926 16.7451 13.2523 17.3047 13.2523 17.9951Z" fill="#3B3751"/>
</svg>
