<svg width="24" height="24" viewBox="0 0 24 24" fill="none" xmlns="http://www.w3.org/2000/svg">
<path d="M13.0022 7.59506H11.0022V13.5951H13.0022V7.59506Z" fill="#3B3751"/>
<path d="M12.0022 16.8451C12.6926 16.8451 13.2522 16.2854 13.2522 15.5951C13.2522 14.9047 12.6926 14.3451 12.0022 14.3451C11.3118 14.3451 10.7522 14.9047 10.7522 15.5951C10.7522 16.2854 11.3118 16.8451 12.0022 16.8451Z" fill="#3B3751"/>
<path d="M12.0022 21.9999C6.4882 21.9999 2.0022 17.5149 2.0022 11.9999C2.0022 6.48694 6.4882 1.99994 12.0022 1.99994C17.5162 1.99994 22.0022 6.48594 22.0022 11.9999C22.0022 17.5149 17.5162 21.9999 12.0022 21.9999ZM12.0022 3.99994C7.5912 3.99994 4.0022 7.58894 4.0022 11.9999C4.0022 16.4109 7.5912 19.9999 12.0022 19.9999C16.4132 19.9999 20.0022 16.4109 20.0022 11.9999C20.0022 7.58894 16.4132 3.99994 12.0022 3.99994Z" fill="#3B3751"/>
</svg>
