<svg width="24" height="24" viewBox="0 0 24 24" fill="none" xmlns="http://www.w3.org/2000/svg">
<path d="M21.0023 21.995H3.0023C2.6553 21.995 2.3343 21.815 2.1513 21.521C1.9683 21.225 1.9533 20.858 2.1073 20.547L11.1073 2.54703C11.4463 1.87003 12.5573 1.87003 12.8963 2.54703L21.8963 20.547C22.0503 20.858 22.0353 21.224 21.8523 21.521C21.6703 21.816 21.3493 21.995 21.0023 21.995ZM4.6203 19.995H19.3843L12.0023 5.23203L4.6203 19.995Z" fill="#3B3751"/>
<path d="M13.0023 9.99503H11.0023V15.995H13.0023V9.99503Z" fill="#3B3751"/>
<path d="M12.0023 19.245C12.6926 19.245 13.2523 18.6854 13.2523 17.995C13.2523 17.3047 12.6926 16.745 12.0023 16.745C11.3119 16.745 10.7523 17.3047 10.7523 17.995C10.7523 18.6854 11.3119 19.245 12.0023 19.245Z" fill="#3B3751"/>
</svg>
