<svg width="24" height="24" viewBox="0 0 24 24" fill="none" xmlns="http://www.w3.org/2000/svg">
<path d="M2 22H22" stroke="#3B3751" stroke-width="2" stroke-linecap="round" stroke-linejoin="round"/>
<path fill-rule="evenodd" clip-rule="evenodd" d="M4 18V21H6V18H4ZM2 17.5556C2 16.7356 2.64811 16 3.53319 16H6.46681C7.35189 16 8 16.7356 8 17.5556V22C8 22.5523 7.55228 23 7 23H3C2.44772 23 2 22.5523 2 22V17.5556Z" fill="#3B3751"/>
<path fill-rule="evenodd" clip-rule="evenodd" d="M11 11V21H13V11H11ZM9 10.4444C9 9.48395 9.86462 9 10.5332 9H13.4668C14.1354 9 15 9.48395 15 10.4444V22C15 22.5523 14.5523 23 14 23H10C9.44772 23 9 22.5523 9 22V10.4444Z" fill="#3B3751"/>
<path fill-rule="evenodd" clip-rule="evenodd" d="M18 14V21H20V14H18ZM16 13.4444C16 12.484 16.8646 12 17.5332 12H20.4668C21.1354 12 22 12.484 22 13.4444V22C22 22.5523 21.5523 23 21 23H17C16.4477 23 16 22.5523 16 22V13.4444Z" fill="#3B3751"/>
<path fill-rule="evenodd" clip-rule="evenodd" d="M8.52262 4.82856C8.86967 5.20783 8.85689 5.80937 8.49407 6.17215L5.24815 9.41772C4.88534 9.7805 4.30987 9.76714 3.96282 9.38787C3.61577 9.00861 3.62856 8.40706 3.99138 8.04428L7.23729 4.79871C7.60011 4.43593 8.17557 4.4493 8.52262 4.82856Z" fill="#3B3751"/>
<path fill-rule="evenodd" clip-rule="evenodd" d="M9.21032 5.21246C9.33487 4.70403 9.83013 4.39741 10.3165 4.5276L14.0933 5.53856C14.5797 5.66875 14.873 6.18645 14.7485 6.69488C14.6239 7.20331 14.1287 7.50994 13.6423 7.37974L9.86548 6.36879C9.3791 6.2386 9.08577 5.72089 9.21032 5.21246Z" fill="#3B3751"/>
<path fill-rule="evenodd" clip-rule="evenodd" d="M19.5093 3.11072C19.8102 3.53086 19.7283 4.12644 19.3263 4.44098L16.4327 6.70551C16.0308 7.02005 15.4611 6.93445 15.1602 6.51432C14.8593 6.09418 14.9412 5.4986 15.3431 5.18406L18.2367 2.91953C18.6386 2.60498 19.2084 2.69059 19.5093 3.11072Z" fill="#3B3751"/>
<path fill-rule="evenodd" clip-rule="evenodd" d="M6.8483 4.98397C6.8483 3.75065 7.8356 2.82052 8.96946 2.82052C10.1033 2.82052 11.0906 3.75065 11.0906 4.98397C11.0906 6.21728 10.1033 7.14741 8.96946 7.14741C7.8356 7.14741 6.8483 6.21728 6.8483 4.98397ZM8.96946 4.72112C8.76451 4.72112 8.66648 4.87728 8.66648 4.98397C8.66648 5.09065 8.76451 5.24681 8.96946 5.24681C9.17441 5.24681 9.27244 5.09065 9.27244 4.98397C9.27244 4.87728 9.17441 4.72112 8.96946 4.72112Z" fill="#3B3751"/>
<path fill-rule="evenodd" clip-rule="evenodd" d="M17.7577 3.16344C17.7577 1.93012 18.745 1 19.8788 1C21.0127 1 22 1.93012 22 3.16344C22 4.39676 21.0127 5.32688 19.8788 5.32688C18.745 5.32688 17.7577 4.39676 17.7577 3.16344ZM19.8788 2.90059C19.6739 2.90059 19.5759 3.05676 19.5759 3.16344C19.5759 3.27012 19.6739 3.42629 19.8788 3.42629C20.0838 3.42629 20.1818 3.27012 20.1818 3.16344C20.1818 3.05676 20.0838 2.90059 19.8788 2.90059Z" fill="#3B3751"/>
<path fill-rule="evenodd" clip-rule="evenodd" d="M12.9094 6.80289C12.9094 5.56957 13.8967 4.63945 15.0305 4.63945C16.1644 4.63945 17.1517 5.56957 17.1517 6.80289C17.1517 8.03621 16.1644 8.96634 15.0305 8.96634C13.8967 8.96634 12.9094 8.03621 12.9094 6.80289ZM15.0305 6.54005C14.8256 6.54005 14.7276 6.69621 14.7276 6.80289C14.7276 6.90958 14.8256 7.06574 15.0305 7.06574C15.2355 7.06574 15.3335 6.90958 15.3335 6.80289C15.3335 6.69621 15.2355 6.54005 15.0305 6.54005Z" fill="#3B3751"/>
<path fill-rule="evenodd" clip-rule="evenodd" d="M2 9.83656C2 8.60324 2.9873 7.67312 4.12116 7.67312C5.25502 7.67312 6.24232 8.60324 6.24232 9.83656C6.24232 11.0699 5.25502 12 4.12116 12C2.9873 12 2 11.0699 2 9.83656ZM4.12116 9.57371C3.91621 9.57371 3.81818 9.72987 3.81818 9.83656C3.81818 9.94324 3.91621 10.0994 4.12116 10.0994C4.32611 10.0994 4.42413 9.94324 4.42413 9.83656C4.42413 9.72987 4.32611 9.57371 4.12116 9.57371Z" fill="#3B3751"/>
</svg>
