<svg width="24" height="24" viewBox="0 0 24 24" fill="none" xmlns="http://www.w3.org/2000/svg">
<g clip-path="url(#clip0_348_283)">
<path fill-rule="evenodd" clip-rule="evenodd" d="M18 17.991V13.991C18 12.3997 17.3679 10.8735 16.2426 9.74833C15.1174 8.62311 13.5913 7.99097 12 7.99097C10.4087 7.99097 8.88258 8.62311 7.75736 9.74833C6.63214 10.8735 6 12.3997 6 13.991V17.991H18ZM12 5.99097C9.87827 5.99097 7.84344 6.83382 6.34315 8.33411C4.84285 9.8344 4 11.8692 4 13.991V17.991C4 18.5214 4.21071 19.0301 4.58579 19.4052C4.96086 19.7803 5.46957 19.991 6 19.991H18C18.5304 19.991 19.0391 19.7803 19.4142 19.4052C19.7893 19.0301 20 18.5214 20 17.991V13.991C20 11.8692 19.1571 9.8344 17.6569 8.33411C16.1566 6.83382 14.1217 5.99097 12 5.99097Z" fill="#3B3751"/>
<path fill-rule="evenodd" clip-rule="evenodd" d="M12.714 20.991H11.286C10.9133 20.9912 10.5461 20.9002 10.2167 20.7259C9.88723 20.5516 9.60547 20.2993 9.396 19.991H14.604C14.193 20.595 13.5 20.991 12.714 20.991ZM11.286 22.991C10.7232 22.991 10.1658 22.8801 9.64582 22.6647C9.12582 22.4493 8.65333 22.1336 8.25534 21.7356C7.85735 21.3376 7.54164 20.8652 7.32625 20.3451C7.11086 19.8251 7 19.2678 7 18.705C7 18.311 7.32 17.991 7.714 17.991H16.286C16.68 17.991 17 18.311 17 18.705C17 19.2678 16.8891 19.8251 16.6737 20.3451C16.4584 20.8652 16.1427 21.3376 15.7447 21.7356C15.3467 22.1336 14.8742 22.4493 14.3542 22.6647C13.8342 22.8801 13.2768 22.991 12.714 22.991H11.286ZM4 12.991V14.991C3.73478 14.991 3.48043 14.8856 3.29289 14.6981C3.10536 14.5105 3 14.2562 3 13.991C3 13.7257 3.10536 13.4714 3.29289 13.2839C3.48043 13.0963 3.73478 12.991 4 12.991ZM1 13.991C1 13.1953 1.31607 12.4323 1.87868 11.8696C2.44129 11.307 3.20435 10.991 4 10.991H5.286C5.68 10.991 6 11.311 6 11.705V16.277C6 16.671 5.68 16.991 5.286 16.991H4C3.20435 16.991 2.44129 16.6749 1.87868 16.1123C1.31607 15.5497 1 14.7866 1 13.991ZM20 12.991V14.991C20.2652 14.991 20.5196 14.8856 20.7071 14.6981C20.8946 14.5105 21 14.2562 21 13.991C21 13.7257 20.8946 13.4714 20.7071 13.2839C20.5196 13.0963 20.2652 12.991 20 12.991ZM23 13.991C23 13.1953 22.6839 12.4323 22.1213 11.8696C21.5587 11.307 20.7956 10.991 20 10.991H18.714C18.5246 10.991 18.343 11.0662 18.2091 11.2001C18.0752 11.334 18 11.5156 18 11.705V16.277C18 16.671 18.32 16.991 18.714 16.991H20C20.7956 16.991 21.5587 16.6749 22.1213 16.1123C22.6839 15.5497 23 14.7866 23 13.991Z" fill="#3B3751"/>
<path d="M11 2.99097C11 2.72575 11.1054 2.4714 11.2929 2.28386C11.4804 2.09632 11.7348 1.99097 12 1.99097C12.2652 1.99097 12.5196 2.09632 12.7071 2.28386C12.8946 2.4714 13 2.72575 13 2.99097V7.13397C13 7.36126 12.9097 7.57924 12.749 7.73996C12.5883 7.90068 12.3703 7.99097 12.143 7.99097H11.857C11.7445 7.99097 11.633 7.9688 11.529 7.92573C11.4251 7.88266 11.3306 7.81954 11.251 7.73996C11.1714 7.66038 11.1083 7.5659 11.0652 7.46193C11.0222 7.35795 11 7.24651 11 7.13397V2.99097Z" fill="#3B3751"/>
<path d="M10 2.99097C10 2.46053 10.2107 1.95183 10.5858 1.57675C10.9609 1.20168 11.4696 0.990967 12 0.990967C12.5304 0.990967 13.0391 1.20168 13.4142 1.57675C13.7893 1.95183 14 2.46053 14 2.99097C14 3.5214 13.7893 4.03011 13.4142 4.40518C13.0391 4.78025 12.5304 4.99097 12 4.99097C11.4696 4.99097 10.9609 4.78025 10.5858 4.40518C10.2107 4.03011 10 3.5214 10 2.99097ZM11 13.991C11 15.096 10.328 15.991 9.5 15.991C8.672 15.991 8 15.096 8 13.991C8 12.886 8.672 11.991 9.5 11.991C10.328 11.991 11 12.886 11 13.991ZM16 13.991C16 15.096 15.328 15.991 14.5 15.991C13.672 15.991 13 15.096 13 13.991C13 12.886 13.672 11.991 14.5 11.991C15.328 11.991 16 12.886 16 13.991Z" fill="#3B3751"/>
</g>
<defs>
<clipPath id="clip0_348_283">
<rect width="24" height="24" fill="white"/>
</clipPath>
</defs>
</svg>
