<svg width="24" height="24" viewBox="0 0 24 24" fill="none" xmlns="http://www.w3.org/2000/svg">
<path d="M20.0022 2.99802H4.0022C2.8982 2.99802 2.0022 3.89602 2.0022 4.99802V7.99802C2.0022 8.55002 2.4492 8.99802 3.0022 8.99802V18.998C3.0022 20.101 3.8982 20.998 5.0022 20.998H19.0022C20.1062 20.998 21.0022 20.101 21.0022 18.998V8.99802C21.5552 8.99802 22.0022 8.55002 22.0022 7.99802V4.99802C22.0022 3.89602 21.1062 2.99802 20.0022 2.99802ZM20.0022 4.99802V6.99802H4.0022V4.99802H20.0022ZM19.0022 18.998H5.0022V8.99802H19.0022V18.998Z" fill="#3B3751"/>
<path d="M15.0022 9.99802H9.0022V12.998H15.0022V9.99802Z" fill="#3B3751"/>
</svg>
