<svg width="24" height="24" viewBox="0 0 24 24" fill="none" xmlns="http://www.w3.org/2000/svg">
<path d="M12.0022 21.997C11.7462 21.997 11.4902 21.899 11.2952 21.704L5.29519 15.704C5.00919 15.417 4.92419 14.987 5.07819 14.614C5.23219 14.241 5.59819 13.997 6.00219 13.997H8.00219V11.997H10.0022V14.997C10.0022 15.55 9.55519 15.997 9.00219 15.997H8.41619L12.0022 19.583L15.5882 15.997H15.0022C14.4492 15.997 14.0022 15.55 14.0022 14.997V11.997H16.0022V13.997H18.0022C18.4062 13.997 18.7722 14.241 18.9262 14.614C19.0802 14.987 18.9952 15.417 18.7092 15.704L12.7092 21.704C12.5142 21.899 12.2582 21.997 12.0022 21.997Z" fill="#3B3751"/>
<path d="M10.0022 5.99701H8.0022V9.99701H10.0022V5.99701Z" fill="#3B3751"/>
<path d="M10.0022 1.99701H8.0022V3.99701H10.0022V1.99701Z" fill="#3B3751"/>
<path d="M16.0022 5.99701H14.0022V9.99701H16.0022V5.99701Z" fill="#3B3751"/>
<path d="M16.0022 1.99701H14.0022V3.99701H16.0022V1.99701Z" fill="#3B3751"/>
</svg>
