<svg width="24" height="24" viewBox="0 0 24 24" fill="none" xmlns="http://www.w3.org/2000/svg">
<path fill-rule="evenodd" clip-rule="evenodd" d="M2 16.9999C2 15.3431 3.34315 13.9999 5 13.9999H7C8.65685 13.9999 10 15.3431 10 16.9999V18.9999C10 20.6568 8.65685 21.9999 7 21.9999H5C3.34315 21.9999 2 20.6568 2 18.9999V16.9999ZM5 15.9999C4.44772 15.9999 4 16.4477 4 16.9999V18.9999C4 19.5522 4.44772 19.9999 5 19.9999H7C7.55228 19.9999 8 19.5522 8 18.9999V16.9999C8 16.4477 7.55228 15.9999 7 15.9999H5Z" fill="#3B3751"/>
<path fill-rule="evenodd" clip-rule="evenodd" d="M14 16.9999C14 15.3431 15.3431 13.9999 17 13.9999H19C20.6569 13.9999 22 15.3431 22 16.9999V18.9999C22 20.6568 20.6569 21.9999 19 21.9999H17C15.3431 21.9999 14 20.6568 14 18.9999V16.9999ZM17 15.9999C16.4477 15.9999 16 16.4477 16 16.9999V18.9999C16 19.5522 16.4477 19.9999 17 19.9999H19C19.5523 19.9999 20 19.5522 20 18.9999V16.9999C20 16.4477 19.5523 15.9999 19 15.9999H17Z" fill="#3B3751"/>
<path fill-rule="evenodd" clip-rule="evenodd" d="M2 4.99994C2 3.34308 3.34315 1.99994 5 1.99994H7C8.65685 1.99994 10 3.34308 10 4.99994V6.99994C10 8.65679 8.65685 9.99994 7 9.99994H5C3.34315 9.99994 2 8.65679 2 6.99994V4.99994ZM5 3.99994C4.44772 3.99994 4 4.44765 4 4.99994V6.99994C4 7.55222 4.44772 7.99994 5 7.99994H7C7.55228 7.99994 8 7.55222 8 6.99994V4.99994C8 4.44765 7.55228 3.99994 7 3.99994H5Z" fill="#3B3751"/>
<path fill-rule="evenodd" clip-rule="evenodd" d="M14 4.99994C14 3.34308 15.3431 1.99994 17 1.99994H19C20.6569 1.99994 22 3.34308 22 4.99994V6.99994C22 8.65679 20.6569 9.99994 19 9.99994H17C15.3431 9.99994 14 8.65679 14 6.99994V4.99994ZM17 3.99994C16.4477 3.99994 16 4.44765 16 4.99994V6.99994C16 7.55222 16.4477 7.99994 17 7.99994H19C19.5523 7.99994 20 7.55222 20 6.99994V4.99994C20 4.44765 19.5523 3.99994 19 3.99994H17Z" fill="#3B3751"/>
<path d="M11 5.99091C11 5.43862 11.4477 4.99091 12 4.99091C12.5523 4.99091 13 5.43862 13 5.99091C13 6.54319 12.5523 6.99091 12 6.99091C11.4477 6.99091 11 6.54319 11 5.99091Z" fill="#3B3751"/>
<path d="M5 11.9909C5 11.4386 5.44772 10.9909 6 10.9909C6.55228 10.9909 7 11.4386 7 11.9909C7 12.5432 6.55228 12.9909 6 12.9909C5.44772 12.9909 5 12.5432 5 11.9909Z" fill="#3B3751"/>
<path d="M12.0001 16.9909C12.5523 16.9909 13.0001 17.4386 13.0001 17.9909C13.0001 18.5432 12.5523 18.9909 12.0001 18.9909C11.4478 18.9909 11.0001 18.5432 11.0001 17.9909C11.0001 17.4386 11.4478 16.9909 12.0001 16.9909Z" fill="#3B3751"/>
<path d="M18 10.9909C18.5523 10.9909 19 11.4386 19 11.9909C19 12.5432 18.5523 12.9909 18 12.9909C17.4477 12.9909 17 12.5432 17 11.9909C17 11.4386 17.4477 10.9909 18 10.9909Z" fill="#3B3751"/>
<path d="M12 8.99091C12.5523 8.99091 13 9.43862 13 9.99091V13.9909C13 14.5432 12.5523 14.9909 12 14.9909C11.4477 14.9909 11 14.5432 11 13.9909V9.99091C11 9.43862 11.4477 8.99091 12 8.99091Z" fill="#3B3751"/>
<path d="M9 11.9909C9 11.4386 9.44772 10.9909 10 10.9909H14C14.5523 10.9909 15 11.4386 15 11.9909C15 12.5432 14.5523 12.9909 14 12.9909H10C9.44772 12.9909 9 12.5432 9 11.9909Z" fill="#3B3751"/>
</svg>
