<svg width="24" height="24" viewBox="0 0 24 24" fill="none" xmlns="http://www.w3.org/2000/svg">
<path fill-rule="evenodd" clip-rule="evenodd" d="M19.1682 10.8451L10.4014 19.7506C9.48383 20.6661 8.06499 20.4735 7.01399 19.4892C6.5095 19.0158 6.18787 18.4284 6.1201 17.8572C6.05663 17.3172 6.2083 16.7201 6.7924 16.137L14.9223 8.00513C15.1848 7.74371 15.4354 7.67809 15.6419 7.68778C15.8667 7.69747 16.1023 7.8029 16.2895 7.98685C16.4777 8.16973 16.581 8.3978 16.5918 8.61188C16.6015 8.80767 16.5391 9.06263 16.2594 9.34233L10.7238 14.8785C10.4011 15.2002 10.4011 15.7241 10.7238 16.0468C11.0465 16.3696 11.5693 16.3696 11.892 16.0468L17.4276 10.5106C18.0117 9.92649 18.2774 9.22614 18.2419 8.52796C18.2075 7.84804 17.8912 7.24237 17.4459 6.80668C17.0005 6.36992 16.3917 6.06868 15.7194 6.0364C15.0278 6.00413 14.3307 6.26017 13.7542 6.83678L5.62426 14.9686C4.69701 15.8949 4.35387 16.989 4.47974 18.0518C4.6013 19.0846 5.15526 20.0119 5.88459 20.695C7.30019 22.0215 9.77977 22.71 11.5716 20.9167L11.5749 20.9145L20.3461 12.0046C22.9299 9.37859 22.1683 5.88652 20.174 3.85018C19.1682 2.82386 17.8064 2.10525 16.3047 2.01057C14.7816 1.91482 13.196 2.46562 11.7891 3.83405L11.7859 3.83727L2.24028 13.3172C1.9165 13.6389 1.91435 14.1617 2.23598 14.4856C2.55762 14.8094 3.08039 14.8115 3.40418 14.4899L12.9434 5.01651C14.0449 3.94609 15.1841 3.59647 16.2006 3.65992C17.2386 3.72554 18.2304 4.22794 18.9932 5.00681C20.5335 6.57854 20.9581 9.02719 19.1682 10.8451Z" fill="#3B3751"/>
</svg>
