<svg width="24" height="24" viewBox="0 0 24 24" fill="none" xmlns="http://www.w3.org/2000/svg">
<path d="M14.306 9.78361C13.898 9.37559 13.898 8.71405 14.306 8.30602C14.714 7.89799 15.3756 7.89799 15.7836 8.30602L21.694 14.2164C22.102 14.6244 22.102 15.286 21.694 15.694C21.286 16.102 20.6244 16.102 20.2164 15.694L14.306 9.78361Z" fill="#3B3751"/>
<path d="M20.2164 8.30602C20.6244 7.89799 21.286 7.89799 21.694 8.30602C22.102 8.71405 22.102 9.37559 21.694 9.78361L15.7836 15.694C15.3756 16.102 14.714 16.102 14.306 15.694C13.898 15.286 13.898 14.6244 14.306 14.2164L20.2164 8.30602Z" fill="#3B3751"/>
<path d="M9 13C9.553 13 10 13.447 10 14V21C10 21.553 9.553 22 9 22H3C2.447 22 2 21.553 2 21V14C2 13.447 2.447 13 3 13H9ZM9 2C9.553 2 10 2.447 10 3V10C10 10.553 9.553 11 9 11H3C2.447 11 2 10.553 2 10V3C2 2.447 2.447 2 3 2H9ZM4.5 4C4.22386 4 4 4.22386 4 4.5V8.5C4 8.77614 4.22386 9 4.5 9H7.5C7.77614 9 8 8.77614 8 8.5V4.5C8 4.22386 7.77614 4 7.5 4H4.5Z" fill="#3B3751"/>
</svg>
