<svg width="24" height="24" viewBox="0 0 24 24" fill="none" xmlns="http://www.w3.org/2000/svg">
<path d="M18 3H12V5H18C19.104 5 20 5.896 20 7V14C20 15.104 19.104 16 18 16H16.414L17.707 14.707L16.293 13.293L12.586 17L16.293 20.707L17.707 19.293L16.414 18H18C20.205 18 22 16.205 22 14V7C22 4.795 20.205 3 18 3Z" fill="#3B3751"/>
<path d="M9 13H3C2.447 13 2 13.447 2 14V21C2 21.553 2.447 22 3 22H9C9.553 22 10 21.553 10 21V14C10 13.447 9.553 13 9 13Z" fill="#3B3751"/>
<path d="M9 2H3C2.447 2 2 2.447 2 3V10C2 10.553 2.447 11 3 11H9C9.553 11 10 10.553 10 10V3C10 2.447 9.553 2 9 2ZM8 8.5C8 8.77614 7.77614 9 7.5 9H4.5C4.22386 9 4 8.77614 4 8.5V4.5C4 4.22386 4.22386 4 4.5 4H7.5C7.77614 4 8 4.22386 8 4.5V8.5Z" fill="#3B3751"/>
</svg>
