<svg width="24" height="24" viewBox="0 0 24 24" fill="none" xmlns="http://www.w3.org/2000/svg">
<path d="M12.4111 2.08839L21.4061 6.08619C21.9108 6.3105 22.1381 6.90146 21.9138 7.40614C21.6895 7.91083 21.0985 8.13812 20.5939 7.91382L12 4.09433L3.40614 7.91382C2.90146 8.13812 2.3105 7.91083 2.08619 7.40614C1.86189 6.90146 2.08918 6.3105 2.59387 6.08619L11.5889 2.08839C11.5977 2.08444 11.6065 2.08062 11.6154 2.07692C11.741 2.02453 11.8715 1.99969 12 1.99976C12.1426 1.99983 12.2828 2.03059 12.4111 2.08839Z" fill="#3B3751"/>
<path d="M2 21C2 20.4477 2.44772 20 3 20H21C21.5523 20 22 20.4477 22 21C22 21.5523 21.5523 22 21 22H3C2.44772 22 2 21.5523 2 21Z" fill="#3B3751"/>
<path d="M13 10C13 9.44772 12.5523 9 12 9C11.4477 9 11 9.44772 11 10V17C11 17.5523 11.4477 18 12 18C12.5523 18 13 17.5523 13 17V10Z" fill="#3B3751"/>
<path d="M19 9C19.5523 9 20 9.44772 20 10V17C20 17.5523 19.5523 18 19 18C18.4477 18 18 17.5523 18 17V10C18 9.44772 18.4477 9 19 9Z" fill="#3B3751"/>
<path d="M6 10C6 9.44772 5.55228 9 5 9C4.44772 9 4 9.44772 4 10V17C4 17.5523 4.44772 18 5 18C5.55228 18 6 17.5523 6 17V10Z" fill="#3B3751"/>
</svg>
