<svg width="24" height="24" viewBox="0 0 24 24" fill="none" xmlns="http://www.w3.org/2000/svg">
<path d="M8.55499 19C9.24799 20.19 10.524 21 12 21C13.476 21 14.752 20.19 15.445 19H8.55499Z" fill="#3B3751"/>
<path d="M21 18H3V15.279L3.684 15.052C5.069 14.589 6 13.298 6 11.838V9C6 5.691 8.691 3 12 3C15.309 3 18 5.691 18 9V11.838C18 13.298 18.931 14.589 20.316 15.052L21 15.279V18ZM6.035 16H17.966C16.745 14.998 16 13.486 16 11.838V9C16 6.794 14.206 5 12 5C9.794 5 8 6.794 8 9V11.838C8 13.486 7.255 14.998 6.035 16Z" fill="#3B3751"/>
</svg>
