<svg width="24" height="24" viewBox="0 0 24 24" fill="none" xmlns="http://www.w3.org/2000/svg">
<path fill-rule="evenodd" clip-rule="evenodd" d="M6 3C6 2.44771 6.44772 2 7 2H11.5C14.5376 2 17 4.46243 17 7.5C17 9.15879 16.2657 10.6461 15.1043 11.6545C16.8283 12.583 18 14.4047 18 16.5C18 19.5376 15.5376 22 12.5 22H7.09091C6.48842 22 6 21.5116 6 20.9091V3ZM8 11V4H11.5C13.433 4 15 5.567 15 7.5C15 9.433 13.433 11 11.5 11H8ZM8 13V20H12.5C14.433 20 16 18.433 16 16.5C16 14.567 14.433 13 12.5 13H8Z" fill="#3B3751"/>
</svg>
