<svg width="24" height="24" viewBox="0 0 24 24" fill="none" xmlns="http://www.w3.org/2000/svg">
<path fill-rule="evenodd" clip-rule="evenodd" d="M1 5.84503C1 4.18818 2.34315 2.84503 4 2.84503H20C21.6569 2.84503 23 4.18818 23 5.84503V17.845C23 19.5019 21.6569 20.845 20 20.845H4C2.34315 20.845 1 19.5019 1 17.845V5.84503ZM4 4.84503C3.44772 4.84503 3 5.29275 3 5.84503V17.845C3 18.3973 3.44772 18.845 4 18.845H11L11 4.84503H4ZM20 18.845H13L13 4.84503H20C20.5523 4.84503 21 5.29275 21 5.84503V17.845C21 18.3973 20.5523 18.845 20 18.845ZM19.0005 16C19.5528 16 20.0005 15.5523 20.0005 15C20.0005 14.4477 19.5528 14 19.0005 14H15.0005C14.4482 14 14.0005 14.4477 14.0005 15C14.0005 15.5523 14.4482 16 15.0005 16H19.0005ZM20.0005 9C20.0005 9.55228 19.5528 10 19.0005 10H15.0005C14.4482 10 14.0005 9.55228 14.0005 9C14.0005 8.44772 14.4482 8 15.0005 8H19.0005C19.5528 8 20.0005 8.44772 20.0005 9ZM19.0005 13C19.5528 13 20.0005 12.5523 20.0005 12C20.0005 11.4477 19.5528 11 19.0005 11H15.0005C14.4482 11 14.0005 11.4477 14.0005 12C14.0005 12.5523 14.4482 13 15.0005 13H19.0005Z" fill="#3B3751"/>
</svg>
