<svg width="24" height="24" viewBox="0 0 24 24" fill="none" xmlns="http://www.w3.org/2000/svg">
<path fill-rule="evenodd" clip-rule="evenodd" d="M8.2522 3C8.23222 3 8.18113 3.00795 8.1207 3.0771C8.05654 3.15052 8.00202 3.2755 8.0022 3.42917L8.0022 3.43034L8.0022 19.8259L11.3514 16.9554C11.7259 16.6345 12.2783 16.6344 12.6528 16.9553L16.0022 19.8246V3.42844C16.0022 3.26913 15.9456 3.14785 15.8835 3.07692C15.8232 3.00796 15.7744 3 15.7522 3H8.2522ZM6.61474 1.76101C7.02325 1.29357 7.60856 0.999999 8.2522 1H15.7522C17.116 1 18.0022 2.21676 18.0022 3.42844V21.9981C18.0022 22.3886 17.7749 22.7433 17.4202 22.9066C17.0654 23.0698 16.6482 23.0116 16.3516 22.7575L12.0023 19.0316L7.65295 22.7593C7.35644 23.0134 6.93911 23.0717 6.58432 22.9085C6.22953 22.7453 6.0022 22.3905 6.0022 22V3.43088" fill="#3B3751"/>
</svg>
