<svg width="24" height="24" viewBox="0 0 24 24" fill="none" xmlns="http://www.w3.org/2000/svg">
<path fill-rule="evenodd" clip-rule="evenodd" d="M11.5528 2.10557C11.8343 1.96481 12.1657 1.96481 12.4472 2.10557L21.4472 6.60557C21.4583 6.6111 21.4692 6.61681 21.48 6.62271C21.6529 6.71708 21.7998 6.86341 21.8946 7.05301C21.9711 7.20599 22.0047 7.36921 22 7.52898V16.5C22 16.8788 21.786 17.225 21.4472 17.3944L12.4652 21.8854C12.3263 21.9586 12.168 22 12 22C11.9868 22 11.9737 21.9997 11.9605 21.9992C11.8072 21.9933 11.6628 21.9528 11.5348 21.8854L2.55279 17.3944C2.214 17.225 2 16.8788 2 16.5V7.4985C2.00004 7.45262 2.00326 7.40653 2.00975 7.36055C2.05512 7.03789 2.25611 6.75391 2.55279 6.60557L11.5528 2.10557ZM16.5003 6.3682L18.7643 7.50016L12.0002 10.8822L9.73629 9.75022L16.5003 6.3682ZM14.2643 5.25016L12 4.11803L5.23596 7.50005L7.50022 8.63218L14.2643 5.25016ZM7.04259 10.6394L4 9.11814V15.882L11 19.382V12.6181L7.06205 10.6492C7.05553 10.646 7.04904 10.6428 7.04259 10.6394ZM13 19.382V12.6184L20 9.11836V15.882L13 19.382Z" fill="#3B3751"/>
</svg>
