<svg width="24" height="24" viewBox="0 0 24 24" fill="none" xmlns="http://www.w3.org/2000/svg">
<path d="M15.456 9.67785L15.314 9.53585C14.6448 8.89057 13.8223 8.42631 12.924 8.18685C10.017 7.40885 7.225 9.05585 6.432 12.0168C6.389 12.1768 6.366 12.3568 6.328 12.8078C6.174 14.6778 5.734 16.0729 4.528 17.4879C6.788 18.3759 9.466 19.0019 11.502 19.0019C12.7123 19.0003 13.8883 18.6 14.8482 17.8629C15.8081 17.1257 16.4983 16.0928 16.812 14.9238C17.0583 14.0068 17.0629 13.0415 16.8253 12.1222C16.5876 11.2028 16.1159 10.3607 15.456 9.67785ZM13.29 6.21585L18.229 2.37485C18.4213 2.22547 18.6615 2.15138 18.9045 2.16648C19.1475 2.18157 19.3767 2.28482 19.549 2.45685L22.544 5.45085C22.7163 5.62322 22.8197 5.85259 22.8348 6.09584C22.8499 6.3391 22.7757 6.57949 22.626 6.77185L18.786 11.7098C19.0568 12.8143 19.073 13.9657 18.8335 15.0773C18.5941 16.189 18.1052 17.2316 17.4037 18.1266C16.7022 19.0215 15.8066 19.7454 14.7843 20.2435C13.7621 20.7416 12.6401 21.0009 11.503 21.0019C8 21.0019 3.5 19.4998 1 17.9998C4.98 14.9998 4.047 13.1898 4.5 11.4998C5.558 7.54985 9.342 5.24285 13.289 6.21585H13.29ZM16.703 8.09485C16.768 8.15785 16.833 8.22285 16.896 8.28885L18.031 9.42285L20.506 6.24085L18.76 4.49485L15.578 6.96985L16.703 8.09485Z" fill="#3B3751"/>
</svg>
