<svg width="24" height="24" viewBox="0 0 24 24" fill="none" xmlns="http://www.w3.org/2000/svg">
<path d="M19 7H17V9H19V7Z" fill="#3B3751"/>
<path d="M19 11H17V13H19V11Z" fill="#3B3751"/>
<path d="M19 15H17V17H19V15Z" fill="#3B3751"/>
<path d="M1.41876 10.7009C1.15597 10.8886 1 11.1917 1 11.5146V20C1 20.5523 1.44772 21 2 21H6C6.55228 21 7 20.5523 7 20V16H9V20C9 20.5523 9.44772 21 10 21H14C14.5523 21 15 20.5523 15 20V11.5146C15 11.1917 14.844 10.8886 14.5812 10.7009L8.58124 6.41517C8.23354 6.16681 7.76646 6.16681 7.41876 6.41517L1.41876 10.7009ZM13 19H11V15C11 14.4477 10.5523 14 10 14H6C5.44772 14 5 14.4477 5 15V19H3V12L8 8.5L13 12V19Z" fill="#3B3751"/>
<path d="M11 3C10.4477 3 10 3.44772 10 4V4.97L10.8612 5.58573C11.3377 5.92646 12 5.58582 12 5H21V19H17V20C17 20.5523 17.4477 21 18 21H22C22.5523 21 23 20.5523 23 20V4C23 3.44772 22.5523 3 22 3H11Z" fill="#3B3751"/>
</svg>
