<svg width="24" height="24" viewBox="0 0 24 24" fill="none" xmlns="http://www.w3.org/2000/svg">
<path d="M18.2998 2C20.3433 2 22 3.65674 22 5.7002V18.2998C22 20.3433 20.3433 22 18.2998 22H5.7002C3.65674 22 2 20.3433 2 18.2998V5.7002C2 3.65674 3.65674 2 5.7002 2H18.2998ZM5.7002 4C4.76131 4 4 4.76131 4 5.7002V18.2998C4 19.2387 4.76131 20 5.7002 20H18.2998C19.2387 20 20 19.2387 20 18.2998V5.7002C20 4.76131 19.2387 4 18.2998 4H5.7002ZM17 6.99121C17.5523 6.99121 18 7.43893 18 7.99121V12.9912C17.9999 13.5434 17.5522 13.9912 17 13.9912H9.41406L10.707 15.2842C11.0974 15.6747 11.0975 16.3078 10.707 16.6982C10.3165 17.0886 9.68346 17.0886 9.29297 16.6982L6.29297 13.6982C5.90249 13.3078 5.90257 12.6747 6.29297 12.2842L9.29297 9.28418C9.68349 8.89366 10.3165 8.89366 10.707 9.28418C11.0974 9.67471 11.0975 10.3078 10.707 10.6982L9.41406 11.9912H16V7.99121C16 7.43893 16.4477 6.99121 17 6.99121Z" fill="#3B3751"/>
</svg>
