<svg width="24" height="24" viewBox="0 0 24 24" fill="none" xmlns="http://www.w3.org/2000/svg">
<path d="M17.0022 1.99997H7.0022C5.8992 1.99997 5.0022 2.89797 5.0022 3.99997V20C5.0022 21.103 5.8992 22 7.0022 22H17.0022C18.1062 22 19.0022 21.103 19.0022 20V3.99997C19.0022 2.89797 18.1062 1.99997 17.0022 1.99997ZM17.0022 3.99997L17.0012 7.99997H7.0022V3.99997H17.0022ZM7.0022 20V9.99997H17.0012L16.9992 20H7.0022Z" fill="#3B3751"/>
<path d="M9.0022 13C9.55448 13 10.0022 12.5523 10.0022 12C10.0022 11.4477 9.55448 11 9.0022 11C8.44991 11 8.0022 11.4477 8.0022 12C8.0022 12.5523 8.44991 13 9.0022 13Z" fill="#3B3751"/>
<path d="M12.0022 13C12.5545 13 13.0022 12.5523 13.0022 12C13.0022 11.4477 12.5545 11 12.0022 11C11.4499 11 11.0022 11.4477 11.0022 12C11.0022 12.5523 11.4499 13 12.0022 13Z" fill="#3B3751"/>
<path d="M15.0022 13C15.5545 13 16.0022 12.5523 16.0022 12C16.0022 11.4477 15.5545 11 15.0022 11C14.4499 11 14.0022 11.4477 14.0022 12C14.0022 12.5523 14.4499 13 15.0022 13Z" fill="#3B3751"/>
<path d="M16.0022 4.99997H14.0022V6.99997H16.0022V4.99997Z" fill="#3B3751"/>
<path d="M9.0022 16C9.55448 16 10.0022 15.5523 10.0022 15C10.0022 14.4477 9.55448 14 9.0022 14C8.44991 14 8.0022 14.4477 8.0022 15C8.0022 15.5523 8.44991 16 9.0022 16Z" fill="#3B3751"/>
<path d="M12.0022 16C12.5545 16 13.0022 15.5523 13.0022 15C13.0022 14.4477 12.5545 14 12.0022 14C11.4499 14 11.0022 14.4477 11.0022 15C11.0022 15.5523 11.4499 16 12.0022 16Z" fill="#3B3751"/>
<path d="M15.0022 16C15.5545 16 16.0022 15.5523 16.0022 15C16.0022 14.4477 15.5545 14 15.0022 14C14.4499 14 14.0022 14.4477 14.0022 15C14.0022 15.5523 14.4499 16 15.0022 16Z" fill="#3B3751"/>
<path d="M9.0022 19C9.55448 19 10.0022 18.5523 10.0022 18C10.0022 17.4477 9.55448 17 9.0022 17C8.44991 17 8.0022 17.4477 8.0022 18C8.0022 18.5523 8.44991 19 9.0022 19Z" fill="#3B3751"/>
<path d="M12.0022 19C12.5545 19 13.0022 18.5523 13.0022 18C13.0022 17.4477 12.5545 17 12.0022 17C11.4499 17 11.0022 17.4477 11.0022 18C11.0022 18.5523 11.4499 19 12.0022 19Z" fill="#3B3751"/>
<path d="M15.0022 19C15.5545 19 16.0022 18.5523 16.0022 18C16.0022 17.4477 15.5545 17 15.0022 17C14.4499 17 14.0022 17.4477 14.0022 18C14.0022 18.5523 14.4499 19 15.0022 19Z" fill="#3B3751"/>
</svg>
