<svg width="24" height="24" viewBox="0 0 24 24" fill="none" xmlns="http://www.w3.org/2000/svg">
<path d="M20.9998 2.99805H17.9998V0.998047H15.9998V6.99805H17.9998V4.99805H20.9998V19.998H2.99976V4.99805H4.99976V2.99805H2.99976C1.89576 2.99805 0.999756 3.89305 0.999756 4.99805V19.998C0.999756 21.102 1.89576 21.998 2.99976 21.998H20.9998C22.1038 21.998 22.9998 21.102 22.9998 19.998V4.99805C22.9998 3.89305 22.1038 2.99805 20.9998 2.99805Z" fill="#3B3751"/>
<path d="M7.99976 4.99805H14.9998V2.99805H7.99976V0.998047H5.99976V6.99805H7.99976V4.99805Z" fill="#3B3751"/>
<path d="M13.0022 7.99506H11.0022V13.9951H13.0022V7.99506Z" fill="#3B3751"/>
<path d="M12.0022 17.2451C12.6926 17.2451 13.2522 16.6854 13.2522 15.9951C13.2522 15.3047 12.6926 14.7451 12.0022 14.7451C11.3118 14.7451 10.7522 15.3047 10.7522 15.9951C10.7522 16.6854 11.3118 17.2451 12.0022 17.2451Z" fill="#3B3751"/>
</svg>
