<svg width="24" height="24" viewBox="0 0 24 24" fill="none" xmlns="http://www.w3.org/2000/svg">
<path d="M20.9998 2.99802H17.9998V0.998016H15.9998V6.99802H17.9998V4.99802H20.9998V19.998H2.99976V4.99802H4.99976V2.99802H2.99976C1.89576 2.99802 0.999756 3.89302 0.999756 4.99802V19.998C0.999756 21.102 1.89576 21.998 2.99976 21.998H20.9998C22.1038 21.998 22.9998 21.102 22.9998 19.998V4.99802C22.9998 3.89302 22.1038 2.99802 20.9998 2.99802Z" fill="#3B3751"/>
<path d="M7.99976 4.99802H14.9998V2.99802H7.99976V0.998016H5.99976V6.99802H7.99976V4.99802Z" fill="#3B3751"/>
<path d="M8.99976 8.99802H4.99976V12.998H8.99976V8.99802Z" fill="#3B3751"/>
<path d="M13.9998 8.99802H9.99976V12.998H13.9998V8.99802Z" fill="#3B3751"/>
<path d="M18.9998 8.99802H14.9998V12.998H18.9998V8.99802Z" fill="#3B3751"/>
<path d="M8.99976 13.998H4.99976V17.998H8.99976V13.998Z" fill="#3B3751"/>
<path d="M13.9998 13.998H9.99976V17.998H13.9998V13.998Z" fill="#3B3751"/>
<path d="M18.9998 13.998H14.9998V17.998H18.9998V13.998Z" fill="#3B3751"/>
</svg>
