<svg width="24" height="24" viewBox="0 0 24 24" fill="none" xmlns="http://www.w3.org/2000/svg">
<path fill-rule="evenodd" clip-rule="evenodd" d="M12 8C9.23858 8 7 10.2386 7 13C7 15.7614 9.23858 18 12 18C14.7614 18 17 15.7614 17 13C17 10.2386 14.7614 8 12 8ZM9 13C9 11.3431 10.3431 10 12 10C13.6569 10 15 11.3431 15 13C15 14.6569 13.6569 16 12 16C10.3431 16 9 14.6569 9 13Z" fill="#3B3751"/>
<path fill-rule="evenodd" clip-rule="evenodd" d="M9.73675 3C9.17982 3 8.6481 3.23223 8.2696 3.64078L7.21625 4.77778L4.8 4.77778C3.26946 4.77778 2 6.01382 2 7.55556V18.2222C2 19.764 3.26946 21 4.8 21H19.2C20.7305 21 22 19.764 22 18.2222V7.55556C22 6.01382 20.7305 4.77778 19.2 4.77778H16.7838L15.7304 3.64078C15.3519 3.23223 14.8202 3 14.2632 3H9.73675ZM9.73675 5H14.2632L15.3166 6.137C15.6951 6.54555 16.2268 6.77778 16.7838 6.77778H19.2C19.6495 6.77778 20 7.14174 20 7.55556V18.2222C20 18.636 19.6495 19 19.2 19H4.8C4.35054 19 4 18.636 4 18.2222V7.55556C4 7.14174 4.35054 6.77778 4.8 6.77778H7.21625C7.77318 6.77778 8.3049 6.54555 8.68339 6.137L9.73675 5Z" fill="#3B3751"/>
</svg>
