<svg width="24" height="24" viewBox="0 0 24 24" fill="none" xmlns="http://www.w3.org/2000/svg">
<path d="M19 13H11V5C11 4.714 10.877 4.44 10.662 4.25C10.447 4.06 10.163 3.971 9.876 4.008C5.386 4.569 2 8.435 2 13C2 17.962 6.037 22 11 22C15.566 22 19.432 18.614 19.992 14.124C20.027 13.84 19.939 13.554 19.75 13.338C19.56 13.123 19.287 13 19 13ZM11 20C7.141 20 4 16.86 4 13C4 9.834 6.082 7.102 9 6.229V14C9 14.552 9.447 15 10 15H17.771C16.898 17.917 14.166 20 11 20Z" fill="#3B3751"/>
<path d="M13 2C12.447 2 12 2.448 12 3V11C12 11.552 12.447 12 13 12H21C21.553 12 22 11.552 22 11C22 6.038 17.963 2 13 2ZM14 10V4.071C17.061 4.51 19.488 6.938 19.929 10H14Z" fill="#3B3751"/>
</svg>
