<svg width="24" height="24" viewBox="0 0 24 24" fill="none" xmlns="http://www.w3.org/2000/svg">
<path fill-rule="evenodd" clip-rule="evenodd" d="M19.35 10.04C18.67 6.59 15.64 4 12 4C9.11 4 6.6 5.64 5.35 8.04C2.34 8.36 0 10.91 0 14C0 17.31 2.69 20 6 20H19C21.76 20 24 17.76 24 15C24 12.36 21.95 10.22 19.35 10.04ZM17.3878 10.4268L17.6839 11.9294L19.2119 12.0352C20.7838 12.144 22 13.4313 22 15C22 16.6554 20.6554 18 19 18H6C3.79457 18 2 16.2054 2 14C2 11.9413 3.55992 10.2416 5.56143 10.0288L6.62825 9.91538L7.12383 8.96387C8.04354 7.19801 9.88581 6 12 6C14.6656 6 16.8888 7.89548 17.3878 10.4268Z" fill="#3B3751"/>
<path d="M11 8H13V13H11V8Z" fill="#3B3751"/>
<path d="M11 14H13V16H11V14Z" fill="#3B3751"/>
</svg>
