<svg width="24" height="24" viewBox="0 0 24 24" fill="none" xmlns="http://www.w3.org/2000/svg">
<path d="M24 14.14C24 11.5 21.95 9.36 19.35 9.18C18.67 5.73 15.64 3.14 12 3.14C10.67 3.14 9.43 3.5 8.35 4.11L9.84 5.6C10.51 5.31 11.23 5.14 12 5.14C15.04 5.14 17.5 7.6 17.5 10.64V11.14H19C20.66 11.14 22 12.48 22 14.14C22 15.13 21.52 15.99 20.79 16.54L22.2 17.95C23.29 17.03 24 15.68 24 14.14ZM4.41 3L3 4.41L5.77 7.18H5.35C2.34 7.5 0 10.05 0 13.14C0 16.45 2.69 19.14 6 19.14H17.73L19.73 21.14L21.14 19.73L4.41 3ZM6 17.14C3.79 17.14 2 15.35 2 13.14C2 10.93 3.79 9.14 6 9.14H7.73L15.73 17.14H6Z" fill="#3B3751"/>
</svg>
