<svg width="24" height="24" viewBox="0 0 24 24" fill="none" xmlns="http://www.w3.org/2000/svg">
<path d="M6.457 18.9571L15.021 10.3931L13.607 8.97909L5.043 17.5431L6.457 18.9571ZM12.192 7.56509L10.778 6.15109L12.192 4.73709L13.96 6.50409L16.789 3.67609C16.9765 3.48862 17.2308 3.3833 17.496 3.3833C17.7612 3.3833 18.0155 3.48862 18.203 3.67609L20.324 5.79709C20.5115 5.98461 20.6168 6.23892 20.6168 6.50409C20.6168 6.76925 20.5115 7.02356 20.324 7.21109L17.496 10.0401L19.263 11.8081L17.849 13.2221L16.435 11.8081L7.243 21.0001H3V16.7571L12.192 7.56509Z" fill="#3B3751"/>
</svg>
