<svg width="24" height="24" viewBox="0 0 24 24" fill="none" xmlns="http://www.w3.org/2000/svg">
<path d="M5 2H19C19.7956 2 20.5587 2.31607 21.1213 2.87868C21.6839 3.44129 22 4.20435 22 5V15C22 15.7956 21.6839 16.5587 21.1213 17.1213C20.5587 17.6839 19.7956 18 19 18H7.41L3.71 21.71C3.61656 21.8027 3.50574 21.876 3.38391 21.9258C3.26207 21.9755 3.13161 22.0008 3 22C2.86882 22.0034 2.73868 21.976 2.62 21.92C2.43738 21.845 2.28105 21.7176 2.17072 21.5539C2.06039 21.3901 2.00099 21.1974 2 21V5C2 4.20435 2.31607 3.44129 2.87868 2.87868C3.44129 2.31607 4.20435 2 5 2Z" fill="#3B3751"/>
</svg>
