<svg width="24" height="24" viewBox="0 0 24 24" fill="none" xmlns="http://www.w3.org/2000/svg">
<path d="M5.99951 23V19H4.49963C3.6727 19 2.99976 18.327 2.99976 17.5L2.99976 4.5C2.99976 3.673 3.6727 3 4.49963 3H19.4984C20.3253 3 20.9983 3.673 20.9983 4.5L20.9983 16H18.9984V5H4.99959V17H7.99934V19L10.6651 17H15.9987C15.9987 17.781 15.9987 18.219 15.9987 19H11.3331L5.99951 23Z" fill="#3B3751"/>
<path d="M15.9987 19H19.4984C20.3253 19 20.9983 18.327 20.9983 17.5V16H18.9984V17H15.9987V19Z" fill="#3B3751"/>
<path d="M10.9991 10H7.99934V12H10.9991V15H12.9989V12H15.9987V10H12.9989V7H10.9991V10Z" fill="#3B3751"/>
</svg>
