<svg width="24" height="24" viewBox="0 0 24 24" fill="none" xmlns="http://www.w3.org/2000/svg">
<path d="M20.9982 23.997L15.6647 19.997H12.499C11.672 19.997 10.9991 19.324 10.9991 18.497V11.497C10.9991 10.67 11.672 9.99701 12.499 9.99701H22.4981C23.3251 9.99701 23.998 10.67 23.998 11.497V18.497C23.998 19.324 23.3251 19.997 22.4981 19.997H20.9982V23.997ZM12.9989 17.997H16.3326L18.9984 19.997V17.997H21.9982V11.997H12.9989V17.997Z" fill="#3B3751"/>
<path d="M2.99975 19.997V15.997H1.49987C0.672944 15.997 0 15.324 0 14.497V3.49701C0 2.67001 0.672944 1.99701 1.49987 1.99701H14.4988C15.3257 1.99701 15.9987 2.67001 15.9987 3.49701V7.99501H13.9988V3.99701H1.99983V13.997H4.99958V15.997L7.66536 13.997H8.99925V15.997H8.3333L2.99975 19.997Z" fill="#3B3751"/>
</svg>
