<svg width="24" height="24" viewBox="0 0 24 24" fill="none" xmlns="http://www.w3.org/2000/svg">
<path d="M11 6H13V9H16V11H13V14H11V11H8V9H11V6Z" fill="#3B3751"/>
<path fill-rule="evenodd" clip-rule="evenodd" d="M19 2H5C4.20435 2 3.44129 2.31607 2.87868 2.87868C2.31607 3.44129 2 4.20435 2 5V21C2.00099 21.1974 2.06039 21.3901 2.17072 21.5539C2.28105 21.7176 2.43738 21.845 2.62 21.92C2.73868 21.976 2.86882 22.0034 3 22C3.13161 22.0008 3.26207 21.9755 3.38391 21.9258C3.50574 21.876 3.61656 21.8027 3.71 21.71L7.41 18H19C19.7956 18 20.5587 17.6839 21.1213 17.1213C21.6839 16.5587 22 15.7956 22 15V5C22 4.20435 21.6839 3.44129 21.1213 2.87868C20.5587 2.31607 19.7956 2 19 2ZM6.29 16.29L4 18.59V5C4 4.73478 4.10536 4.48043 4.29289 4.29289C4.48043 4.10536 4.73478 4 5 4H19C19.2652 4 19.5196 4.10536 19.7071 4.29289C19.8946 4.48043 20 4.73478 20 5V15C20 15.2652 19.8946 15.5196 19.7071 15.7071C19.5196 15.8946 19.2652 16 19 16H7C6.86839 15.9992 6.73793 16.0245 6.61609 16.0742C6.49426 16.124 6.38344 16.1973 6.29 16.29Z" fill="#3B3751"/>
</svg>
