<svg width="24" height="24" viewBox="0 0 24 24" fill="none" xmlns="http://www.w3.org/2000/svg">
<path d="M11 5.99097C10.4477 5.99097 10 6.43868 10 6.99097C10 7.54325 10.4477 7.99097 11 7.99097H17C17.5523 7.99097 18 7.54325 18 6.99097C18 6.43868 17.5523 5.99097 17 5.99097H11Z" fill="#3B3751"/>
<path d="M10 9.99097C10 9.43868 10.4477 8.99097 11 8.99097H17C17.5523 8.99097 18 9.43868 18 9.99097C18 10.5433 17.5523 10.991 17 10.991H11C10.4477 10.991 10 10.5433 10 9.99097Z" fill="#3B3751"/>
<path d="M11 11.991C10.4477 11.991 10 12.4387 10 12.991C10 13.5433 10.4477 13.991 11 13.991H17C17.5523 13.991 18 13.5433 18 12.991C18 12.4387 17.5523 11.991 17 11.991H11Z" fill="#3B3751"/>
<path fill-rule="evenodd" clip-rule="evenodd" d="M6 5.7C6 3.65655 7.65655 2 9.7 2H18.3C20.3435 2 22 3.65655 22 5.7V14.3C22 16.3435 20.3435 18 18.3 18H18V18.3C18 20.3435 16.3435 22 14.3 22H5.7C3.65655 22 2 20.3435 2 18.3V9.7C2 7.65655 3.65655 6 5.7 6H6V5.7ZM9.7 4C8.76112 4 8 4.76112 8 5.7V14.3C8 15.2389 8.76112 16 9.7 16H18.3C19.2389 16 20 15.2389 20 14.3V5.7C20 4.76112 19.2389 4 18.3 4H9.7ZM9.7 18H16V18.3C16 19.2389 15.2389 20 14.3 20H5.7C4.76112 20 4 19.2389 4 18.3V9.7C4 8.76112 4.76112 8 5.7 8H6V14.3C6 16.3435 7.65655 18 9.7 18Z" fill="#3B3751"/>
</svg>
