<svg width="24" height="24" viewBox="0 0 24 24" fill="none" xmlns="http://www.w3.org/2000/svg">
<path fill-rule="evenodd" clip-rule="evenodd" d="M2 8C2 6.89543 2.83631 6 3.86796 6H9.92983C10.6002 6 11.2191 6.38457 11.5517 7.00772L14.7539 13.0077C15.082 13.6226 15.082 14.3774 14.7539 14.9923L11.5517 20.9923C11.2191 21.6154 10.6002 22 9.92983 22H3.86796C2.83631 22 2 21.1046 2 20V8ZM9.92983 8L3.86796 8V20H9.92983L13.132 14L9.92983 8Z" fill="#3B3751"/>
<path d="M9 4C9 2.89543 9.83631 2 10.868 2H16.9298C17.6002 2 18.2191 2.38457 18.5517 3.00772L21.7539 9.00772C22.082 9.62259 22.082 10.3774 21.7539 10.9923L18.5517 16.9923C18.2191 17.6154 17.6002 18 16.9298 18H15L16 16H16.9298L20.132 10L16.9298 4L9 4Z" fill="#3B3751"/>
</svg>
