<svg width="24" height="24" viewBox="0 0 24 24" fill="none" xmlns="http://www.w3.org/2000/svg">
<path d="M23 10C23.553 10 24 9.552 24 9V4C24 3.448 23.553 3 23 3H1C0.447 3 0 3.448 0 4V9C0 9.552 0.447 10 1 10C2.104 10 3 10.898 3 12C3 13.103 2.104 14 1 14C0.447 14 0 14.448 0 15V20C0 20.552 0.447 21 1 21H23C23.553 21 24 20.552 24 20V15C24 14.448 23.553 14 23 14C21.896 14 21 13.103 21 12C21 10.898 21.896 10 23 10ZM22 15.874V19H18V17H16V19H2V15.874C3.723 15.428 5 13.86 5 12C5 10.14 3.723 8.573 2 8.126V5H16V7H18V5H22V8.126C20.277 8.573 19 10.14 19 12C19 13.86 20.277 15.428 22 15.874Z" fill="#3B3751"/>
<path d="M18 9H16V11H18V9Z" fill="#3B3751"/>
<path d="M18 13H16V15H18V13Z" fill="#3B3751"/>
<path d="M13.2922 7.29346L6.29265 14.293L7.70615 15.7065L14.7057 8.70695L13.2922 7.29346Z" fill="#3B3751"/>
<path d="M8 11C9.10457 11 10 10.1046 10 9C10 7.89543 9.10457 7 8 7C6.89543 7 6 7.89543 6 9C6 10.1046 6.89543 11 8 11Z" fill="#3B3751"/>
<path d="M13 16C14.1046 16 15 15.1046 15 14C15 12.8954 14.1046 12 13 12C11.8954 12 11 12.8954 11 14C11 15.1046 11.8954 16 13 16Z" fill="#3B3751"/>
</svg>
