<svg width="24" height="24" viewBox="0 0 24 24" fill="none" xmlns="http://www.w3.org/2000/svg">
<path d="M18.998 8.99402C20.652 8.99402 21.998 7.64802 21.998 5.99402C21.998 4.34002 20.652 2.99402 18.998 2.99402C17.696 2.99402 16.597 3.83202 16.183 4.99402H1.99805V6.99402H16.183C16.597 8.15602 17.696 8.99402 18.998 8.99402ZM18.998 4.99402C19.549 4.99402 19.998 5.44302 19.998 5.99402C19.998 6.54702 19.549 6.99402 18.998 6.99402C18.447 6.99402 17.998 6.54702 17.998 5.99402C17.998 5.44302 18.447 4.99402 18.998 4.99402Z" fill="#3B3751"/>
<path d="M8.99805 8.99401C7.69605 8.99401 6.59705 9.83201 6.18305 10.994H1.99805V12.994H6.18305C6.59705 14.156 7.69705 14.994 8.99805 14.994C10.299 14.994 11.399 14.156 11.813 12.994H21.998V10.994H11.813C11.399 9.83201 10.3 8.99401 8.99805 8.99401ZM8.99805 12.994C8.44705 12.994 7.99805 12.547 7.99805 11.994C7.99805 11.443 8.44705 10.994 8.99805 10.994C9.54905 10.994 9.99805 11.443 9.99805 11.994C9.99805 12.547 9.54905 12.994 8.99805 12.994Z" fill="#3B3751"/>
<path d="M18.998 14.994C17.696 14.994 16.597 15.832 16.183 16.994H1.99805V18.994H16.183C16.597 20.156 17.697 20.994 18.998 20.994C20.652 20.994 21.998 19.648 21.998 17.994C21.998 16.34 20.652 14.994 18.998 14.994ZM18.998 18.994C18.447 18.994 17.998 18.547 17.998 17.994C17.998 17.443 18.447 16.994 18.998 16.994C19.549 16.994 19.998 17.443 19.998 17.994C19.998 18.547 19.549 18.994 18.998 18.994Z" fill="#3B3751"/>
</svg>
