<svg width="24" height="24" viewBox="0 0 24 24" fill="none" xmlns="http://www.w3.org/2000/svg">
<path fill-rule="evenodd" clip-rule="evenodd" d="M6 2C3.79086 2 2 3.79086 2 6C2 7.87327 3.28771 9.44578 5.02622 9.88064L5.04136 9.88861L9.13217 12L5.04136 14.1114C5.03628 14.114 5.03124 14.1167 5.02622 14.1194C3.28771 14.5542 2 16.1267 2 18C2 20.2091 3.79086 22 6 22C8.20914 22 10 20.2091 10 18C10 16.6301 9.31136 15.4211 8.26138 14.7001L11.3125 13.1253L20.5414 17.8886C21.0321 18.1419 21.6353 17.9494 21.8886 17.4586C22.1419 16.9679 21.9494 16.3647 21.4586 16.1114L13.4929 12L21.4586 7.88862C21.9494 7.63532 22.1419 7.03213 21.8886 6.54136C21.6353 6.05059 21.0321 5.85808 20.5414 6.11138L11.3125 10.8747L8.26138 9.29988C9.31136 8.57895 10 7.36989 10 6C10 3.79086 8.20914 2 6 2ZM4 6C4 4.89543 4.89543 4 6 4C7.10457 4 8 4.89543 8 6C8 7.10457 7.10457 8 6 8C4.89543 8 4 7.10457 4 6ZM4 18C4 16.8954 4.89543 16 6 16C7.10457 16 8 16.8954 8 18C8 19.1046 7.10457 20 6 20C4.89543 20 4 19.1046 4 18Z" fill="#3B3751"/>
</svg>
