<svg width="24" height="24" viewBox="0 0 24 24" fill="none" xmlns="http://www.w3.org/2000/svg">
<path d="M12 1.99701C6.486 1.99701 2 6.48301 2 11.997C2 17.511 6.486 21.997 12 21.997C17.514 21.997 22 17.511 22 11.997C22 6.48301 17.514 1.99701 12 1.99701ZM12 3.99701C16.411 3.99701 20 7.58601 20 11.997C20 13.678 19.477 15.237 18.588 16.526C16.927 15.72 15.118 15.245 13.281 15.094L13.989 10.138L12.01 9.85501L11.266 15.057C9.243 15.153 7.239 15.64 5.412 16.526C4.523 15.237 4 13.678 4 11.997C4 7.58601 7.589 3.99701 12 3.99701ZM6.829 18.09C10.092 16.693 13.91 16.694 17.171 18.091C15.775 19.276 13.971 19.997 12 19.997C10.029 19.997 8.225 19.276 6.829 18.09Z" fill="#3B3751"/>
<path d="M12 6.99701C12.5523 6.99701 13 6.54929 13 5.99701C13 5.44472 12.5523 4.99701 12 4.99701C11.4477 4.99701 11 5.44472 11 5.99701C11 6.54929 11.4477 6.99701 12 6.99701Z" fill="#3B3751"/>
<path d="M16.242 8.75501C16.7943 8.75501 17.242 8.3073 17.242 7.75501C17.242 7.20273 16.7943 6.75501 16.242 6.75501C15.6897 6.75501 15.242 7.20273 15.242 7.75501C15.242 8.3073 15.6897 8.75501 16.242 8.75501Z" fill="#3B3751"/>
<path d="M18 12.997C18.5523 12.997 19 12.5493 19 11.997C19 11.4447 18.5523 10.997 18 10.997C17.4477 10.997 17 11.4447 17 11.997C17 12.5493 17.4477 12.997 18 12.997Z" fill="#3B3751"/>
<path d="M7.758 8.75501C8.31028 8.75501 8.758 8.3073 8.758 7.75501C8.758 7.20273 8.31028 6.75501 7.758 6.75501C7.20571 6.75501 6.758 7.20273 6.758 7.75501C6.758 8.3073 7.20571 8.75501 7.758 8.75501Z" fill="#3B3751"/>
<path d="M6 12.997C6.55228 12.997 7 12.5493 7 11.997C7 11.4447 6.55228 10.997 6 10.997C5.44772 10.997 5 11.4447 5 11.997C5 12.5493 5.44772 12.997 6 12.997Z" fill="#3B3751"/>
</svg>
