<svg width="24" height="24" viewBox="0 0 24 24" fill="none" xmlns="http://www.w3.org/2000/svg">
<path d="M12 2C7.527 2 3 3.374 3 6V18C3 20.626 7.527 22 12 22C16.473 22 21 20.626 21 18V6C21 3.374 16.473 2 12 2ZM12 4C16.547 4 19 5.42 19 6C19 6.58 16.547 8 12 8C7.453 8 5 6.58 5 6C5 5.42 7.453 4 12 4ZM12 20C7.453 20 5 18.58 5 18V16.6C6.736 17.523 9.374 18 12 18C14.626 18 17.264 17.522 19 16.6V18C19 18.58 16.547 20 12 20ZM12 16C7.453 16 5 14.58 5 14V12.6C6.736 13.523 9.374 14 12 14C14.626 14 17.264 13.522 19 12.6V14C19 14.58 16.547 16 12 16ZM12 12C7.453 12 5 10.58 5 10V8.6C6.736 9.522 9.374 10 12 10C14.626 10 17.264 9.522 19 8.6V10C19 10.58 16.547 12 12 12Z" fill="#3B3751"/>
</svg>
