<svg width="24" height="24" viewBox="0 0 24 24" fill="none" xmlns="http://www.w3.org/2000/svg">
<path fill-rule="evenodd" clip-rule="evenodd" d="M2 5C2 3.89543 2.89543 3 4 3H7.41968C8.13739 3 8.80008 3.38457 9.15616 4.00772L12.5847 11.0077C12.9361 11.6226 12.9361 12.3774 12.5847 12.9923L9.15616 19.9923C8.80008 20.6154 8.13739 21 7.41968 21H4C2.89543 21 2 20.1046 2 19V5ZM7.41968 5L4 5V19H7.41968L10.8482 12L7.41968 5Z" fill="#3B3751"/>
<path d="M22 14.5258L20.4734 13L18.0005 15.4742L15.5266 13L14 14.5258L16.4739 17L14 19.4742L15.5266 21L18.0005 18.5258L20.4734 21L22 19.4742L19.5261 17L22 14.5258Z" fill="#3B3751"/>
</svg>
