<svg width="24" height="24" viewBox="0 0 24 24" fill="none" xmlns="http://www.w3.org/2000/svg">
<path d="M7 12.001C8.10457 12.001 9 11.1056 9 10.001C9 8.89644 8.10457 8.00101 7 8.00101C5.89543 8.00101 5 8.89644 5 10.001C5 11.1056 5.89543 12.001 7 12.001Z" fill="#3B3751"/>
<path d="M9 15.001L7 13.001L4 17.001H12V13.001L11 11.001L9 15.001Z" fill="#3B3751"/>
<path d="M16 6V12.002H18V4.586L13.414 0H2C0.897 0 0 0.898 0 2V20C0 21.103 0.897 22 2 22H12V20H2V2H12V6H16Z" fill="#3B3751"/>
<path d="M19 14.585L14.293 19.292L15.707 20.706L18 18.413V24H20V18.413L22.293 20.706L23.707 19.292L19 14.585Z" fill="#3B3751"/>
</svg>
