<svg width="24" height="24" viewBox="0 0 24 24" fill="none" xmlns="http://www.w3.org/2000/svg">
<path d="M16 14C16 14.7911 15.7654 15.5645 15.3259 16.2223C14.8864 16.8801 14.2616 17.3928 13.5307 17.6955C12.7998 17.9983 11.9956 18.0775 11.2196 17.9231C10.4437 17.7688 9.73098 17.3878 9.17157 16.8284C8.61216 16.269 8.2312 15.5563 8.07686 14.7804C7.92252 14.0044 8.00173 13.2002 8.30448 12.4693C8.60723 11.7384 9.11992 11.1136 9.77772 10.6741C10.4355 10.2346 11.2089 10 12 10V14H16Z" fill="#3B3751"/>
<path d="M14.5307 9.30448C14.0454 9.10346 13.5253 9 13 9V13L17 13C17 12.4747 16.8965 11.9546 16.6955 11.4693C16.4945 10.984 16.1999 10.543 15.8284 10.1716C15.457 9.80014 15.016 9.5055 14.5307 9.30448Z" fill="#3B3751"/>
<path fill-rule="evenodd" clip-rule="evenodd" d="M16.414 1.00098H5C3.897 1.00098 3 1.89798 3 3.00098V21.001C3 22.104 3.897 23.001 5 23.001H19C20.103 23.001 21 22.104 21 21.001V5.58698L16.414 1.00098ZM5 21.001V3.00098H15V7.00098H19L19.001 21.001H5Z" fill="#3B3751"/>
</svg>
