<svg width="24" height="24" viewBox="0 0 24 24" fill="none" xmlns="http://www.w3.org/2000/svg">
<path d="M5 3.00303H15V7.00303H19V8.00303H21V5.59003L16.414 1.00403H5C3.897 1.00403 3 1.90003 3 3.00403V8.00403H5V3.00303Z" fill="#3B3751"/>
<path d="M19 21.003H5V20.003H3V21.003C3 22.106 3.897 23.003 5 23.003H19C20.103 23.003 21 22.106 21 21.003V20.003H19V21.003Z" fill="#3B3751"/>
<path d="M19 16.003V10.003H17V18.003H22V16.003H19Z" fill="#3B3751"/>
<path d="M16 18.003V11.003C16 10.563 15.711 10.174 15.29 10.046C14.87 9.91702 14.413 10.081 14.168 10.448L13 12.201L11.832 10.449C11.587 10.082 11.13 9.91802 10.71 10.047C10.289 10.174 10 10.563 10 11.003V18.003H12V14.306L12.168 14.557C12.539 15.114 13.461 15.114 13.832 14.557L14 14.307V18.004L16 18.003Z" fill="#3B3751"/>
<path d="M4.333 18.003L5.566 15.948L6.8 18.003H9.133L6.732 14.003L9.133 10.003H6.8L5.566 12.059L4.333 10.003H2L4.4 14.003L2 18.003H4.333Z" fill="#3B3751"/>
</svg>
