<svg width="24" height="24" viewBox="0 0 24 24" fill="none" xmlns="http://www.w3.org/2000/svg">
<path d="M5 3H15V7H19V8H21V5.586L16.414 1H5C3.897 1 3 1.898 3 3V8H5V3Z" fill="#3B3751"/>
<path d="M19 21H5V20H3V21C3 22.103 3.897 23 5 23H19C20.103 23 21 22.103 21 21V20H19V21Z" fill="#3B3751"/>
<path fill-rule="evenodd" clip-rule="evenodd" d="M5 16H4V18H2V10H5C6.654 10 8 11.346 8 13C8 14.654 6.654 16 5 16ZM5 12H4V14H5C5.25748 13.9885 5.50059 13.8781 5.67872 13.6918C5.85685 13.5055 5.95627 13.2577 5.95627 13C5.95627 12.7423 5.85685 12.4945 5.67872 12.3082C5.50059 12.1219 5.25748 12.0115 5 12Z" fill="#3B3751"/>
<path fill-rule="evenodd" clip-rule="evenodd" d="M11 15C9.897 15 9 14.102 9 13V12C9 10.897 9.898 10 11 10H13C14.103 10 15 10.898 15 12V13H13.0001L13 12.6667C13 12.2985 12.7015 12 12.3333 12H11.5C11.2239 12 11 12.2239 11 12.5C11 12.7761 11.2239 13 11.5 13H13.0001C14.1031 13 15 13.898 15 15V16C15 17.103 14.102 18 13 18H11C9.897 18 9 17.102 9 16V15H11ZM12.5 15H11V15.3333C11 15.7015 11.2985 16 11.6667 16H12.5C12.7761 16 13 15.7761 13 15.5C13 15.2239 12.7761 15 12.5 15Z" fill="#3B3751"/>
<path fill-rule="evenodd" clip-rule="evenodd" d="M16 18V10H18C20.206 10 22 11.794 22 14C22 16.206 20.206 18 18 18H16ZM18 16C19.103 16 20 15.103 20 14C20 12.898 19.103 12 18 12V16Z" fill="#3B3751"/>
</svg>
