<svg width="24" height="24" viewBox="0 0 24 24" fill="none" xmlns="http://www.w3.org/2000/svg">
<path d="M15 3.00303H5V8.00403H3V3.00403C3 1.90003 3.897 1.00403 5 1.00403H16.414L21 5.59003V8.00303H19V7.00303H15V3.00303Z" fill="#3B3751"/>
<path d="M5 21.003H19V20.003H21V21.003C21 22.106 20.103 23.003 19 23.003H5C3.897 23.003 3 22.106 3 21.003V20.003H5V21.003Z" fill="#3B3751"/>
<path d="M22 10V12H18V13H21V15H18V18H16V12C16 10.898 16.897 10 18 10H22Z" fill="#3B3751"/>
<path d="M11 12H9V10H15V12H13V18H11V12Z" fill="#3B3751"/>
<path fill-rule="evenodd" clip-rule="evenodd" d="M5 16H4V18H2V10H5C6.654 10 8 11.346 8 13C8 13.8738 7.62435 14.6616 7.0261 15.2104L8.49999 18H6.49347L5.47881 15.9618C5.32286 15.9869 5.16292 16 5 16ZM5 12H4V14H5C5.25748 13.9885 5.50059 13.8781 5.67872 13.6918C5.85685 13.5055 5.95627 13.2577 5.95627 13C5.95627 12.7423 5.85685 12.4945 5.67872 12.3082C5.50059 12.1219 5.25748 12.0115 5 12Z" fill="#3B3751"/>
</svg>
