<svg width="24" height="24" viewBox="0 0 24 24" fill="none" xmlns="http://www.w3.org/2000/svg">
<path d="M20.011 16.9972C20.011 16.2924 19.8956 15.6368 19.6648 15.0139C19.2857 13.9485 18.6264 13.0306 17.7528 12.3422C17.6703 12.2767 17.5879 12.2111 17.489 12.1455C17.489 12.1455 17.489 12.1455 17.4725 12.1455C17.4231 12.1128 17.3901 12.08 17.3407 12.0636C17.2912 12.0308 17.2582 11.998 17.2088 11.9816C17.2088 11.9816 17.1923 11.9816 17.1923 11.9653C17.1593 11.9325 17.1099 11.9161 17.0769 11.8833C17.0769 11.8833 17.0604 11.8833 17.0604 11.8669C17.011 11.8341 16.978 11.8177 16.9286 11.785C16.9286 11.785 16.9121 11.785 16.9121 11.7686C16.8791 11.7522 16.8297 11.7194 16.7967 11.703C16.7802 11.703 16.7802 11.6866 16.7637 11.6866C16.7143 11.6702 16.6813 11.6374 16.6319 11.621C16.6319 11.621 16.6154 11.621 16.6154 11.6047C16.5824 11.5883 16.533 11.5719 16.5 11.5555C16.4835 11.5555 16.4835 11.5391 16.467 11.5391C16.4176 11.5227 16.3681 11.5063 16.3352 11.4735H16.3187C16.2692 11.4571 16.2363 11.4407 16.1868 11.4244C16.1703 11.4244 16.1703 11.408 16.1539 11.408C16.1044 11.3916 16.0549 11.3752 16.0055 11.3588C13.6648 12.1783 12 14.3911 12 16.9972C12 17.702 12.1154 18.3576 12.3462 18.9805C13.1703 16.653 15.3956 14.9975 18.0165 14.9975C19.1044 15.0139 20.011 15.899 20.011 16.9972Z" fill="#3B3751"/>
<path d="M16.0055 17.0956C16.0055 17.0628 16.0055 17.03 16.0055 16.9972C16.0055 15.899 16.8957 15.0139 18 15.0139C17.9176 15.0139 17.8352 15.0139 17.7528 15.0139C17.6044 15.0139 17.4396 15.0303 17.2912 15.0467C17.1429 15.0631 16.9946 15.0795 16.8462 15.1123H16.8297C16.6814 15.1451 16.5495 15.1779 16.4176 15.2106C16.4011 15.2106 16.4011 15.2106 16.3847 15.2106C16.2528 15.2434 16.1209 15.2926 15.9891 15.3418C15.9726 15.3418 15.9561 15.3582 15.9561 15.3582C15.8242 15.4073 15.7088 15.4565 15.577 15.5057C15.5605 15.5057 15.544 15.5221 15.5275 15.5221C15.4121 15.5712 15.2803 15.6368 15.1649 15.7024C15.1484 15.7024 15.1319 15.7187 15.1154 15.7187C15 15.7843 14.8847 15.8499 14.7858 15.9154C14.7693 15.9318 14.7528 15.9318 14.7363 15.9482C14.6209 16.0138 14.522 16.0957 14.4231 16.1613C14.4066 16.1777 14.3902 16.1777 14.3737 16.1941C14.2748 16.276 14.1759 16.358 14.077 16.4399C14.0605 16.4563 14.044 16.4563 14.0275 16.4727C13.9286 16.5547 13.8297 16.6366 13.7473 16.735C13.7308 16.7514 13.7143 16.7678 13.7143 16.7678C13.6154 16.8661 13.533 16.9481 13.4506 17.0464C13.4341 17.0628 13.4341 17.0792 13.4176 17.0792C13.3352 17.1775 13.2528 17.2759 13.1704 17.3906C13.1539 17.407 13.1539 17.4234 13.1374 17.4234C13.055 17.5217 12.9891 17.6365 12.9066 17.7512C12.9066 17.7676 12.8902 17.7676 12.8902 17.784C12.8242 17.8987 12.7418 18.0134 12.6924 18.1282C12.6924 18.1446 12.6759 18.1446 12.6759 18.161C12.6099 18.2757 12.544 18.4068 12.4945 18.538V18.5543C12.4286 18.6855 12.3792 18.8166 12.3297 18.9641C13.1539 21.2916 15.3792 22.9471 18 22.9471C18.7088 22.9471 19.7473 22.9471 20.5055 22.9471C18.1978 22.1603 16.055 19.6689 16.0055 17.0956Z" fill="#3B3751"/>
<path d="M20.011 16.9972C20.011 18.079 19.1374 18.9641 18.0495 18.9805C18.0495 18.9805 18.0495 18.9805 18 18.9805H19.7473C21.0165 18.9805 22.1374 19.5705 22.8791 20.472C23.5879 19.4886 24 18.2921 24 16.9808C24 16.9316 24 16.8825 24 16.8333C24 16.8169 24 16.8005 24 16.7841C24 16.7513 24 16.7186 24 16.6858C24 16.6694 24 16.653 24 16.6202C24 16.5874 24 16.571 24 16.5383C24 16.5219 24 16.4891 24 16.4727C24 16.4399 24 16.4235 24 16.3907C24 16.3744 24 16.3416 24 16.3252C24 16.3088 24 16.276 24 16.2596C24 16.2432 24 16.2104 23.9835 16.1941C23.9671 16.1285 23.9671 16.0465 23.9506 15.981C23.9506 15.9646 23.9506 15.9482 23.9506 15.9482C23.9506 15.9154 23.9341 15.8826 23.9341 15.8498C23.9341 15.8335 23.9341 15.8171 23.9341 15.8171C23.9341 15.7843 23.9176 15.7515 23.9176 15.7187C23.9176 15.7023 23.9176 15.7023 23.9176 15.6859C23.9176 15.6532 23.9011 15.6204 23.9011 15.5876V15.5712C23.2583 12.9487 20.8846 10.9982 18.0659 10.9982C17.3572 10.9982 16.6978 11.1129 16.0714 11.3424C18.3297 12.1783 20.011 14.3911 20.011 16.9972Z" fill="#3B3751"/>
<path d="M19.7637 18.9969H18.0164C16.945 18.9969 16.0714 18.1609 16.0219 17.1119C16.0714 19.4066 17.7856 21.6358 19.7966 22.6684C19.8461 22.6848 19.8955 22.7175 19.945 22.7339C19.9615 22.7503 19.978 22.7503 20.0109 22.7667C20.0604 22.7831 20.0933 22.7995 20.1428 22.8323C20.1758 22.8487 20.2087 22.8651 20.2417 22.8651C20.2747 22.8815 20.3076 22.8978 20.3406 22.9142C20.4065 22.947 20.4725 22.9634 20.5384 22.9962H23.7857C23.7527 20.7671 21.9725 18.9969 19.7637 18.9969Z" fill="#3B3751"/>
<path d="M12 9.00253H4V11.0022H12V9.00253Z" fill="#3B3751"/>
<path d="M10 13.0019H4V15.0015H10V13.0019Z" fill="#3B3751"/>
<path d="M16 6.00303V9.00253H18V4.58926L13.414 0.00402832H2C0.897 0.00402832 0 0.901879 0 2.0037V20.0007C0 21.1035 0.897 22.0004 2 22.0004H12V20.0007H2V2.0037H12V6.00303H16Z" fill="#3B3751"/>
</svg>
