<svg width="24" height="24" viewBox="0 0 24 24" fill="none" xmlns="http://www.w3.org/2000/svg">
<path d="M12 9.00098H6V11.001H12V9.00098Z" fill="#3B3751"/>
<path d="M9 13.001H6V15.001H9V13.001Z" fill="#3B3751"/>
<path d="M16 7.00098V9.00098H18V6.58698L13.414 2.00098H4C2.897 2.00098 2 2.89898 2 4.00098V20.001C2 21.104 2.897 22.001 4 22.001H11V20.001H4V4.00098H13V7.00098H16Z" fill="#3B3751"/>
<path fill-rule="evenodd" clip-rule="evenodd" d="M14 13.0854C13.5738 13.236 13.236 13.5738 13.0854 14H11V16H13V17H11V19H13.0854C13.236 19.4262 13.5738 19.764 14 19.9146V22H16V20H17V22H19V19.9146C19.4262 19.764 19.764 19.4262 19.9146 19H22V17H20V16H22V14H19.9146C19.764 13.5738 19.4262 13.236 19 13.0854V11H17V13H16V11H14V13.0854ZM15 18V15H18V18H15Z" fill="#3B3751"/>
</svg>
