<svg width="24" height="24" viewBox="0 0 24 24" fill="none" xmlns="http://www.w3.org/2000/svg">
<path d="M5 3H15V7H19V8H21V5.586L16.414 1H5C3.897 1 3 1.898 3 3V8H5V3Z" fill="#3B3751"/>
<path d="M19 21H5V20H3V21C3 22.103 3.897 23 5 23H19C20.103 23 21 22.103 21 21V20H19V21Z" fill="#3B3751"/>
<path fill-rule="evenodd" clip-rule="evenodd" d="M5 16H4V18H2V10H5C6.654 10 8 11.346 8 13C8 14.654 6.654 16 5 16ZM5 12H4V14H5C5.25748 13.9885 5.50059 13.8781 5.67872 13.6918C5.85685 13.5055 5.95627 13.2577 5.95627 13C5.95627 12.7423 5.85685 12.4945 5.67872 12.3082C5.50059 12.1219 5.25748 12.0115 5 12Z" fill="#3B3751"/>
<path fill-rule="evenodd" clip-rule="evenodd" d="M12 16H11V18H9V10H12C13.654 10 15 11.346 15 13C15 14.654 13.654 16 12 16ZM12 12H11V14H12C12.2575 13.9885 12.5006 13.8781 12.6787 13.6918C12.8569 13.5055 12.9563 13.2577 12.9563 13C12.9563 12.7423 12.8569 12.4945 12.6787 12.3082C12.5006 12.1219 12.2575 12.0115 12 12Z" fill="#3B3751"/>
<path d="M18 12H16V10H22V12H20V18H18V12Z" fill="#3B3751"/>
</svg>
