<svg width="24" height="24" viewBox="0 0 24 24" fill="none" xmlns="http://www.w3.org/2000/svg">
<path d="M6 3H16V7H20V8H22V5.586L17.414 1H6C4.897 1 4 1.898 4 3V8H6V3Z" fill="#3B3751"/>
<path d="M20 21H6V20H4V21C4 22.103 4.897 23 6 23H20C21.103 23 22 22.103 22 21V20H20V21Z" fill="#3B3751"/>
<path fill-rule="evenodd" clip-rule="evenodd" d="M10 18V10H12C14.206 10 16 11.794 16 14C16 16.206 14.206 18 12 18H10ZM12 16C13.103 16 14 15.103 14 14C14 12.898 13.103 12 12 12V16Z" fill="#3B3751"/>
<path d="M23 12V10H19C17.897 10 17 10.898 17 12V18H19V15H22V13H19V12H23Z" fill="#3B3751"/>
<path fill-rule="evenodd" clip-rule="evenodd" d="M6 16H5V18H3V10H6C7.654 10 9 11.346 9 13C9 14.654 7.654 16 6 16ZM6 12H5V14H6C6.25748 13.9885 6.50059 13.8781 6.67872 13.6918C6.85685 13.5055 6.95627 13.2577 6.95627 13C6.95627 12.7423 6.85685 12.4945 6.67872 12.3082C6.50059 12.1219 6.25748 12.0115 6 12Z" fill="#3B3751"/>
</svg>
