<svg width="24" height="24" viewBox="0 0 24 24" fill="none" xmlns="http://www.w3.org/2000/svg">
<path d="M12 9H4V11H12V9Z" fill="#3B3751"/>
<path d="M10 13H4V15H10V13Z" fill="#3B3751"/>
<path d="M16 6V9H18V4.586L13.414 0H2C0.897 0 0 0.898 0 2V20C0 21.103 0.897 22 2 22H12V20H2V2H12V6H16Z" fill="#3B3751"/>
<path d="M23 15C23 12.794 21.205 11 19 11C16.795 11 15 12.794 15 15C14.447 15 14 15.448 14 16V23C14 23.552 14.447 24 15 24H23C23.553 24 24 23.552 24 23V16C24 15.448 23.553 15 23 15ZM19 13C20.104 13 21 13.897 21 15H17C17 13.897 17.896 13 19 13ZM22 22H16V17H22V22Z" fill="#3B3751"/>
<path d="M19 20C19.5523 20 20 19.5523 20 19C20 18.4477 19.5523 18 19 18C18.4477 18 18 18.4477 18 19C18 19.5523 18.4477 20 19 20Z" fill="#3B3751"/>
</svg>
