<svg width="24" height="24" viewBox="0 0 24 24" fill="none" xmlns="http://www.w3.org/2000/svg">
<path d="M16.4141 1H5.00006C3.89706 1 3.00006 1.898 3.00006 3V8H5.00006V3H15.0001V7H19.0001V8H21.0001V5.586L16.4141 1Z" fill="#3B3751"/>
<path d="M19.0001 21H5.00006V20H3.00006V21C3.00006 22.103 3.89706 23 5.00006 23H19.0001C20.1031 23 21.0001 22.103 21.0001 21V20H19.0001V21Z" fill="#3B3751"/>
<path d="M10.0001 16V18H14.0001V16H13.0001V12H14.0001V10H10.0001V12H11.0001V16H10.0001Z" fill="#3B3751"/>
<path d="M18.0001 10H15.0001V18H17.0001V16H18.0001C19.6541 16 21.0001 14.654 21.0001 13C21.0001 11.346 19.6541 10 18.0001 10ZM18.0001 14H17.0001V12H18.0001C18.5511 12 19.0001 12.448 19.0001 13C19.0001 13.552 18.5511 14 18.0001 14Z" fill="#3B3751"/>
<path d="M3.16806 16.445C2.96306 16.752 2.94406 17.146 3.11806 17.471C3.29206 17.797 3.63106 18 4.00006 18H9.00006V16H5.86906L8.83206 11.555C9.03706 11.248 9.05606 10.854 8.88206 10.529C8.70806 10.203 8.36906 10 8.00006 10H3.00006V12H6.13106L3.16806 16.445Z" fill="#3B3751"/>
</svg>
