<svg width="24" height="24" viewBox="0 0 24 24" fill="none" xmlns="http://www.w3.org/2000/svg">
<path d="M5.133 3H15.133V7H19.133V8H21.133V5.586L16.547 1H5.133C4.03 1 3.133 1.898 3.133 3V8H5.133V3Z" fill="#3B3751"/>
<path d="M19.133 21H5.133V20H3.133V21C3.133 22.103 4.03 23 5.133 23H19.133C20.236 23 21.133 22.103 21.133 21V20H19.133V21Z" fill="#3B3751"/>
<path d="M10.133 10V18H15.133V16H12.133V10H10.133Z" fill="#3B3751"/>
<path d="M16 10V18H18V15.5H21V13.5H18V12H22V10H16Z" fill="#3B3751"/>
<path d="M4.333 18L5.566 15.944L6.8 18H9.133L6.732 14L9.133 10H6.8L5.566 12.056L4.333 10H2L4.4 14L2 18H4.333Z" fill="#3B3751"/>
</svg>
