<svg width="24" height="24" viewBox="0 0 24 24" fill="none" xmlns="http://www.w3.org/2000/svg">
<path d="M16.414 1.00098H5C3.897 1.00098 3 1.89798 3 3.00098V21.001C3 22.104 3.897 23.001 5 23.001H19C20.103 23.001 21 22.104 21 21.001V5.58698L16.414 1.00098ZM5 21.001V3.00098H15V7.00098H19L19.001 21.001H5Z" fill="#3B3751"/>
<path d="M14 11.997V10.997C14 10.444 13.552 9.99701 13 9.99701H8C7.448 9.99701 7 10.444 7 10.997V16.997C7 17.55 7.448 17.997 8 17.997H13C13.552 17.997 14 17.55 14 16.997V15.997L17 16.997V10.997L14 11.997Z" fill="#3B3751"/>
</svg>
