<svg width="24" height="24" viewBox="0 0 24 24" fill="none" xmlns="http://www.w3.org/2000/svg">
<path d="M5.13306 3H15.1331V7H19.1331V20H21.1331V5.586L16.5471 1H5.13306C4.03006 1 3.13306 1.898 3.13306 3V20H5.13306V3Z" fill="#3B3751"/>
<path d="M19.1331 21H5.13306V20H3.13306V21C3.13306 22.103 4.03006 23 5.13306 23H19.1331C20.2361 23 21.1331 22.103 21.1331 21V20H19.1331V21Z" fill="#3B3751"/>
<path d="M9.16706 18H11.5001L9.09906 14L11.5001 10H9.16706L6.76705 14L9.16706 18Z" fill="#3B3751"/>
<path d="M15.1 18H12.767L15.168 14L12.767 10H15.1L17.5001 14L15.1 18Z" fill="#3B3751"/>
</svg>
