<svg width="24" height="24" viewBox="0 0 24 24" fill="none" xmlns="http://www.w3.org/2000/svg">
<path d="M15 3H5V8H3V3C3 1.898 3.897 1 5 1H16.414L21 5.586V8H19V7H15V3Z" fill="#3B3751"/>
<path d="M5 21H19V20H21V21C21 22.103 20.103 23 19 23H5C3.897 23 3 22.103 3 21V20H5V21Z" fill="#3B3751"/>
<path d="M5 10C3.34315 10 2 11.3431 2 13V15C2 16.6569 3.34315 18 5 18C6.65685 18 8 16.6569 8 15H6C6 15.5523 5.55228 16 5 16C4.44772 16 4 15.5523 4 15V13C4 12.4477 4.44772 12 5 12C5.55228 12 6 12.4477 6 13H8C8 11.3431 6.65685 10 5 10Z" fill="#3B3751"/>
<path d="M19 18L16 10H18.5L20 15L21.5 10H24L21 18H19Z" fill="#3B3751"/>
<path fill-rule="evenodd" clip-rule="evenodd" d="M11 15C9.897 15 9 14.102 9 13V12C9 10.897 9.898 10 11 10H13C14.103 10 15 10.898 15 12V13H13.0001L13 12.6667C13 12.2985 12.7015 12 12.3333 12H11.5C11.2239 12 11 12.2239 11 12.5C11 12.7761 11.2239 13 11.5 13H13.0001C14.1031 13 15 13.898 15 15V16C15 17.103 14.102 18 13 18H11C9.897 18 9 17.102 9 16V15H11ZM12.5 15H11V15.3333C11 15.7015 11.2985 16 11.6667 16H12.5C12.7761 16 13 15.7761 13 15.5C13 15.2239 12.7761 15 12.5 15Z" fill="#3B3751"/>
</svg>
