<svg width="24" height="24" viewBox="0 0 24 24" fill="none" xmlns="http://www.w3.org/2000/svg">
<path d="M5 3.00303H15V7.00303H19V8.00303H21V5.59003L16.414 1.00403H5C3.897 1.00403 3 1.90003 3 3.00403V8.00403H5V3.00303Z" fill="#3B3751"/>
<path d="M19 21.003H5V20.003H3V21.003C3 22.106 3.897 23.003 5 23.003H19C20.103 23.003 21 22.106 21 21.003V20.003H19V21.003Z" fill="#3B3751"/>
<path d="M4 18.003H6V12.003H8V18.003H10V12.003H12V18.003H14V14.306L14.168 14.557C14.539 15.114 15.461 15.114 15.832 14.557L16 14.307V18.004H18V11.004C18 10.564 17.711 10.175 17.29 10.047C16.869 9.91902 16.414 10.082 16.168 10.449L15 12.201L13.832 10.449C13.587 10.082 13.131 9.91802 12.71 10.047C12.289 10.174 12 10.563 12 11.003V10.003H4V13.003H2V10.003H0V18.003H2V15.003H4V18.003Z" fill="#3B3751"/>
<path d="M21 16.003V10.003H19V18.003H24V16.003H21Z" fill="#3B3751"/>
</svg>
