<svg width="24" height="24" viewBox="0 0 24 24" fill="none" xmlns="http://www.w3.org/2000/svg">
<path d="M5 21.0031H19V20.0031H21V21.0031C21 22.106 20.103 23.0031 19 23.0031H5C3.89701 23.0031 3.00002 22.106 3 21.0031V20.0031H5V21.0031ZM7 12.0001H5V18.0001H3V12.0001H1V10.0001H7V12.0001ZM11.5664 12.0558L12.7998 10.0001H15.1328L12.7324 14.0001L15.1328 18.0001H12.7998L11.5664 15.9445L10.333 18.0001H8L10.4004 14.0001L8 10.0001H10.333L11.5664 12.0558ZM22 12.0001H20V18.0001H18V12.0001H16V10.0001H22V12.0001ZM21 5.58997V8.00305H19V7.00305H15V3.00305H5V8.00403H3V3.00403C3 1.90003 3.897 1.00403 5 1.00403H16.4141L21 5.58997Z" fill="#3B3751"/>
</svg>
