<svg width="24" height="24" viewBox="0 0 24 24" fill="none" xmlns="http://www.w3.org/2000/svg">
<path d="M15 3H5V8H3V3C3 1.898 3.897 1 5 1H16.414L21 5.586V8H19V7H15V3Z" fill="#3B3751"/>
<path d="M19 21V20H21V21C21 22.103 20.103 23 19 23H5C3.897 23 3 22.103 3 21V20H5V21H19Z" fill="#3B3751"/>
<path fill-rule="evenodd" clip-rule="evenodd" d="M2 18V10H4C6.206 10 8 11.794 8 14C8 16.206 6.206 18 4 18H2ZM4 16C5.103 16 6 15.103 6 14C6 12.898 5.103 12 4 12V16Z" fill="#3B3751"/>
<path fill-rule="evenodd" clip-rule="evenodd" d="M9 13C9 11.3431 10.3431 10 12 10C13.6569 10 15 11.3431 15 13V15C15 16.6569 13.6569 18 12 18C10.3431 18 9 16.6569 9 15V13ZM12 12C11.4477 12 11 12.4477 11 13V15C11 15.5523 11.4477 16 12 16C12.5523 16 13 15.5523 13 15V13C13 12.4477 12.5523 12 12 12Z" fill="#3B3751"/>
<path d="M16 13C16 11.3431 17.3431 10 19 10C20.6569 10 22 11.3431 22 13H20C20 12.4477 19.5523 12 19 12C18.4477 12 18 12.4477 18 13V15C18 15.5523 18.4477 16 19 16C19.5523 16 20 15.5523 20 15H22C22 16.6569 20.6569 18 19 18C17.3431 18 16 16.6569 16 15V13Z" fill="#3B3751"/>
</svg>
