<svg width="24" height="24" viewBox="0 0 24 24" fill="none" xmlns="http://www.w3.org/2000/svg">
<path d="M5 3H15V7H19V8H21V5.586L16.414 1H5C3.897 1 3 1.898 3 3V8H5V3Z" fill="#3B3751"/>
<path d="M19 21H5V20H3V21C3 22.103 3.897 23 5 23H19C20.103 23 21 22.103 21 21V20H19V21Z" fill="#3B3751"/>
<path d="M10.133 10V18H15.133V16H12.133V10H10.133Z" fill="#3B3751"/>
<path d="M4.333 18L5.566 15.944L6.8 18H9.133L6.732 14L9.133 10H6.8L5.566 12.056L4.333 10H2L4.4 14L2 18H4.333Z" fill="#3B3751"/>
<path fill-rule="evenodd" clip-rule="evenodd" d="M18 15C16.897 15 16 14.102 16 13V12C16 10.897 16.898 10 18 10H20C21.103 10 22 10.898 22 12V13H20.0001L20 12.6667C20 12.2985 19.7015 12 19.3333 12H18.5C18.2239 12 18 12.2239 18 12.5C18 12.7761 18.2239 13 18.5 13H20.0001C21.1031 13 22 13.898 22 15V16C22 17.103 21.102 18 20 18H18C16.897 18 16 17.102 16 16V15H18ZM19.5 15H18V15.3333C18 15.7015 18.2985 16 18.6667 16H19.5C19.7761 16 20 15.7761 20 15.5C20 15.2239 19.7761 15 19.5 15Z" fill="#3B3751"/>
</svg>
