<svg width="24" height="24" viewBox="0 0 24 24" fill="none" xmlns="http://www.w3.org/2000/svg">
<path d="M16.414 1.00098H5C3.897 1.00098 3 1.89798 3 3.00098V21.001C3 22.104 3.897 23.001 5 23.001H19C20.103 23.001 21 22.104 21 21.001V5.58698L16.414 1.00098ZM5 21.001V3.00098H15V7.00098H19L19.001 21.001H5Z" fill="#3B3751"/>
<path d="M12 16.002L10 14.002L7 18.002H17L14 12.002L12 16.002Z" fill="#3B3751"/>
<path d="M10 13.002C11.1046 13.002 12 12.1065 12 11.002C12 9.89741 11.1046 9.00198 10 9.00198C8.89543 9.00198 8 9.89741 8 11.002C8 12.1065 8.89543 13.002 10 13.002Z" fill="#3B3751"/>
</svg>
