<svg width="24" height="24" viewBox="0 0 24 24" fill="none" xmlns="http://www.w3.org/2000/svg">
<path d="M5 3H15V7H19V8H21V5.586L16.414 1H5C3.897 1 3 1.898 3 3V8H5V3Z" fill="#3B3751"/>
<path d="M19 21H5V20H3V21C3 22.103 3.897 23 5 23H19C20.103 23 21 22.103 21 21V20H19V21Z" fill="#3B3751"/>
<path fill-rule="evenodd" clip-rule="evenodd" d="M18 18H20C22.206 18 24 16.206 24 14C24 11.794 22.206 10 20 10H18V18ZM22 14C22 15.103 21.103 16 20 16V12C21.103 12 22 12.898 22 14Z" fill="#3B3751"/>
<path fill-rule="evenodd" clip-rule="evenodd" d="M11 18V10H13C15.206 10 17 11.794 17 14C17 16.206 15.206 18 13 18H11ZM13 16C14.103 16 15 15.103 15 14C15 12.898 14.103 12 13 12V16Z" fill="#3B3751"/>
<path d="M0 10H2V18H0V10Z" fill="#3B3751"/>
<path d="M10 16.7904V10H8V14.3519L5.16678 10.4987C4.4802 9.565 3 10.0506 3 11.2096V18H5V13.6481L7.83322 17.5013C8.51979 18.435 10 17.9494 10 16.7904Z" fill="#3B3751"/>
</svg>
