<svg width="24" height="24" viewBox="0 0 24 24" fill="none" xmlns="http://www.w3.org/2000/svg">
<path d="M20.8231 3.17403C20.0631 2.41303 19.0511 1.99503 17.9761 1.99503C16.9021 1.99503 15.8901 2.41303 15.1301 3.17403L3.72112 14.582C3.72112 14.582 3.72012 14.585 3.71812 14.586C3.63712 14.668 3.49912 14.884 3.45712 15.047L2.03212 20.751C1.94612 21.091 2.04712 21.453 2.29512 21.7L2.29612 21.701L2.29712 21.702C2.54512 21.95 2.90512 22.051 3.24612 21.966L8.95012 20.539C9.11312 20.497 9.33012 20.359 9.41112 20.278C9.41212 20.277 9.41512 20.275 9.41512 20.275L20.8241 8.86803C21.5841 8.10703 22.0031 7.09703 22.0021 6.02103C22.0021 4.94603 21.5841 3.93503 20.8241 3.17403H20.8231ZM14.4131 6.72303L17.2761 9.58603L8.70812 18.154L5.84512 15.291L14.4131 6.72303ZM4.37712 19.621L4.97212 17.247L6.75212 19.028L4.37712 19.621ZM19.4111 4.58903C20.1751 5.35403 20.1751 6.68803 19.4111 7.45303L18.6921 8.17303L15.8261 5.30803L16.5471 4.58903C17.3121 3.82503 18.6461 3.82403 19.4111 4.58903Z" fill="#3B3751"/>
</svg>
