<svg width="24" height="24" viewBox="0 0 24 24" fill="none" xmlns="http://www.w3.org/2000/svg">
<path d="M6 4H21C22.103 4 23 4.897 23 6V15C23 16.103 22.103 17 21 17V7C21 6.44772 20.5523 6 20 6L4 6C4 4.897 4.897 4 6 4Z" fill="#3B3751"/>
<path fill-rule="evenodd" clip-rule="evenodd" d="M3 7H18C19.103 7 20 7.897 20 9V18C20 19.103 19.103 20 18 20H3C1.897 20 1 19.103 1 18V9C1 7.897 1.897 7 3 7ZM11 12.82L16.113 9H4.887L11 12.82ZM3 10.179V18H18.001L18 10.178L11.53 14.848C11.371 14.9471 11.1874 14.9996 11 14.9996C10.8126 14.9996 10.629 14.9471 10.47 14.848L3 10.179Z" fill="#3B3751"/>
</svg>
