<svg width="24" height="24" viewBox="0 0 24 24" fill="none" xmlns="http://www.w3.org/2000/svg">
<path fill-rule="evenodd" clip-rule="evenodd" d="M2.95711 1.54289C2.56658 1.15237 1.93342 1.15237 1.54289 1.54289C1.15237 1.93342 1.15237 2.56658 1.54289 2.95711L4.81032 6.22453C3.59788 7.31434 2.59338 8.49583 1.84271 9.44101L1.83503 9.45093C0.721698 10.8895 0.721636 13.1091 1.83497 14.5476L1.84277 14.5574C2.79992 15.7626 4.17032 17.3542 5.85942 18.649C7.54501 19.9412 9.62914 21 11.9988 21C14.1299 21 16.0303 20.144 17.6178 19.032L21.0429 22.4571C21.4334 22.8476 22.0666 22.8476 22.4571 22.4571C22.8476 22.0666 22.8476 21.4334 22.4571 21.0429L2.95711 1.54289ZM16.1782 17.5924L14.032 15.4462C13.4365 15.7981 12.7418 16 12 16C9.79089 16 8.00003 14.2091 8.00003 12C8.00003 11.2582 8.20196 10.5636 8.55384 9.96805L6.22672 7.64093C5.10695 8.6348 4.15466 9.74629 3.41327 10.6794C2.86229 11.3963 2.86229 12.6022 3.41326 13.319C4.33562 14.48 5.58415 15.9179 7.07622 17.0618C8.57415 18.2101 10.2365 19 11.9988 19C13.4745 19 14.8803 18.4464 16.1782 17.5924ZM10.0678 11.482C10.0236 11.6472 10 11.8208 10 12C10 13.1046 10.8955 14 12 14C12.1792 14 12.3528 13.9764 12.518 13.9323L10.0678 11.482Z" fill="#3B3751"/>
<path d="M20.5869 13.3204C20.1799 13.8323 19.7095 14.398 19.1828 14.9686L20.5981 16.3839C21.1977 15.7386 21.7204 15.1088 22.1572 14.5592L22.165 14.5491C23.2784 13.1105 23.2784 10.8909 22.1651 9.4524L22.1569 9.44209C21.1986 8.23698 19.8267 6.64557 18.137 5.35084C16.4509 4.0589 14.3668 3 11.9988 3C10.6077 3 9.31457 3.36521 8.14261 3.92841L9.66358 5.44937C10.4175 5.1633 11.198 5 11.9988 5C13.7592 5 15.4216 5.78983 16.9205 6.93838C18.4134 8.08226 19.6634 9.52026 20.587 10.6812C21.1377 11.398 21.1377 12.6037 20.5869 13.3204Z" fill="#3B3751"/>
<path d="M12.2202 8.00595L15.9941 11.7799C15.8838 9.74599 14.254 8.11627 12.2202 8.00595Z" fill="#3B3751"/>
</svg>
