<svg width="24" height="24" viewBox="0 0 24 24" fill="none" xmlns="http://www.w3.org/2000/svg">
<path d="M2.08345 7.82019C2.02841 7.69403 1.99999 7.55785 1.99999 7.42019C2.58903 6.85994 3.51371 6.85994 4.10275 7.42019C5.83214 11.1302 8.8311 13.4202 12 13.4202C15.1689 13.4202 18.1678 11.1302 19.8972 7.42019C20.4863 6.85994 21.411 6.85994 22 7.42019C22 7.55785 21.9716 7.69403 21.9165 7.82019C21.6446 8.45182 21.3404 9.05116 21.0075 9.61546L23.0351 11.437C23.446 11.8061 23.4798 12.4383 23.1107 12.8492C22.7417 13.26 22.1094 13.2939 21.6985 12.9248L19.8652 11.2778C19.1239 12.2061 18.2926 12.9968 17.396 13.6308L18.7376 15.6916C19.039 16.1544 18.908 16.7739 18.4452 17.0752C17.9824 17.3766 17.3629 17.2456 17.0616 16.7828L15.6572 14.6256C14.8043 15.0064 13.9129 15.2563 13 15.3623V18C13 18.5523 12.5523 19 12 19C11.4477 19 11 18.5523 11 18V15.3623C10.0425 15.2511 9.1087 14.9817 8.21824 14.569L6.77693 16.7828C6.4756 17.2456 5.85612 17.3766 5.39328 17.0752C4.93045 16.7739 4.79952 16.1544 5.10084 15.6916L6.49388 13.5519C5.6123 12.9121 4.79551 12.1196 4.06768 11.193L2.13997 12.9248C1.72913 13.2939 1.09687 13.26 0.727783 12.8492C0.3587 12.4383 0.392556 11.8061 0.803404 11.437L2.93688 9.52038C2.62567 8.98397 2.34018 8.41647 2.08345 7.82019Z" fill="#3B3751"/>
</svg>
