<svg width="24" height="24" viewBox="0 0 24 24" fill="none" xmlns="http://www.w3.org/2000/svg">
<path fill-rule="evenodd" clip-rule="evenodd" d="M5.86149 5.34945C7.5473 4.05796 9.63106 3 11.9988 3C14.3668 3 16.4509 4.0589 18.137 5.35084C19.8267 6.64557 21.1986 8.23698 22.1569 9.44209L22.1651 9.4524C23.2784 10.8909 23.2784 13.1105 22.165 14.5491L22.1572 14.5592C21.1994 15.7644 19.8283 17.3555 18.1387 18.65C16.4527 19.9417 14.3683 21 11.9988 21C9.62914 21 7.54501 19.9412 5.85942 18.649C4.17032 17.3542 2.79992 15.7626 1.84277 14.5574L1.83497 14.5476C0.721636 13.1091 0.721698 10.8895 1.83503 9.45093L1.84271 9.44101C2.80071 8.23479 4.17209 6.6437 5.86149 5.34945ZM3.41327 10.6794C2.86229 11.3963 2.86229 12.6022 3.41326 13.319C4.33562 14.48 5.58415 15.9179 7.07622 17.0618C8.57415 18.2101 10.2365 19 11.9988 19C13.7613 19 15.424 18.2103 16.9224 17.0623C18.4149 15.9189 19.664 14.4813 20.5869 13.3204C21.1377 12.6037 21.1377 11.398 20.587 10.6812C19.6634 9.52026 18.4134 8.08226 16.9205 6.93838C15.4216 5.78983 13.7592 5 11.9988 5C10.2383 5 8.5761 5.78925 7.07779 6.9371C5.58541 8.08041 4.33599 9.51805 3.41327 10.6794Z" fill="#3B3751"/>
<path fill-rule="evenodd" clip-rule="evenodd" d="M8.00003 12C8.00003 9.79086 9.79089 8 12 8C14.2092 8 16 9.79086 16 12C16 14.2091 14.2092 16 12 16C9.79089 16 8.00003 14.2091 8.00003 12ZM12 10C10.8955 10 10 10.8954 10 12C10 13.1046 10.8955 14 12 14C13.1046 14 14 13.1046 14 12C14 10.8954 13.1046 10 12 10Z" fill="#3B3751"/>
</svg>
