<svg width="24" height="24" viewBox="0 0 24 24" fill="none" xmlns="http://www.w3.org/2000/svg">
<path d="M6 1.99799H16.0173C16.1955 1.99799 16.2847 2.21341 16.1587 2.33941L14.5587 3.93941C14.5212 3.97691 14.4703 3.99799 14.4173 3.99799H6V7.58399L8.27443 9.85842C8.3526 9.93659 8.35253 10.0633 8.27427 10.1414L7.14156 11.2716C7.06342 11.3495 6.9369 11.3494 6.85886 11.2714L4.293 8.70499C4.098 8.50999 4 8.25399 4 7.99799V3.99799C4 2.89599 4.896 1.99799 6 1.99799Z" fill="#3B3751"/>
<path d="M9.617 21.922C9.244 21.767 9 21.402 9 20.998V18V16.5828C9 16.5298 9.02107 16.4789 9.05858 16.4414L10.6586 14.8414C10.7846 14.7154 11 14.8047 11 14.9828V18V18.584L13 16.584V12.998C13 12.733 13.105 12.479 13.293 12.291L18 7.58399L19.6591 5.93812C19.7854 5.81291 20 5.90232 20 6.08011V7.99799C20 8.25499 19.902 8.50999 19.707 8.70499L15 13.412V16.998C15 17.264 14.895 17.518 14.707 17.705L10.707 21.705C10.516 21.896 10.26 21.998 10 21.998C9.871 21.998 9.741 21.974 9.617 21.922Z" fill="#3B3751"/>
<path d="M21 1L3 19" stroke="#3B3751" stroke-width="2" stroke-linecap="round"/>
</svg>
