<svg width="24" height="24" viewBox="0 0 24 24" fill="none" xmlns="http://www.w3.org/2000/svg">
<path d="M18 1.99799H6C4.896 1.99799 4 2.89599 4 3.99799V7.99799C4 8.25399 4.098 8.50999 4.293 8.70499L9 13.413V20.998C9 21.402 9.244 21.767 9.617 21.922C9.741 21.974 9.871 21.998 10 21.998C10.26 21.998 10.516 21.896 10.707 21.705L14.707 17.705C14.895 17.518 15 17.264 15 16.998V13.412L19.707 8.70499C19.902 8.50999 20 8.25499 20 7.99799V3.99799C20 2.89599 19.104 1.99799 18 1.99799ZM13.293 12.291C13.105 12.479 13 12.733 13 12.998V16.584L11 18.584V12.998C11 12.733 10.895 12.478 10.707 12.291L6 7.58399V3.99799H18V7.58399L13.293 12.291Z" fill="#3B3751"/>
</svg>
