<svg width="24" height="24" viewBox="0 0 24 24" fill="none" xmlns="http://www.w3.org/2000/svg">
<path fill-rule="evenodd" clip-rule="evenodd" d="M4 2.06982C2.89543 2.06982 2 2.96525 2 4.06982V18.5698C2 19.6744 2.89543 20.5698 4 20.5698H9.00174C9.55402 20.5698 10.0017 20.1221 10.0017 19.5698C10.0017 19.0175 9.55402 18.5698 9.00174 18.5698H4V8.06973H20V11.0883C20 11.6405 20.4477 12.0883 21 12.0883C21.5523 12.0883 22 11.6405 22 11.0883V4.06982C22 2.96525 21.1046 2.06982 20 2.06982H4ZM20 6.06973V4.06982H4V6.06973H20Z" fill="#3B3751"/>
<path d="M16.7071 13.3627C17.0976 13.7532 17.0976 14.3864 16.7071 14.7769L15.4143 16.0698C14.6332 16.8509 13.3668 16.8508 12.5857 16.0697L12.293 15.7769C11.9025 15.3863 11.9025 14.7532 12.2931 14.3627C12.6836 13.9722 13.3168 13.9722 13.7073 14.3628L14 14.6556L15.2929 13.3627C15.6834 12.9722 16.3166 12.9722 16.7071 13.3627Z" fill="#3B3751"/>
<path fill-rule="evenodd" clip-rule="evenodd" d="M14.5 9.06982C11.4624 9.06982 9 11.5323 9 14.5698C9 17.6074 11.4624 20.0698 14.5 20.0698C15.6224 20.0698 16.6664 19.7336 17.5365 19.1563C17.5772 19.3326 17.6663 19.5 17.8036 19.6373L19.8036 21.6373C20.1942 22.0279 20.8273 22.0279 21.2178 21.6373C21.6084 21.2468 21.6084 20.6136 21.2178 20.2231L19.2178 18.2231C19.1015 18.1068 18.9636 18.0251 18.817 17.9781C19.5578 17.041 20 15.8571 20 14.5698C20 11.5323 17.5376 9.06982 14.5 9.06982ZM11 14.5698C11 12.6368 12.567 11.0698 14.5 11.0698C16.433 11.0698 18 12.6368 18 14.5698C18 16.5028 16.433 18.0698 14.5 18.0698C12.567 18.0698 11 16.5028 11 14.5698Z" fill="#3B3751"/>
</svg>
