<svg width="24" height="24" viewBox="0 0 24 24" fill="none" xmlns="http://www.w3.org/2000/svg">
<path d="M5.7 4C4.76112 4 4 4.76112 4 5.7V6.99103C4 7.54331 3.55228 7.99103 3 7.99103C2.44772 7.99103 2 7.54331 2 6.99103V5.7C2 3.65655 3.65655 2 5.7 2H7C7.55229 2 8 2.44772 8 3C8 3.55228 7.55229 4 7 4H5.7Z" fill="#3B3751"/>
<path d="M20 5.7C20 4.76112 19.2389 4 18.3 4H17C16.4477 4 16 3.55228 16 3C16 2.44772 16.4477 2 17 2H18.3C20.3435 2 22 3.65655 22 5.7V6.99103C22 7.54331 21.5523 7.99103 21 7.99103C20.4477 7.99103 20 7.54331 20 6.99103V5.7Z" fill="#3B3751"/>
<path d="M5.7 19.991C4.76112 19.991 4 19.2299 4 18.291V17C4 16.4477 3.55228 16 3 16C2.44772 16 2 16.4477 2 17V18.291C2 20.3345 3.65655 21.991 5.7 21.991H7C7.55228 21.991 8 21.5433 8 20.991C8 20.4387 7.55228 19.991 7 19.991H5.7Z" fill="#3B3751"/>
<path d="M18.3 19.991C19.2389 19.991 20 19.2299 20 18.291V17C20 16.4477 20.4477 16 21 16C21.5523 16 22 16.4477 22 17V18.291C22 20.3345 20.3435 21.991 18.3 21.991H17C16.4477 21.991 16 21.5433 16 20.991C16 20.4387 16.4477 19.991 17 19.991H18.3Z" fill="#3B3751"/>
<path fill-rule="evenodd" clip-rule="evenodd" d="M19 8.99103H5C3.34315 8.99103 2 10.3342 2 11.991C2 13.6479 3.34315 14.991 5 14.991H19C20.6569 14.991 22 13.6479 22 11.991C22 10.3342 20.6569 8.99103 19 8.99103ZM4 11.991C4 11.4387 4.44772 10.991 5 10.991H11V12.991H5C4.44772 12.991 4 12.5433 4 11.991ZM20 11.991C20 11.4387 19.5523 10.991 19 10.991H13V12.991H19C19.5523 12.991 20 12.5433 20 11.991Z" fill="#3B3751"/>
</svg>
