<svg width="24" height="24" viewBox="0 0 24 24" fill="none" xmlns="http://www.w3.org/2000/svg">
<path d="M4 5.99701H2V18.997C2 20.1 2.897 20.997 4 20.997H19V18.997H4V5.99701Z" fill="#3B3751"/>
<path d="M20 5.99701H15L13.35 3.79701C12.975 3.29601 12.376 2.99701 11.75 2.99701H8C6.897 2.99701 6 3.89501 6 4.99701V14.997C6 16.1 6.897 16.997 8 16.997H20C21.103 16.997 22 16.1 22 14.997V7.99701C22 6.89501 21.103 5.99701 20 5.99701ZM8 14.997V4.99701H11.75L13.4 7.19701C13.775 7.69801 14.374 7.99701 15 7.99701H20L20.001 14.997H8Z" fill="#3B3751"/>
</svg>
