<svg width="24" height="24" viewBox="0 0 24 24" fill="none" xmlns="http://www.w3.org/2000/svg">
<path d="M11.9971 1.99704C6.48307 1.99704 1.99707 6.48304 1.99707 11.997C1.99707 17.511 6.48307 21.997 11.9971 21.997C17.5111 21.997 21.9971 17.511 21.9971 11.997C21.9971 6.48304 17.5111 1.99704 11.9971 1.99704ZM7.99707 5.08004C8.90107 4.55504 9.91507 4.20304 10.9971 4.06704V9.99704H13.9971V13.497L11.5071 15.364L9.71807 9.99704H7.99707V5.08004ZM11.9971 19.997C7.58607 19.997 3.99707 16.408 3.99707 11.997C3.99707 9.97604 4.75607 8.13304 5.99707 6.72304V11.997H8.27607L10.4871 18.63L15.9971 14.497V7.99704H12.9971V4.06604C16.9371 4.56104 19.9971 7.92504 19.9971 11.997C19.9971 16.408 16.4081 19.997 11.9971 19.997Z" fill="#3B3751"/>
</svg>
