<svg width="24" height="24" viewBox="0 0 24 24" fill="none" xmlns="http://www.w3.org/2000/svg">
<path d="M12 21.998C6.486 21.998 2 17.513 2 11.998C2 6.48499 6.486 1.99799 12 1.99799C17.514 1.99799 22 6.48399 22 11.998C22 17.513 17.514 21.998 12 21.998ZM12 3.99799C7.589 3.99799 4 7.58699 4 11.998C4 16.409 7.589 19.998 12 19.998C16.411 19.998 20 16.409 20 11.998C20 7.58699 16.411 3.99799 12 3.99799Z" fill="#3B3751"/>
<path d="M13 14.998H11V11.998H12C13.104 11.998 14 11.101 14 9.99799C14 8.89399 13.104 7.99799 12 7.99799C10.896 7.99799 10 8.89399 10 9.99799H8C8 7.79299 9.795 5.99799 12 5.99799C14.205 5.99799 16 7.79299 16 9.99799C16 11.858 14.723 13.426 13 13.873V14.998Z" fill="#3B3751"/>
<path d="M12 18.248C12.6904 18.248 13.25 17.6883 13.25 16.998C13.25 16.3076 12.6904 15.748 12 15.748C11.3096 15.748 10.75 16.3076 10.75 16.998C10.75 17.6883 11.3096 18.248 12 18.248Z" fill="#3B3751"/>
</svg>
