<svg width="24" height="24" viewBox="0 0 24 24" fill="none" xmlns="http://www.w3.org/2000/svg">
<path d="M13.0039 6.99298H11.0039V13.528L14.4499 15.825L15.5589 14.161L13.0039 12.458V6.99298Z" fill="#3B3751"/>
<path d="M4 1.99103L2 1.99103L2 8.99103L9 8.99103L9 6.99103L5.76015 6.99103C7.22765 5.16456 9.47776 3.99802 12 3.99802C16.4183 3.99802 20 7.57974 20 11.998C20 16.4163 16.4183 19.998 12 19.998C9.22725 19.998 6.78337 18.5883 5.34656 16.4418L4.7903 15.6107L3.12828 16.7233L3.68454 17.5543C5.47677 20.2317 8.53191 21.998 12 21.998C17.5228 21.998 22 17.5209 22 11.998C22 6.47517 17.5228 1.99802 12 1.99802C8.72771 1.99802 5.82304 3.57051 4 5.99716L4 1.99103Z" fill="#3B3751"/>
</svg>
