<svg width="24" height="24" viewBox="0 0 24 24" fill="none" xmlns="http://www.w3.org/2000/svg">
<path d="M21.707 12.293L12.707 3.29302C12.6142 3.20007 12.504 3.12633 12.3827 3.07602C12.2614 3.02571 12.1314 2.99982 12 2.99982C11.8687 2.99982 11.7387 3.02571 11.6173 3.07602C11.496 3.12633 11.3858 3.20007 11.293 3.29302L2.29303 12.293C2.15322 12.4329 2.05802 12.611 2.01945 12.805C1.98088 12.9989 2.00068 13.2 2.07635 13.3827C2.15202 13.5654 2.28016 13.7215 2.44457 13.8314C2.60898 13.9413 2.80228 14 3.00003 14H5.00003V22C5.00003 22.2652 5.10539 22.5196 5.29292 22.7071C5.48046 22.8947 5.73481 23 6.00003 23H18C18.2652 23 18.5196 22.8947 18.7071 22.7071C18.8947 22.5196 19 22.2652 19 22V14H21C21.1978 14 21.3911 13.9413 21.5555 13.8314C21.7199 13.7215 21.848 13.5654 21.9237 13.3827C21.9994 13.2 22.0192 12.9989 21.9806 12.805C21.942 12.611 21.8468 12.4329 21.707 12.293ZM18 12C17.7348 12 17.4805 12.1054 17.2929 12.2929C17.1054 12.4804 17 12.7348 17 13V21H7.00003V13C7.00003 12.7348 6.89467 12.4804 6.70714 12.2929C6.5196 12.1054 6.26525 12 6.00003 12H5.41403L12 5.41502L18.586 12H18Z" fill="#3B3751"/>
</svg>
