<svg width="24" height="24" viewBox="0 0 24 24" fill="none" xmlns="http://www.w3.org/2000/svg">
<path d="M6.44432 16.5C7.16931 16.5 7.94371 16.188 8.61007 15.8386C9.30472 15.4745 10.0106 14.9994 10.6321 14.5403C10.6841 14.5018 10.7356 14.4634 10.7867 14.4251L9.31052 13.1795C8.79488 13.5501 8.25773 13.8994 7.75357 14.1637C7.14779 14.4812 6.70461 14.6138 6.44432 14.6138C5.0186 14.6138 3.86282 13.4436 3.86282 12C3.86282 10.5564 5.0186 9.38616 6.44432 9.38616C6.70461 9.38616 7.14779 9.51875 7.75357 9.83633C8.22273 10.0823 8.77881 10.5943 9.24406 11.0227C9.35149 11.1216 9.45408 11.2161 9.54964 11.3018C10.059 11.7586 13.3414 14.5029 13.61 14.7205C13.61 14.7205 13.6126 14.7169 13.6173 14.7099V14.722C14.1748 15.1224 14.7866 15.5224 15.3899 15.8386C16.0563 16.188 16.8307 16.5 17.5557 16.5C20.0102 16.5 22 14.4853 22 12C22 9.51472 20.0102 7.5 17.5557 7.5C16.8307 7.5 16.0563 7.81202 15.3899 8.16137C14.6953 8.52553 13.9894 9.0006 13.3679 9.45972C13.3159 9.49815 13.2644 9.53657 13.2133 9.57491L14.6895 10.8205C15.2051 10.4499 15.7423 10.1006 16.2464 9.83633C16.8522 9.51875 17.2954 9.38616 17.5557 9.38616C18.9814 9.38616 20.1372 10.5564 20.1372 12C20.1372 13.4436 18.9814 14.6138 17.5557 14.6138C17.2954 14.6138 16.8522 14.4812 16.2464 14.1637C15.6689 13.8609 15.0481 13.4467 14.466 13.0166C14.1635 12.7931 13.8765 12.5691 13.6173 12.3599V12.3687C13.6149 12.3667 13.6125 12.3647 13.61 12.3628C13.2323 12.0563 12.5686 11.4773 11.8424 10.8438C10.5257 9.69531 9.00385 8.3678 8.61007 8.16137C7.94371 7.81203 7.16931 7.5 6.44432 7.5C3.98979 7.5 2 9.51472 2 12C2 14.4853 3.98979 16.5 6.44432 16.5Z" fill="#3B3751"/>
</svg>
