<svg width="24" height="24" viewBox="0 0 24 24" fill="none" xmlns="http://www.w3.org/2000/svg">
<path d="M21 2.00003H17.0184C17.0068 1.99983 16.9951 1.99983 16.9835 2.00003H13C12.4477 2.00003 12 2.44775 12 3.00003C12 3.55232 12.4477 4.00003 13 4.00003H15.2169L5.43917 20H3C2.44772 20 2 20.4477 2 21C2 21.5523 2.44772 22 3 22H5.98269C5.99361 22.0002 6.00452 22.0002 6.01543 22H11C11.5523 22 12 21.5523 12 21C12 20.4477 11.5523 20 11 20H7.78306L17.5608 4.00003H21C21.5523 4.00003 22 3.55232 22 3.00003C22 2.44775 21.5523 2.00003 21 2.00003Z" fill="#3B3751"/>
</svg>
