<svg width="24" height="24" viewBox="0 0 24 24" fill="none" xmlns="http://www.w3.org/2000/svg">
<path d="M19.5 13C20.8807 13 22 14.1193 22 15.5V19.5C22 20.8807 20.8807 22 19.5 22H15.5C14.1193 22 13 20.8807 13 19.5V15.5C13 14.1193 14.1193 13 15.5 13H19.5ZM12 17L7.70703 21.7041L6.29297 20.29L8.17188 18L2 17.9971V15.9971L8.17188 16L6.29297 13.7041L7.70703 12.29L12 17ZM15.5 15C15.2239 15 15 15.2239 15 15.5V19.5C15 19.7761 15.2239 20 15.5 20H19.5C19.7761 20 20 19.7761 20 19.5V15.5C20 15.2239 19.7761 15 19.5 15H15.5ZM19.5 2C20.8807 2 22 3.11929 22 4.5V8.5C22 9.88071 20.8807 11 19.5 11H15.5C14.1193 11 13 9.88071 13 8.5V4.5C13 3.11929 14.1193 2 15.5 2H19.5ZM15.5 4C15.2239 4 15 4.22386 15 4.5V8.5C15 8.77614 15.2239 9 15.5 9H19.5C19.7761 9 20 8.77614 20 8.5V4.5C20 4.22386 19.7761 4 19.5 4H15.5Z" fill="#3B3751"/>
</svg>
