<svg width="24" height="24" viewBox="0 0 24 24" fill="none" xmlns="http://www.w3.org/2000/svg">
<path d="M8.77504 17.175C9.57364 17.175 10.221 16.5276 10.221 15.729C10.221 14.9304 9.57364 14.283 8.77504 14.283C7.97644 14.283 7.32904 14.9304 7.32904 15.729C7.32904 16.5276 7.97644 17.175 8.77504 17.175Z" fill="#3B3751"/>
<path d="M18.6751 3L11.1041 10.573L10.2461 9.715C9.49005 8.959 8.17405 8.959 7.41805 9.715L3.46705 13.664C2.68805 14.445 2.68905 15.714 3.46805 16.492L8.01305 21.037C8.39105 21.415 8.89305 21.623 9.42705 21.623C9.96105 21.623 10.4631 21.415 10.8411 21.037L14.7901 17.088C15.1681 16.71 15.3761 16.208 15.3761 15.674C15.3761 15.14 15.1681 14.638 14.7901 14.26L13.9321 13.402L15.8461 11.488L14.4321 10.074L15.8461 8.66L17.2601 10.074L18.6741 8.66L17.2601 7.245L18.6751 5.83L20.0891 7.244L21.503 5.83L18.6751 3ZM9.42705 19.623L4.88205 15.077L8.83205 11.129L13.3771 15.674L9.42705 19.623Z" fill="#3B3751"/>
</svg>
