<svg width="24" height="24" viewBox="0 0 24 24" fill="none" xmlns="http://www.w3.org/2000/svg">
<path d="M16 4.0001C16.4142 4.0001 16.75 4.33588 16.75 4.7501V7.2501C16.75 7.66431 16.4142 8.0001 16 8.0001C15.5858 8.0001 15.25 7.66431 15.25 7.2501V4.7501C15.25 4.33588 15.5858 4.0001 16 4.0001Z" fill="#3B3751"/>
<path d="M16.75 9.0001C16.75 8.58588 16.4142 8.2501 16 8.2501C15.5858 8.2501 15.25 8.58588 15.25 9.0001V9.00674C15.25 9.42095 15.5858 9.75674 16 9.75674C16.4142 9.75674 16.75 9.42095 16.75 9.00674V9.0001Z" fill="#3B3751"/>
<path fill-rule="evenodd" clip-rule="evenodd" d="M17.6974 1.2484C17.6852 1.24482 17.6729 1.24147 17.6606 1.23837C15.4118 0.58471 12.9853 1.30115 11.4541 3.07562C10.0226 4.73446 9.62197 7.03011 10.3768 9.0588L8.96166 11.9277C8.78763 12.2806 8.83664 12.7026 9.08688 13.0062C9.33713 13.3097 9.7421 13.4384 10.1216 13.3349L13.4476 12.4277C15.3859 13.339 17.6784 13.1524 19.4504 11.912C21.339 10.5899 22.3029 8.30367 21.929 6.02968C21.555 3.7558 19.9097 1.89792 17.6974 1.2484ZM17.1298 3.16695C17.1423 3.17068 17.1548 3.17416 17.1674 3.17739C18.6269 3.61962 19.7083 4.85142 19.9555 6.35424C20.2045 7.86842 19.5629 9.39186 18.3034 10.2736C17.0436 11.1554 15.3889 11.2389 14.0464 10.4881C13.8177 10.3602 13.548 10.3272 13.2952 10.3962L11.7376 10.821L12.3718 9.53537C12.5064 9.26243 12.5094 8.94303 12.3799 8.6676C11.7128 7.24844 11.943 5.57033 12.9682 4.38225C13.9937 3.19392 15.6235 2.71752 17.1298 3.16695Z" fill="#3B3751"/>
<path fill-rule="evenodd" clip-rule="evenodd" d="M5 9.1101C5 9.04935 5.04925 9.0001 5.11 9.0001H8.00478C8.55706 9.0001 9.00478 8.55238 9.00478 8.0001C9.00478 7.44781 8.55706 7.0001 8.00478 7.0001H5.11C3.94468 7.0001 3 7.94478 3 9.1101V16.0001C2.44772 16.0001 2 16.4478 2 17.0001V18.6001C2 20.4779 3.52223 22.0001 5.4 22.0001H18.6C20.4778 22.0001 22 20.4779 22 18.6001V17.0001C22 16.4478 21.5523 16.0001 21 16.0001V14.0014C21 13.4491 20.5523 13.0014 20 13.0014C19.4477 13.0014 19 13.4491 19 14.0014V16.0001H14.0672C13.7083 16.0001 13.377 16.1924 13.1989 16.504C13.0297 16.8003 12.6825 17.0001 12 17.0001C11.3175 17.0001 10.9703 16.8003 10.8011 16.504C10.623 16.1924 10.2917 16.0001 9.9328 16.0001H5V9.1101ZM20 18.0014C19.9827 18.0014 19.9654 18.001 19.9483 18.0001H14.5718C13.8697 18.7766 12.8626 19.0001 12 19.0001C11.1374 19.0001 10.1303 18.7766 9.42818 18.0001H4V18.6001C4 19.3733 4.6268 20.0001 5.4 20.0001H18.6C19.3732 20.0001 20 19.3733 20 18.6001V18.0014Z" fill="#3B3751"/>
</svg>
