<svg width="24" height="24" viewBox="0 0 24 24" fill="none" xmlns="http://www.w3.org/2000/svg">
<path d="M12 12.528C11.861 12.528 11.723 12.499 11.594 12.442L2.594 8.442C2.232 8.282 2 7.924 2 7.528C2 7.132 2.232 6.775 2.594 6.615L11.594 2.615C11.853 2.5 12.148 2.5 12.407 2.615L21.407 6.615C21.768 6.775 22 7.133 22 7.528C22 7.923 21.768 8.281 21.406 8.442L12.406 12.442C12.277 12.499 12.139 12.528 12 12.528ZM5.463 7.528L12 10.434L18.537 7.528L12 4.622L5.463 7.528Z" fill="#3B3751"/>
<path d="M22 9.887L11.982 14.439L2 10.279V12.445L11.615 16.453C11.738 16.506 11.869 16.528 12 16.528C12.141 16.528 12.282 16.499 12.413 16.441L22 12.084V9.887Z" fill="#3B3751"/>
<path d="M22 13.887L11.982 18.439L2 14.279V16.445L11.615 20.453C11.738 20.506 11.869 20.528 12 20.528C12.141 20.528 12.282 20.499 12.413 20.441L22 16.084V13.887Z" fill="#3B3751"/>
</svg>
