<svg width="24" height="24" viewBox="0 0 24 24" fill="none" xmlns="http://www.w3.org/2000/svg">
<path fill-rule="evenodd" clip-rule="evenodd" d="M12 6C10.3431 6 9 7.34315 9 9C9 10.6569 10.3431 12 12 12C13.6569 12 15 10.6569 15 9C15 7.34315 13.6569 6 12 6ZM11 9C11 8.44772 11.4477 8 12 8C12.5523 8 13 8.44772 13 9C13 9.55228 12.5523 10 12 10C11.4477 10 11 9.55228 11 9Z" fill="#3B3751"/>
<path fill-rule="evenodd" clip-rule="evenodd" d="M12 22C12 22 11.4691 21.4122 10.6996 20.4506C8.67525 17.9208 5 12.8041 5 9C5 5.13 8.13 2 12 2C15.87 2 19 5.13 19 9C19 12.8041 15.3247 17.9208 13.3004 20.4506C12.5309 21.4122 12 22 12 22ZM13.8421 16.3501C13.198 17.3048 12.5515 18.1694 12 18.8716C11.4485 18.1694 10.802 17.3048 10.1579 16.3501C9.32069 15.1092 8.51213 13.7524 7.91896 12.4284C7.31404 11.0781 7 9.90783 7 9C7 6.23457 9.23457 4 12 4C14.7654 4 17 6.23457 17 9C17 9.90783 16.686 11.0781 16.081 12.4284C15.4879 13.7524 14.6793 15.1092 13.8421 16.3501Z" fill="#3B3751"/>
</svg>
