<svg width="24" height="24" viewBox="0 0 24 24" fill="none" xmlns="http://www.w3.org/2000/svg">
<path d="M12 18C12.8284 18 13.5 17.3284 13.5 16.5C13.5 15.6716 12.8284 15 12 15C11.1716 15 10.5 15.6716 10.5 16.5C10.5 17.3284 11.1716 18 12 18Z" fill="#3B3751"/>
<path d="M17 11H9V8C9 6.346 10.346 5 12 5C13.654 5 15 6.346 15 8V11H17V8C17 5.243 14.757 3 12 3C9.243 3 7 5.243 7 8V11C5.897 11 5 11.898 5 13V20C5 21.103 5.897 22 7 22H17C18.103 22 19 21.103 19 20V13C19 11.897 18.103 11 17 11ZM7 20V13H17L17.001 20H7Z" fill="#3B3751"/>
</svg>
