<svg width="24" height="24" viewBox="0 0 24 24" fill="none" xmlns="http://www.w3.org/2000/svg">
<path d="M2 12C2 7.58172 5.58172 4 10 4C12.7727 4 15.2166 5.40977 16.6534 7.55626L17.2097 8.38727L18.8717 7.27475L18.3155 6.44374C16.5232 3.76629 13.4681 2 10 2C4.47715 2 0 6.47715 0 12C0 17.5228 4.47715 22 10 22C13.4681 22 16.5232 20.2337 18.3155 17.5563L18.8717 16.7253L17.2097 15.6127L16.6534 16.4437C15.2166 18.5902 12.7727 20 10 20C5.58172 20 2 16.4183 2 12Z" fill="#3B3751"/>
<path d="M12.2929 7.05029L13.7071 8.46451L11.1716 11H22V13H11.1715L13.7071 15.5356L12.2929 16.9498L7.34314 12L12.2929 7.05029Z" fill="#3B3751"/>
</svg>
