<svg width="24" height="24" viewBox="0 0 24 24" fill="none" xmlns="http://www.w3.org/2000/svg">
<path d="M20 12C20 7.58172 16.4183 4 12 4C9.22725 4 6.78337 5.40977 5.34656 7.55626L4.7903 8.38727L3.12828 7.27475L3.68454 6.44374C5.47677 3.76629 8.53192 2 12 2C17.5228 2 22 6.47715 22 12C22 17.5228 17.5228 22 12 22C8.53192 22 5.47677 20.2337 3.68454 17.5563L3.12828 16.7253L4.7903 15.6127L5.34656 16.4437C6.78337 18.5902 9.22725 20 12 20C16.4183 20 20 16.4183 20 12Z" fill="#3B3751"/>
<path d="M9.70711 7.05029L8.2929 8.46451L10.8284 11H0V13H10.8285L8.2929 15.5356L9.70711 16.9498L14.6569 12L9.70711 7.05029Z" fill="#3B3751"/>
</svg>
