<svg width="24" height="24" viewBox="0 0 24 24" fill="none" xmlns="http://www.w3.org/2000/svg">
<path d="M22 12C22 11.94 22 11.86 22 11.78C22 11.78 22 11.72 22 11.67C22 11.61 22 11.55 22 11.52C22 11.52 22 11.45 22 11.42V11.3C22 11.3 22 11.23 22 11.22V11.19C22 11.14 22 11.1 21.99 11.06V10.99C21.99 10.99 21.99 10.97 21.99 10.98C21.99 10.96 21.99 10.94 21.99 10.92V10.88C21.99 10.86 21.99 10.83 21.99 10.81V10.78C21.99 10.78 21.99 10.72 21.99 10.69C21.97 10.59 21.96 10.48 21.94 10.37V10.35C21.94 10.35 21.94 10.3 21.93 10.27V10.22C21.93 10.22 21.91 10.17 21.9 10.13C21.9 10.11 21.9 10.09 21.89 10.07V10.11C21.89 10.11 21.9 10.11 21.89 10.11V10.06C21.89 10.06 21.87 9.99 21.86 9.97V9.92V9.85H21.84C21.83 9.79 21.82 9.73 21.8 9.68V9.64C20.66 5.26 16.72 2 12 2C10.84 2 9.72 2.2 8.69 2.56H8.67C4.78 3.94 2 7.64 2 12C2 13.17 2.2 14.29 2.57 15.33C3.94 19.22 7.64 22 12 22H20.62C21.17 22 21.62 21.55 21.62 21C21.62 19.61 21.21 18.32 20.51 17.23C21.45 15.71 21.99 13.91 21.99 11.99L22 12ZM14 12C14 13.09 13.13 13.97 12.05 14H11.99C10.92 14 10.06 13.16 10 12.11C10 12.06 10 12.03 10 12C10 10.89 10.9 10 12 10C13.1 10 14 10.9 14 12ZM15.95 20C15.65 19.89 15.36 19.76 15.07 19.6C14.87 19.5 14.68 19.37 14.49 19.25C14.33 19.15 14.17 19.05 14.01 18.94C13.84 18.82 13.67 18.68 13.5 18.54C13.34 18.41 13.17 18.27 13.02 18.13C12.86 17.99 12.72 17.83 12.57 17.68C12.42 17.52 12.27 17.36 12.13 17.19C11.79 16.79 11.49 16.36 11.22 15.91C11.48 15.96 11.74 15.99 12.01 15.99H14.63C14.96 15.99 15.28 16.03 15.59 16.09C15.62 16.09 15.64 16.09 15.67 16.1C15.97 16.16 16.25 16.25 16.53 16.37C16.56 16.38 16.6 16.4 16.63 16.41C16.9 16.53 17.16 16.67 17.4 16.83C17.42 16.85 17.45 16.86 17.47 16.88C18.51 17.6 19.27 18.7 19.53 19.99H15.96L15.95 20ZM21.78 9.86C21.78 9.86 21.78 9.89 21.78 9.92C21.78 9.92 21.78 9.88 21.77 9.86H21.78ZM19.79 10.12V10.16C19.79 10.16 19.81 10.23 19.82 10.27V10.3C19.82 10.3 19.84 10.37 19.84 10.39V10.44C19.84 10.44 19.86 10.48 19.86 10.5C19.86 10.48 19.86 10.47 19.86 10.46V10.49V10.55L19.88 10.61V10.65V10.63V10.67C19.89 10.75 19.91 10.84 19.92 10.94C19.92 10.97 19.92 11 19.92 11.03C19.92 11.08 19.92 11.13 19.93 11.15V11.19C19.93 11.19 19.93 11.21 19.93 11.2C19.93 11.22 19.93 11.23 19.93 11.25V11.29V11.32C19.93 11.32 19.93 11.34 19.93 11.35V11.37V11.55H19.94V11.57V11.6C19.94 11.65 19.94 11.67 19.94 11.69C19.94 11.72 19.94 11.75 19.94 11.78V11.75V11.79C19.94 11.84 19.94 11.9 19.94 11.97C19.94 13.28 19.62 14.52 19.06 15.61C19.04 15.59 19.01 15.57 18.99 15.55C18.91 15.48 18.82 15.42 18.73 15.36C18.62 15.28 18.52 15.2 18.41 15.13C18.31 15.07 18.21 15.01 18.11 14.95C18 14.89 17.9 14.82 17.78 14.77C17.67 14.71 17.56 14.66 17.45 14.61C17.34 14.56 17.23 14.51 17.11 14.47C17 14.42 16.88 14.38 16.76 14.34C16.64 14.3 16.53 14.27 16.41 14.24C16.29 14.21 16.17 14.17 16.05 14.15C15.93 14.12 15.8 14.1 15.68 14.08C15.57 14.06 15.47 14.04 15.36 14.03C15.72 13.43 15.94 12.74 15.94 11.99C15.94 11.71 15.93 11.43 15.9 11.15C15.9 11.06 15.88 10.97 15.87 10.88C15.85 10.7 15.83 10.51 15.8 10.33C15.78 10.22 15.76 10.12 15.74 10.01C15.71 9.85 15.68 9.69 15.64 9.53C15.61 9.42 15.58 9.32 15.55 9.21C15.51 9.05 15.46 8.9 15.41 8.75C15.4 8.72 15.39 8.69 15.38 8.65C15.38 8.65 15.35 8.59 15.34 8.55C15.19 8.15 15.03 7.76 14.83 7.38C14.82 7.35 14.8 7.33 14.79 7.31C14.59 6.93 14.36 6.55 14.11 6.2L14.09 6.17C13.84 5.82 13.57 5.5 13.28 5.19C13.24 5.15 13.21 5.11 13.18 5.08C12.9 4.79 12.6 4.51 12.29 4.26C12.26 4.24 12.24 4.21 12.21 4.19H12.2C12.2 4.19 12.11 4.11 12.07 4.08C12.03 4.05 12 4.02 11.96 4C15.73 4 18.89 6.61 19.74 10.12H19.79ZM9 4.6C9.63 4.86 10.23 5.18 10.77 5.58L10.85 5.64C11.06 5.8 11.25 5.98 11.44 6.16C11.55 6.26 11.66 6.35 11.76 6.46C11.97 6.68 12.16 6.91 12.34 7.15C12.39 7.22 12.45 7.28 12.51 7.35C12.69 7.6 12.84 7.87 12.99 8.14C12.67 8.06 12.34 8 12 8C11.86 8 11.73 8 11.59 8C11.51 8 11.44 8.01 11.36 8.02C11.25 8.02 11.14 8.04 11.03 8.05C10.96 8.05 10.89 8.05 10.82 8.07H10.8C10.72 8.08 10.64 8.1 10.56 8.11C10.45 8.13 10.35 8.14 10.24 8.16C10.2 8.16 10.15 8.17 10.11 8.18C10.08 8.18 10.07 8.18 10.05 8.19H10C9.93 8.21 9.87 8.23 9.81 8.25C9.71 8.27 9.6 8.3 9.5 8.32C9.45 8.33 9.4 8.34 9.36 8.35H9.37H9.35L9.3 8.37C9.21 8.39 9.13 8.42 9.05 8.45C8.96 8.48 8.87 8.51 8.78 8.54C8.74 8.55 8.69 8.57 8.65 8.58H8.63C8.63 8.58 8.63 8.58 8.62 8.59H8.59V8.61H8.58C8.51 8.64 8.44 8.67 8.37 8.7C8.26 8.74 8.16 8.78 8.05 8.83C8.02 8.84 7.99 8.85 7.96 8.87H7.95L7.9 8.9C7.82 8.94 7.75 8.98 7.68 9.01C7.58 9.06 7.48 9.11 7.38 9.16C7.37 9.16 7.35 9.17 7.34 9.18C7.34 9.18 7.29 9.2 7.25 9.23C7.19 9.26 7.14 9.29 7.09 9.32C6.96 9.39 6.84 9.46 6.71 9.54L6.69 9.56H6.67L6.65 9.59L6.63 9.61C6.63 9.61 6.54 9.68 6.49 9.71C6.36 9.79 6.24 9.88 6.12 9.97H6.1V9.99L6.02 10.05C6.02 10.05 5.97 10.09 5.95 10.11C5.81 10.22 5.66 10.34 5.52 10.45C5.52 10.45 5.52 10.45 5.51 10.46L5.46 10.5C5.46 10.5 5.39 10.57 5.36 10.6C5.24 10.71 5.12 10.82 5 10.94C5 10.94 4.96 10.98 4.94 11.01L4.92 11.03H4.91L4.88 11.07C4.75 11.21 4.62 11.35 4.49 11.49H4.48L4.46 11.52L4.44 11.54C4.44 11.54 4.39 11.61 4.36 11.64C4.26 11.76 4.16 11.88 4.06 12.01C4.06 8.66 6.13 5.8 9.06 4.61L9 4.6ZM4.6 15C4.71 14.74 4.81 14.47 4.94 14.22C4.94 14.2 4.96 14.19 4.97 14.18C5.15 13.85 5.36 13.53 5.58 13.23C5.61 13.19 5.64 13.15 5.67 13.12C5.89 12.84 6.12 12.58 6.37 12.33C6.41 12.29 6.45 12.26 6.49 12.22C6.74 11.98 7 11.76 7.28 11.55C7.33 11.52 7.37 11.49 7.42 11.45C7.65 11.29 7.89 11.15 8.14 11.01C8.06 11.33 8 11.65 8 11.99C8 12.06 8 12.12 8 12.16C8 12.16 8 12.16 8 12.17C8 12.3 8.02 12.43 8.03 12.56C8.03 12.68 8.04 12.8 8.06 12.92C8.08 13.06 8.1 13.2 8.12 13.34C8.14 13.46 8.16 13.57 8.18 13.69C8.21 13.83 8.24 13.96 8.28 14.1C8.31 14.21 8.34 14.33 8.37 14.44C8.41 14.57 8.45 14.71 8.5 14.84C8.54 14.95 8.58 15.06 8.62 15.17C8.67 15.3 8.72 15.44 8.78 15.57C8.82 15.67 8.87 15.78 8.92 15.88C8.98 16.02 9.05 16.15 9.12 16.28C9.17 16.37 9.21 16.46 9.26 16.54C9.34 16.68 9.42 16.83 9.5 16.97C9.54 17.03 9.58 17.09 9.61 17.15C9.84 17.51 10.08 17.86 10.34 18.19C10.86 18.85 11.46 19.46 12.1 20H12.01C8.66 20 5.8 17.93 4.61 15H4.6Z" fill="#3B3751"/>
</svg>
