<svg width="24" height="24" viewBox="0 0 24 24" fill="none" xmlns="http://www.w3.org/2000/svg">
<path d="M19.6986 8.22C18.9236 7.345 17.8086 6.845 16.6436 6.845H16.6186L16.7136 6.07C16.8536 4.91 16.4886 3.745 15.7136 2.875C14.9386 2 13.8236 1.5 12.6586 1.5H6.11361C5.55861 1.5 5.08861 1.915 5.02361 2.47L3.51361 15.02C3.44861 15.56 3.61861 16.105 3.97861 16.51C4.33861 16.915 4.85861 17.15 5.40361 17.15H7.88361L7.49861 20.365C7.43361 20.905 7.60361 21.45 7.96361 21.855C8.32361 22.265 8.84361 22.5 9.38861 22.5H12.3986C13.3636 22.5 14.1736 21.78 14.2886 20.825L14.6486 17.815H16.3036C18.3686 17.815 20.1136 16.27 20.3586 14.22L20.6936 11.42C20.8336 10.26 20.4736 9.095 19.6986 8.22ZM10.9286 10.265L11.0736 9.05H14.0786C13.9586 9.375 13.7536 9.65 13.4686 9.87C13.1336 10.13 12.7386 10.265 12.3186 10.265H10.9286ZM10.6636 12.465H12.3186C13.7036 12.465 14.9836 11.77 15.7386 10.61C16.0036 10.205 16.1936 9.76 16.2986 9.29C16.3186 9.2 16.3336 9.12 16.3486 9.045H16.6386C17.1736 9.045 17.6886 9.275 18.0436 9.68C18.3986 10.08 18.5686 10.62 18.5036 11.15L18.1686 13.95C18.0536 14.895 17.2536 15.605 16.3036 15.605H13.6686C13.1136 15.605 12.6436 16.02 12.5736 16.575L12.1286 20.29H9.71861L10.6636 12.465ZM14.5236 5.81L14.3986 6.85H10.5686L9.99361 6.855C9.48361 6.905 9.06861 7.31 9.00361 7.82L8.52861 11.78L8.14861 14.95H5.73861L7.08861 3.705H12.6536C13.1886 3.705 13.7036 3.935 14.0586 4.34C14.4236 4.74 14.5886 5.275 14.5236 5.81Z" fill="#3B3751"/>
</svg>
