<svg width="24" height="24" viewBox="0 0 24 24" fill="none" xmlns="http://www.w3.org/2000/svg">
<path d="M20.0022 2.99704V4.19404L4.0022 7.75104V6.99704H2.0022V14.997H4.0022V14.243L5.0022 14.466V17.997C5.0022 18.456 5.3152 18.855 5.7592 18.968L9.7592 19.968C9.8402 19.987 9.9212 19.997 10.0022 19.997C10.3122 19.997 10.6092 19.852 10.8012 19.597L13.2722 16.304L20.0022 17.798V18.997H22.0022V2.99704H20.0022ZM9.6002 17.866L7.0022 17.216V14.909L11.1292 15.827L9.6002 17.866ZM4.0022 12.194V9.80004L20.0022 6.24304V15.751L4.0022 12.194Z" fill="#3B3751"/>
</svg>
