<svg width="24" height="24" viewBox="0 0 24 24" fill="none" xmlns="http://www.w3.org/2000/svg">
<path fill-rule="evenodd" clip-rule="evenodd" d="M9.35292 2.93874C9.6362 3.22201 9.72307 3.64701 9.57369 4.01873C9.20396 4.93876 9 5.94435 9 7.00003C9 11.4183 12.5817 15 17 15C18.0557 15 19.0613 14.7961 19.9813 14.4263C20.353 14.277 20.778 14.3638 21.0613 14.6471C21.3446 14.9304 21.4314 15.3554 21.2821 15.7271C19.8051 19.4023 16.2071 22 12 22C6.47715 22 2 17.5229 2 12C2 7.79291 4.59771 4.19493 8.27293 2.71797C8.64465 2.56858 9.06964 2.65546 9.35292 2.93874ZM7.08558 5.68674C5.20699 7.15127 4 9.4354 4 12C4 16.4183 7.58172 20 12 20C14.5646 20 16.8488 18.793 18.3133 16.9145C17.8833 16.9709 17.4449 17 17 17C11.4772 17 7 12.5229 7 7.00003C7 6.55513 7.02911 6.11674 7.08558 5.68674Z" fill="#3B3751"/>
</svg>
