<svg width="24" height="24" viewBox="0 0 24 24" fill="none" xmlns="http://www.w3.org/2000/svg">
<path d="M14.0022 19C14.0022 17.8954 13.1068 17 12.0022 17C10.8976 17 10.0022 17.8954 10.0022 19C10.0022 20.1046 10.8976 21 12.0022 21C13.1068 21 14.0022 20.1046 14.0022 19Z" fill="#3B3751"/>
<path d="M14.0022 12C14.0022 10.8954 13.1068 10 12.0022 10C10.8976 10 10.0022 10.8954 10.0022 12C10.0022 13.1046 10.8976 14 12.0022 14C13.1068 14 14.0022 13.1046 14.0022 12Z" fill="#3B3751"/>
<path d="M14.0022 5C14.0022 3.89543 13.1068 3 12.0022 3C10.8976 3 10.0022 3.89543 10.0022 5C10.0022 6.10457 10.8976 7 12.0022 7C13.1068 7 14.0022 6.10457 14.0022 5Z" fill="#3B3751"/>
</svg>
