<svg width="24" height="24" viewBox="0 0 24 24" fill="none" xmlns="http://www.w3.org/2000/svg">
<path d="M5.0022 14C6.10677 14 7.0022 13.1046 7.0022 12C7.0022 10.8954 6.10677 10 5.0022 10C3.89763 10 3.0022 10.8954 3.0022 12C3.0022 13.1046 3.89763 14 5.0022 14Z" fill="#3B3751"/>
<path d="M12.0022 14C13.1068 14 14.0022 13.1046 14.0022 12C14.0022 10.8954 13.1068 10 12.0022 10C10.8976 10 10.0022 10.8954 10.0022 12C10.0022 13.1046 10.8976 14 12.0022 14Z" fill="#3B3751"/>
<path d="M19.0022 14C20.1068 14 21.0022 13.1046 21.0022 12C21.0022 10.8954 20.1068 10 19.0022 10C17.8976 10 17.0022 10.8954 17.0022 12C17.0022 13.1046 17.8976 14 19.0022 14Z" fill="#3B3751"/>
</svg>
