<svg width="24" height="24" viewBox="0 0 24 24" fill="none" xmlns="http://www.w3.org/2000/svg">
<path d="M18 2.992H12V4.992H18C19.104 4.992 20 5.888 20 6.992V16.992C20 18.096 19.104 18.992 18 18.992H16.414L17.707 17.699L16.293 16.285L12.586 19.992L16.293 23.699L17.707 22.285L16.414 20.992H18C20.205 20.992 22 19.197 22 16.992V6.992C22 4.787 20.205 2.992 18 2.992Z" fill="#3B3751"/>
<path d="M9 0.992004H3C2.447 0.992004 2 1.439 2 1.992V5.992C2 6.545 2.447 6.992 3 6.992H9C9.553 6.992 10 6.545 10 5.992V1.992C10 1.439 9.553 0.992004 9 0.992004Z" fill="#3B3751"/>
<path d="M9 8.992H3C2.447 8.992 2 9.439 2 9.992V13.992C2 14.545 2.447 14.992 3 14.992H9C9.553 14.992 10 14.545 10 13.992V9.992C10 9.439 9.553 8.992 9 8.992ZM8 12.992H4V10.992H8V12.992Z" fill="#3B3751"/>
<path d="M9 16.992H3C2.447 16.992 2 17.439 2 17.992V21.992C2 22.545 2.447 22.992 3 22.992H9C9.553 22.992 10 22.545 10 21.992V17.992C10 17.439 9.553 16.992 9 16.992ZM8 20.992H4V18.992H8V20.992Z" fill="#3B3751"/>
</svg>
