<svg width="24" height="24" viewBox="0 0 24 24" fill="none" xmlns="http://www.w3.org/2000/svg">
<path d="M5 5H10V7H5V5Z" fill="#3B3751"/>
<path d="M15 7C15.5523 7 16 6.55228 16 6C16 5.44772 15.5523 5 15 5C14.4477 5 14 5.44772 14 6C14 6.55228 14.4477 7 15 7Z" fill="#3B3751"/>
<path d="M19 6C19 6.55228 18.5523 7 18 7C17.4477 7 17 6.55228 17 6C17 5.44772 17.4477 5 18 5C18.5523 5 19 5.44772 19 6Z" fill="#3B3751"/>
<path d="M10 11H5V13H10V11Z" fill="#3B3751"/>
<path d="M15 13C15.5523 13 16 12.5523 16 12C16 11.4477 15.5523 11 15 11C14.4477 11 14 11.4477 14 12C14 12.5523 14.4477 13 15 13Z" fill="#3B3751"/>
<path d="M19 12C19 12.5523 18.5523 13 18 13C17.4477 13 17 12.5523 17 12C17 11.4477 17.4477 11 18 11C18.5523 11 19 11.4477 19 12Z" fill="#3B3751"/>
<path fill-rule="evenodd" clip-rule="evenodd" d="M20 2H4C3.46957 2 2.96086 2.21071 2.58579 2.58579C2.21071 2.96086 2 3.46957 2 4V14C2 15.103 2.896 16 4 16H11V20H6V22H18V20H13V16H20C21.104 16 22 15.103 22 14V4C22 3.46957 21.7893 2.96086 21.4142 2.58579C21.0391 2.21071 20.5304 2 20 2ZM19.999 8H4V4H20L19.999 8ZM4 14V10H19.998L19.997 14H4Z" fill="#3B3751"/>
<path d="M20 22C20.5523 22 21 21.5523 21 21C21 20.4477 20.5523 20 20 20C19.4477 20 19 20.4477 19 21C19 21.5523 19.4477 22 20 22Z" fill="#3B3751"/>
<path d="M5 21C5 21.5523 4.55228 22 4 22C3.44772 22 3 21.5523 3 21C3 20.4477 3.44772 20 4 20C4.55228 20 5 20.4477 5 21Z" fill="#3B3751"/>
</svg>
