<svg width="24" height="24" viewBox="0 0 24 24" fill="none" xmlns="http://www.w3.org/2000/svg">
<g clip-path="url(#clip0_97_1884)">
<path fill-rule="evenodd" clip-rule="evenodd" d="M12 0C7.527 0 3 1.374 3 4V16C3 18.43 6.877 19.785 11 19.975V22H6V24H18V22H13V19.975C17.123 19.786 21 18.43 21 16V4C21 1.374 16.473 0 12 0ZM12 2C16.547 2 19 3.42 19 4C19 4.58 16.547 6 12 6C7.453 6 5 4.58 5 4C5 3.42 7.453 2 12 2ZM12 18C7.453 18 5 16.58 5 16V14.6C6.736 15.523 9.374 16 12 16C14.626 16 17.264 15.522 19 14.6V16C19 16.58 16.547 18 12 18ZM12 14C7.453 14 5 12.58 5 12V10.6C6.736 11.523 9.374 12 12 12C14.626 12 17.264 11.522 19 10.6V12C19 12.58 16.547 14 12 14ZM12 10C7.453 10 5 8.58 5 8V6.6C6.736 7.522 9.374 8 12 8C14.626 8 17.264 7.522 19 6.6V8C19 8.58 16.547 10 12 10Z" fill="#3B3751"/>
<path d="M20 24C20.5523 24 21 23.5523 21 23C21 22.4477 20.5523 22 20 22C19.4477 22 19 22.4477 19 23C19 23.5523 19.4477 24 20 24Z" fill="#3B3751"/>
<path d="M5 23C5 23.5523 4.55228 24 4 24C3.44772 24 3 23.5523 3 23C3 22.4477 3.44772 22 4 22C4.55228 22 5 22.4477 5 23Z" fill="#3B3751"/>
</g>
<defs>
<clipPath id="clip0_97_1884">
<rect width="24" height="24" fill="white"/>
</clipPath>
</defs>
</svg>
