<svg width="24" height="24" viewBox="0 0 24 24" fill="none" xmlns="http://www.w3.org/2000/svg">
<path d="M12.0022 1.99704C6.4882 1.99704 2.0022 6.48304 2.0022 11.997C2.0022 17.511 6.4882 21.997 12.0022 21.997C12.4642 21.997 12.9252 21.966 13.3702 21.904C14.4322 21.758 15.3032 21.037 15.6432 20.023C15.9862 19.008 15.7272 17.908 14.9682 17.15L13.9812 16.162C13.7522 15.933 13.6842 15.591 13.8082 15.29C13.8392 15.218 13.9302 14.997 14.5472 14.997H19.2022C20.6942 14.997 22.0022 13.596 22.0022 11.997C22.0022 6.48304 17.5162 1.99704 12.0022 1.99704ZM19.2022 12.997H14.5472C13.3052 12.997 12.3632 13.555 11.9612 14.525C11.5252 15.575 11.7632 16.773 12.5672 17.577C13.0782 18.089 13.9792 18.7 13.7482 19.385C13.5312 20.032 12.6872 19.997 12.0022 19.997C7.5912 19.997 4.0022 16.408 4.0022 11.997C4.0022 7.58604 7.5912 3.99704 12.0022 3.99704C16.4132 3.99704 20.0022 7.58604 20.0022 11.997C20.0022 12.483 19.5912 12.997 19.2022 12.997Z" fill="#3B3751"/>
<path d="M11.0022 4.99704C9.8992 4.99704 9.0022 5.89504 9.0022 6.99704C9.0022 8.10004 9.8992 8.99704 11.0022 8.99704C12.1052 8.99704 13.0022 8.10004 13.0022 6.99704C13.0022 5.89504 12.1052 4.99704 11.0022 4.99704Z" fill="#3B3751"/>
<path d="M7.0022 9.99704C5.8992 9.99704 5.0022 10.895 5.0022 11.997C5.0022 13.1 5.8992 13.997 7.0022 13.997C8.1052 13.997 9.0022 13.1 9.0022 11.997C9.0022 10.895 8.1052 9.99704 7.0022 9.99704Z" fill="#3B3751"/>
<path d="M16.0022 7.99704C14.8992 7.99704 14.0022 8.89504 14.0022 9.99704C14.0022 11.1 14.8992 11.997 16.0022 11.997C17.1052 11.997 18.0022 11.1 18.0022 9.99704C18.0022 8.89504 17.1052 7.99704 16.0022 7.99704Z" fill="#3B3751"/>
</svg>
