<svg width="24" height="24" viewBox="0 0 24 24" fill="none" xmlns="http://www.w3.org/2000/svg">
<path fill-rule="evenodd" clip-rule="evenodd" d="M7.41967 2.69289C7.69746 2.3225 8.15757 2 8.75 2H13.25C13.8424 2 14.3025 2.3225 14.5803 2.69289C14.8579 3.06298 15 3.52841 15 4H17C17.7956 4 18.5587 4.31607 19.1213 4.87868C19.6839 5.44129 20 6.20435 20 7C20 7.55228 19.5523 8 19 8C18.4477 8 18 7.55228 18 7C18 6.73478 17.8946 6.48043 17.7071 6.29289C17.5196 6.10536 17.2652 6 17 6H15C15 6.47159 14.8579 6.93702 14.5803 7.30711C14.3025 7.6775 13.8424 8 13.25 8H8.75C8.15757 8 7.69746 7.6775 7.41967 7.30711C7.14211 6.93702 7 6.47159 7 6H5C4.73478 6 4.48043 6.10536 4.29289 6.29289C4.10536 6.48043 4 6.73478 4 7V19C4 19.2652 4.10536 19.5196 4.29289 19.7071C4.48043 19.8946 4.73478 20 5 20H9C9.55228 20 10 20.4477 10 21C10 21.5523 9.55228 22 9 22H5C4.20435 22 3.44129 21.6839 2.87868 21.1213C2.31607 20.5587 2 19.7957 2 19V7C2 6.20435 2.31607 5.44129 2.87868 4.87868C3.44129 4.31607 4.20435 4 5 4H7C7 3.52841 7.14211 3.06298 7.41967 2.69289ZM9 6H13V4H9V6Z" fill="#3B3751"/>
<path d="M19 13V15H15V13H19Z" fill="#3B3751"/>
<path d="M19 19V17H15V19H19Z" fill="#3B3751"/>
<path fill-rule="evenodd" clip-rule="evenodd" d="M14 10C12.8954 10 12 10.8954 12 12V20C12 21.1046 12.8954 22 14 22H20C21.1046 22 22 21.1046 22 20V12C22 10.8954 21.1046 10 20 10H14ZM14 20V12H20V20H14Z" fill="#3B3751"/>
</svg>
