<svg width="24" height="24" viewBox="0 0 24 24" fill="none" xmlns="http://www.w3.org/2000/svg">
<path d="M12 2C17.514 2 22 6.486 22 12C22 17.515 17.514 22 12 22C6.486 22 2 17.515 2 12C2 6.487 6.486 2 12 2ZM12 4C7.589 4 4 7.589 4 12C4 16.411 7.589 20 12 20C16.411 20 20 16.411 20 12C20 7.589 16.411 4 12 4ZM14.418 13C15.5224 13.0002 16.418 13.8956 16.418 15C16.418 16.1044 15.5224 16.9998 14.418 17C13.3134 17 12.418 16.1046 12.418 15C12.418 13.8954 13.3134 13 14.418 13ZM16.9033 8.41406L8.41406 16.9033L7 15.4883L15.4883 7L16.9033 8.41406ZM14.418 14.7139C14.2602 14.7139 14.1318 14.8422 14.1318 15C14.1318 15.1578 14.2602 15.2861 14.418 15.2861C14.5756 15.2859 14.7031 15.1577 14.7031 15C14.7031 14.8423 14.5756 14.7141 14.418 14.7139ZM9.41797 7C10.5224 7.0002 11.418 7.89555 11.418 9C11.418 10.1044 10.5224 10.9998 9.41797 11C8.3134 11 7.41797 10.1046 7.41797 9C7.41797 7.89543 8.3134 7 9.41797 7ZM9.41797 8.71387C9.26017 8.71387 9.13184 8.8422 9.13184 9C9.13184 9.1578 9.26017 9.28613 9.41797 9.28613C9.5756 9.28594 9.70312 9.15767 9.70312 9C9.70312 8.84233 9.5756 8.71406 9.41797 8.71387Z" fill="#3B3751"/>
</svg>
