<svg width="24" height="24" viewBox="0 0 24 24" fill="none" xmlns="http://www.w3.org/2000/svg">
<path fill-rule="evenodd" clip-rule="evenodd" d="M18.3636 3.81818H5.63636C4.63221 3.81818 3.81818 4.63221 3.81818 5.63636V18.3636C3.81818 19.3678 4.63221 20.1818 5.63636 20.1818H18.3636C19.3678 20.1818 20.1818 19.3678 20.1818 18.3636V5.63636C20.1818 4.63221 19.3678 3.81818 18.3636 3.81818ZM5.63636 2C3.62805 2 2 3.62805 2 5.63636V18.3636C2 20.3719 3.62805 22 5.63636 22H18.3636C20.3719 22 22 20.3719 22 18.3636V5.63636C22 3.62805 20.3719 2 18.3636 2H5.63636Z" fill="#3B3751"/>
<path d="M16 12.0001L10 16V8L16 12.0001Z" fill="#3B3751"/>
</svg>
