<svg width="24" height="24" viewBox="0 0 24 24" fill="none" xmlns="http://www.w3.org/2000/svg">
<path d="M17.9999 7.58099L16.5859 8.99499L18.5859 10.995H12.9999V5.40999L14.9999 7.40999L16.4139 5.99499L11.9999 1.58099L7.58594 5.99499L8.99994 7.40999L10.9999 5.40999V10.995H5.41394L7.41394 8.99499L5.99994 7.58099L1.58594 11.995L5.99994 16.41L7.41394 14.995L5.41394 12.995H10.9999V18.581L8.99994 16.581L7.58594 17.995L11.9999 22.41L16.4139 17.995L14.9999 16.581L12.9999 18.581V12.995H18.5859L16.5859 14.995L17.9999 16.41L22.4139 11.995L17.9999 7.58099Z" fill="#3B3751"/>
</svg>
