<svg width="24" height="24" viewBox="0 0 24 24" fill="none" xmlns="http://www.w3.org/2000/svg">
<g clip-path="url(#clip0_348_173)">
<path d="M15 12.991C16.6569 12.991 18 14.3341 18 15.991V20.991C18 22.6478 16.6569 23.991 15 23.991H3C1.34315 23.991 0 22.6478 0 20.991V15.991C0 14.3341 1.34315 12.991 3 12.991H15ZM3 14.991C2.44772 14.991 2 15.4387 2 15.991V20.991C2 21.5433 2.44772 21.991 3 21.991H8V14.991H3ZM10 21.991H15C15.5523 21.991 16 21.5433 16 20.991V15.991C16 15.4387 15.5523 14.991 15 14.991H10V21.991ZM16.0049 -0.00902622C17.1326 -0.0063638 18.1228 0.736425 18.4453 1.81519L18.4463 1.81812L18.9609 3.51636C18.986 3.59959 19.0696 3.64562 19.1484 3.62769L20.8701 3.22828C21.969 2.9782 23.1006 3.47686 23.6602 4.45386C24.2187 5.42956 24.0782 6.65665 23.3125 7.48023L23.3115 7.48121L22.1104 8.78004C22.0493 8.84588 22.0494 8.94951 22.1104 9.01539L22.1113 9.01636L23.3115 10.3142L23.3125 10.3162C24.0782 11.1398 24.2189 12.3668 23.6602 13.3425C23.1006 14.3194 21.969 14.8182 20.8701 14.5681L20.8662 14.5671L19.1465 14.1677C18.6088 14.0427 18.2737 13.5053 18.3984 12.9675C18.5233 12.4296 19.0616 12.0946 19.5996 12.2195L21.3145 12.6179H21.3164C21.5545 12.6712 21.8015 12.5637 21.9248 12.3484C22.0488 12.1317 22.0169 11.8593 21.8477 11.6775L21.8457 11.6746L20.6436 10.3748C19.8726 9.54205 19.8723 8.25421 20.6436 7.42164L21.8457 6.12086L21.8477 6.11793C22.0168 5.93609 22.0488 5.66362 21.9248 5.44703C21.8015 5.23183 21.5544 5.12426 21.3164 5.1775L21.3145 5.17847L19.5977 5.57691C18.4882 5.83252 17.3748 5.18155 17.0469 4.09449L17.0459 4.09254L16.5293 2.38843C16.4586 2.15133 16.2422 1.99155 16 1.99097C15.7578 1.99051 15.5414 2.14959 15.4697 2.38648L14.9541 4.0857L14.9531 4.08765C14.6251 5.17461 13.5117 5.82567 12.4023 5.57008L10.6836 5.17066C10.4455 5.11739 10.1985 5.22488 10.0752 5.44019C9.95114 5.65682 9.98314 5.92925 10.1523 6.11109L10.1543 6.11402L11.3564 7.41383C12.1275 8.24633 12.1282 9.53426 11.3574 10.367L11.3564 10.3679L10.1543 11.6677C9.7794 12.0731 9.14672 12.0982 8.74121 11.7234C8.33588 11.3486 8.31098 10.7158 8.68555 10.3103L9.88867 9.00953L9.88965 9.00855C9.95073 8.94268 9.95073 8.83908 9.88965 8.7732L8.68848 7.47437L8.6875 7.47242C7.92181 6.64875 7.78107 5.42177 8.33984 4.44605C8.89941 3.46924 10.0311 2.97041 11.1299 3.22047L11.1338 3.22144L12.8516 3.62086C12.9304 3.63872 13.014 3.59271 13.0391 3.50953V3.50758L13.5547 1.80738C13.8815 0.728694 14.8763 -0.0116568 16.0049 -0.00902622ZM16 5.99097C17.6569 5.99097 19 7.33412 19 8.99097C19 10.6478 17.6569 11.991 16 11.991C14.3431 11.991 13 10.6478 13 8.99097C13 7.33412 14.3431 5.99097 16 5.99097ZM16 7.99097C15.4477 7.99097 15 8.43869 15 8.99097C15 9.54326 15.4477 9.99097 16 9.99097C16.5523 9.99097 17 9.54326 17 8.99097C17 8.43869 16.5523 7.99097 16 7.99097Z" fill="#3B3751"/>
</g>
<defs>
<clipPath id="clip0_348_173">
<rect width="24" height="24" fill="white"/>
</clipPath>
</defs>
</svg>
