<svg width="24" height="24" viewBox="0 0 24 24" fill="none" xmlns="http://www.w3.org/2000/svg">
<path d="M13.0012 2.99304H7.00122C6.44922 2.99304 6.00122 3.44104 6.00122 3.99304V19.993C6.00122 20.545 6.44922 20.993 7.00122 20.993H11.0012C11.5532 20.993 12.0012 20.545 12.0012 19.993V16.993H13.0012C16.8612 16.993 20.0012 13.853 20.0012 9.99304C20.0012 6.13304 16.8612 2.99304 13.0012 2.99304ZM13.0012 14.993H11.0012C10.4492 14.993 10.0012 15.441 10.0012 15.993V18.993H8.00122V4.99304H13.0012C15.7582 4.99304 18.0012 7.23604 18.0012 9.99304C18.0012 12.75 15.7582 14.993 13.0012 14.993Z" fill="#3B3751"/>
<path d="M13.0012 6.99304H11.0012C10.4492 6.99304 10.0012 7.44104 10.0012 7.99304V11.993C10.0012 12.545 10.4492 12.993 11.0012 12.993H13.0012C14.6552 12.993 16.0012 11.647 16.0012 9.99304C16.0012 8.33904 14.6552 6.99304 13.0012 6.99304ZM13.0012 10.993H12.0012V8.99304H13.0012C13.5522 8.99304 14.0012 9.44204 14.0012 9.99304C14.0012 10.544 13.5522 10.993 13.0012 10.993Z" fill="#3B3751"/>
</svg>
