<svg width="24" height="24" viewBox="0 0 24 24" fill="none" xmlns="http://www.w3.org/2000/svg">
<path d="M16 4.99799H8V6.99799H16V4.99799Z" fill="#3B3751"/>
<path d="M16 7.99799H8V9.99799H16V7.99799Z" fill="#3B3751"/>
<path d="M20 11.998H18V2.99799H6V11.998H4V0.997986H20V11.998Z" fill="#3B3751"/>
<path d="M21 21.998H3C2.447 21.998 2 21.55 2 20.998V14.998C2 14.446 2.447 13.998 3 13.998H8C8.266 13.998 8.52 14.103 8.707 14.291L10.414 15.998H13.586L15.293 14.291C15.48 14.103 15.734 13.998 16 13.998H21C21.553 13.998 22 14.446 22 14.998V20.998C22 21.55 21.553 21.998 21 21.998ZM4 19.998H20V15.998H16.414L14.707 17.705C14.52 17.893 14.266 17.998 14 17.998H10C9.734 17.998 9.48 17.893 9.293 17.705L7.586 15.998H4V19.998Z" fill="#3B3751"/>
</svg>
