<svg width="24" height="24" viewBox="0 0 24 24" fill="none" xmlns="http://www.w3.org/2000/svg">
<path d="M8.00098 18C8.00098 15.699 9.44998 14.25 11.751 14.25C14.052 14.25 15.501 15.699 15.501 18H8.00098Z" fill="#3B3751"/>
<path d="M11.751 13C13.1317 13 14.251 11.8807 14.251 10.5C14.251 9.11929 13.1317 8 11.751 8C10.3703 8 9.25098 9.11929 9.25098 10.5C9.25098 11.8807 10.3703 13 11.751 13Z" fill="#3B3751"/>
<path d="M19.001 4H18.001V6H19.001L19.002 20H5.00098V6H6.00098V4H5.00098C3.89798 4 3.00098 4.896 3.00098 6V20C3.00098 21.103 3.89798 22 5.00098 22H19.001C20.104 22 21.001 21.103 21.001 20V6C21.001 4.896 20.104 4 19.001 4Z" fill="#3B3751"/>
<path d="M14.001 3C14.001 1.896 13.105 1 12.001 1C10.897 1 10.001 1.896 10.001 3H8.00098V6H16.001V3H14.001Z" fill="#3B3751"/>
</svg>
