<svg width="24" height="24" viewBox="0 0 24 24" fill="none" xmlns="http://www.w3.org/2000/svg">
<path fill-rule="evenodd" clip-rule="evenodd" d="M19.35 6.66667C20.2848 6.66667 21 7.43707 21 8.33333V20.3333C21 21.2296 20.2848 22 19.35 22H4.65C3.7152 22 3 21.2296 3 20.3333L3 16.9544C3 16.1104 3.82249 15.3071 4.8021 15.6395C4.93419 15.6843 5.08346 15.7427 5.22613 15.8191L5.24654 15.8301C5.45894 15.9391 5.69692 16 5.95065 16C6.80936 16 7.55065 15.2769 7.55065 14.3333C7.55065 13.3898 6.80936 12.6667 5.95065 12.6667C5.68611 12.6667 5.44951 12.733 5.25154 12.8476L5.23437 12.8575L5.21682 12.8668C5.07296 12.9425 4.9229 12.9999 4.79038 13.0436C3.81243 13.3661 3 12.5634 3 11.7252L3 8.33333C3 7.43706 3.7152 6.66667 4.65 6.66667L9.03831 6.66667C8.94654 6.3456 8.9 6.00937 8.9 5.66667C8.9 3.6664 10.4888 2 12.5 2C14.5112 2 16.1 3.6664 16.1 5.66667C16.1 6.01245 16.0527 6.34805 15.9641 6.66667L19.35 6.66667ZM19 9.06667C19 8.84575 18.8209 8.66667 18.6 8.66667L15.0629 8.66667C14.2186 8.66667 13.432 7.8536 13.7389 6.88649C13.7831 6.74739 13.8409 6.58983 13.917 6.44029L13.9279 6.41897C14.0374 6.19447 14.1 5.93991 14.1 5.66667C14.1 4.72293 13.3592 4 12.5 4C11.6408 4 10.9 4.72293 10.9 5.66667C10.9 5.95477 10.9694 6.21025 11.0871 6.42164L11.0965 6.43866L11.1053 6.45603C11.1679 6.5795 11.2239 6.70611 11.2734 6.83511C11.6594 7.84157 10.8148 8.66667 9.98556 8.66667L5.4 8.66667C5.17909 8.66667 5 8.84575 5 9.06667V10.2681C5 10.5339 5.25544 10.7257 5.5192 10.6931C5.66131 10.6755 5.80536 10.6667 5.95065 10.6667C7.96104 10.6667 9.55065 12.3329 9.55065 14.3333C9.55065 16.3338 7.96104 18 5.95065 18C5.80363 18 5.65858 17.991 5.51602 17.9734C5.25334 17.9411 5 18.1324 5 18.3971V19.6C5 19.8209 5.17909 20 5.4 20H18.6C18.8209 20 19 19.8209 19 19.6V9.06667Z" fill="#3B3751"/>
</svg>
