<svg width="24" height="24" viewBox="0 0 24 24" fill="none" xmlns="http://www.w3.org/2000/svg">
<path d="M22.707 11.294L19.828 8.41396C19.453 8.03896 18.789 8.03896 18.414 8.41396C18.036 8.79196 17.534 8.99996 17 8.99996C15.897 8.99996 15 8.10296 15 6.99996C15 6.46596 15.208 5.96396 15.586 5.58596C15.977 5.19496 15.977 4.56296 15.586 4.17196L12.707 1.29396C12.332 0.917963 11.668 0.917963 11.293 1.29396L9.102 3.48496C8.363 2.56196 7.24 1.99996 6 1.99996C3.794 1.99996 2 3.79396 2 5.99996C2 7.23896 2.562 8.36296 3.485 9.10196L1.293 11.294C1.105 11.48 1 11.735 1 12C1 12.265 1.105 12.52 1.293 12.708L4.172 15.586C4.563 15.978 5.195 15.978 5.586 15.586C5.964 15.208 6.466 15 7 15C8.103 15 9 15.897 9 17C9 17.534 8.792 18.036 8.414 18.414C8.226 18.602 8.121 18.856 8.121 19.121C8.121 19.387 8.226 19.641 8.414 19.828L11.293 22.707C11.488 22.902 11.744 23 12 23C12.256 23 12.512 22.902 12.707 22.708L14.899 20.517C15.637 21.438 16.761 22 18 22C20.206 22 22 20.206 22 18C22 16.761 21.438 15.637 20.516 14.899L22.707 12.708C23.098 12.316 23.098 11.684 22.707 11.294ZM18.152 14.434C17.903 14.683 17.803 15.044 17.889 15.386C17.975 15.728 18.234 15.998 18.572 16.099C19.426 16.355 20 17.119 20 18C20 19.103 19.103 20 18 20C17.119 20 16.355 19.427 16.098 18.573C15.997 18.236 15.726 17.978 15.385 17.891C15.046 17.804 14.683 17.904 14.434 18.153L12 20.586L10.447 19.033C10.808 18.423 11 17.728 11 17C11 14.794 9.206 13 7 13C6.273 13 5.577 13.192 4.967 13.553L3.415 12L5.848 9.56796C6.097 9.31796 6.197 8.95696 6.111 8.61596C6.025 8.27596 5.767 8.00396 5.43 7.90196C4.574 7.64496 4 6.88096 4 5.99996C4 4.89696 4.897 3.99996 6 3.99996C6.881 3.99996 7.645 4.57496 7.902 5.42896C8.003 5.76596 8.274 6.02496 8.615 6.11096C8.955 6.19696 9.317 6.09796 9.566 5.84796L12 3.41396L13.553 4.96696C13.192 5.57696 13 6.27396 13 6.99996C13 9.20596 14.794 11 17 11C17.727 11 18.423 10.808 19.033 10.447L20.586 12L18.152 14.434Z" fill="#3B3751"/>
</svg>
