<svg width="25" height="24" viewBox="0 0 25 24" fill="none" xmlns="http://www.w3.org/2000/svg">
<path fill-rule="evenodd" clip-rule="evenodd" d="M3.69969 4C2.76089 4 1.99983 4.76112 1.99983 5.7V18.3C1.99983 19.2389 2.76089 20 3.69969 20H20.2983C21.2371 20 21.9982 19.2389 21.9982 18.3V5.7C21.9982 4.76112 21.2371 4 20.2983 4H3.69969ZM0 5.7C0 3.65655 1.65641 2 3.69969 2H20.2983C22.3416 2 23.998 3.65655 23.998 5.7V18.3C23.998 20.3435 22.3416 22 20.2983 22H3.69969C1.65641 22 0 20.3435 0 18.3V5.7Z" fill="#3B3751"/>
<path d="M15.7527 16.959V9.34298L14.0888 10.015L13.6089 8.44698L16.3127 6.99098H18.0245V16.959H15.7527Z" fill="#3B3751"/>
<path d="M5.99749 16.959V6.99098H9.30921C10.1411 6.99098 10.8238 7.11365 11.357 7.35898C11.901 7.60432 12.301 7.95098 12.5569 8.39898C12.8236 8.84698 12.9569 9.36965 12.9569 9.96698C12.9569 10.3297 12.8823 10.6923 12.7329 11.055C12.5943 11.407 12.3916 11.7323 12.125 12.031C11.8583 12.319 11.5437 12.5483 11.1811 12.719L13.2289 16.959H10.8931L8.98924 12.991H8.3013V16.959H5.99749ZM8.3013 11.151H9.42121C9.79451 11.151 10.0878 11.055 10.3011 10.863C10.5251 10.6603 10.6371 10.3883 10.6371 10.047C10.6371 9.83365 10.5891 9.64165 10.4931 9.47098C10.3971 9.30032 10.2585 9.16165 10.0772 9.05498C9.89583 8.94832 9.67718 8.89498 9.42121 8.89498H8.3013V11.151Z" fill="#3B3751"/>
</svg>
