<svg width="25" height="24" viewBox="0 0 25 24" fill="none" xmlns="http://www.w3.org/2000/svg">
<path fill-rule="evenodd" clip-rule="evenodd" d="M3.69969 3.99994C2.76089 3.99994 1.99983 4.76105 1.99983 5.69994V18.2999C1.99983 19.2388 2.76089 19.9999 3.69969 19.9999H20.2983C21.2371 19.9999 21.9982 19.2388 21.9982 18.2999V5.69994C21.9982 4.76106 21.2371 3.99994 20.2983 3.99994H3.69969ZM0 5.69994C0 3.65649 1.65641 1.99994 3.69969 1.99994H20.2983C22.3416 1.99994 23.998 3.65649 23.998 5.69994V18.2999C23.998 20.3434 22.3416 21.9999 20.2983 21.9999H3.69969C1.65641 21.9999 0 20.3434 0 18.2999V5.69994Z" fill="#3B3751"/>
<path d="M13.1549 15.3845C13.7948 14.7861 14.3548 14.2612 14.8347 13.8097C15.3147 13.3583 15.7253 12.9593 16.0666 12.6129C16.4186 12.2559 16.7012 11.9304 16.9146 11.6365C17.1385 11.3425 17.2985 11.0538 17.3945 10.7703C17.5012 10.4869 17.5545 10.1824 17.5545 9.85696C17.5545 9.69948 17.5332 9.55775 17.4905 9.43176C17.4479 9.30578 17.3785 9.20079 17.2825 9.1168C17.1865 9.02231 17.0586 8.94882 16.8986 8.89633C16.7492 8.84384 16.5626 8.81759 16.3386 8.81759C16.136 8.81759 15.9493 8.83859 15.7787 8.88058C15.608 8.91208 15.448 8.96982 15.2987 9.05381C15.1494 9.1378 15.0107 9.24804 14.8827 9.38452C14.7761 9.521 14.7067 9.62599 14.6748 9.69948C14.6534 9.77297 14.6481 9.85171 14.6588 9.9357L14.5468 10.0774L14.4348 9.99869L12.9149 8.84909C13.1709 8.43964 13.4802 8.09843 13.8428 7.82546C14.2055 7.5525 14.6001 7.34777 15.0267 7.21129C15.464 7.06431 15.912 6.99082 16.3706 6.99082C16.9679 6.99082 17.5118 7.11155 18.0025 7.35302C18.5038 7.58399 18.9037 7.9147 19.2024 8.34515C19.501 8.7651 19.6503 9.26378 19.6503 9.84121C19.6503 10.2297 19.6023 10.5919 19.5063 10.9278C19.4104 11.2638 19.2664 11.5892 19.0744 11.9042C18.8931 12.2192 18.6637 12.5446 18.3864 12.8806C18.1091 13.2165 17.7785 13.5735 17.3945 13.9514C17.0212 14.3294 16.5999 14.7493 16.1306 15.2113H18.8984C19.0797 15.2113 19.2077 15.2008 19.2824 15.1798C19.357 15.1588 19.4264 15.1221 19.4903 15.0696H19.6663V16.9908H13.1549V15.3845Z" fill="#3B3751"/>
<path d="M4.99556 16.9907V7.17969H8.30728C9.13921 7.17969 9.82182 7.30042 10.3551 7.54189C10.8991 7.78336 11.299 8.12457 11.555 8.56552C11.8217 9.00646 11.955 9.5209 11.955 10.1088C11.955 10.4658 11.8803 10.8227 11.731 11.1797C11.5923 11.5261 11.3897 11.8464 11.123 12.1403C10.8564 12.4238 10.5418 12.6495 10.1791 12.8175L12.227 16.9907H9.89115L7.98731 13.0852H7.29937V16.9907H4.99556ZM7.29937 11.2742H8.41928C8.79258 11.2742 9.08589 11.1797 9.2992 10.9907C9.52318 10.7912 9.63517 10.5235 9.63517 10.1876C9.63517 9.97759 9.58718 9.78861 9.49119 9.62063C9.39519 9.45265 9.25654 9.31617 9.07522 9.21119C8.8939 9.1062 8.67525 9.05371 8.41928 9.05371H7.29937V11.2742Z" fill="#3B3751"/>
</svg>
