<svg width="24" height="24" viewBox="0 0 24 24" fill="none" xmlns="http://www.w3.org/2000/svg">
<g clip-path="url(#clip0_352_317)">
<path fill-rule="evenodd" clip-rule="evenodd" d="M24 8.39094C24 3.75176 20.1944 -0.0090332 15.5 -0.0090332C10.8056 -0.0090332 7 3.75176 7 8.39094C7 9.22303 7.12278 10.0288 7.35215 10.7904C7.53069 11.3833 8.16176 11.7208 8.76168 11.5444C9.3616 11.368 9.70319 10.7443 9.52464 10.1515C9.35706 9.59498 9.26667 9.00438 9.26667 8.39094C9.26667 4.98888 12.0574 2.23096 15.5 2.23096C18.9426 2.23096 21.7333 4.98888 21.7333 8.39094C21.7333 9.00438 21.6429 9.59498 21.4754 10.1515C21.2511 10.8961 20.8877 11.5825 20.4142 12.1811C20.0286 12.6684 20.1159 13.3723 20.609 13.7533C21.1021 14.1343 21.8144 14.048 22.1999 13.5607C22.8447 12.7456 23.3411 11.8089 23.6479 10.7904C23.8772 10.0288 24 9.22303 24 8.39094Z" fill="#3B3751"/>
<path fill-rule="evenodd" clip-rule="evenodd" d="M11.8653 4.79899C11.4227 5.23638 11.4227 5.94552 11.8653 6.3829L17.5319 11.9829C17.9745 12.4203 18.6921 12.4203 19.1347 11.9829C19.5773 11.5455 19.5773 10.8364 19.1347 10.399L13.4681 4.79899C13.0255 4.36161 12.3079 4.36161 11.8653 4.79899Z" fill="#3B3751"/>
<path fill-rule="evenodd" clip-rule="evenodd" d="M19.1347 4.79899C19.5773 5.23638 19.5773 5.94552 19.1347 6.3829L13.4681 11.9829C13.0255 12.4203 12.3079 12.4203 11.8653 11.9829C11.4227 11.5455 11.4227 10.8364 11.8653 10.399L17.5319 4.79899C17.9745 4.36161 18.6921 4.36161 19.1347 4.79899Z" fill="#3B3751"/>
<path fill-rule="evenodd" clip-rule="evenodd" d="M0 15.991C0 14.3341 1.34315 12.991 3 12.991H15C16.6569 12.991 18 14.3341 18 15.991V20.991C18 22.6478 16.6569 23.991 15 23.991H3C1.34315 23.991 0 22.6478 0 20.991V15.991ZM3 14.991C2.44772 14.991 2 15.4387 2 15.991V20.991C2 21.5433 2.44772 21.991 3 21.991H15C15.5523 21.991 16 21.5433 16 20.991V15.991C16 15.4387 15.5523 14.991 15 14.991H3Z" fill="#3B3751"/>
<path d="M8 14.991H10V21.991H8V14.991Z" fill="#3B3751"/>
</g>
<defs>
<clipPath id="clip0_352_317">
<rect width="24" height="24" fill="white"/>
</clipPath>
</defs>
</svg>
