<svg width="24" height="24" viewBox="0 0 24 24" fill="none" xmlns="http://www.w3.org/2000/svg">
<path d="M12.486 7.99091C10.553 7.99091 8.98596 9.55791 8.98596 11.4909V11.9909H10.3841C10.8137 11.9909 11.0433 12.4969 10.7604 12.8202L8.36226 15.5609C8.16306 15.7885 7.80889 15.7885 7.60968 15.5609L5.21157 12.8202C4.92869 12.4969 5.15828 11.9909 5.58786 11.9909H6.98596V11.4909C6.98596 8.45334 9.4484 5.99091 12.486 5.99091C15.5235 5.99091 17.986 8.45334 17.986 11.4909C17.986 14.5285 15.5235 16.9909 12.486 16.9909C11.9337 16.9909 11.486 16.5432 11.486 15.9909C11.486 15.4386 11.9337 14.9909 12.486 14.9909C14.419 14.9909 15.986 13.4239 15.986 11.4909C15.986 9.55791 14.419 7.99091 12.486 7.99091Z" fill="#3B3751"/>
<path fill-rule="evenodd" clip-rule="evenodd" d="M12.042 21.9999C6.52799 21.9999 2.04199 17.5139 2.04199 11.9999C2.04199 6.48594 6.52799 1.99994 12.042 1.99994C17.556 1.99994 22.042 6.48594 22.042 11.9999C22.042 17.5139 17.556 21.9999 12.042 21.9999ZM12.042 3.99994C7.63099 3.99994 4.04199 7.58894 4.04199 11.9999C4.04199 16.4109 7.63099 19.9999 12.042 19.9999C16.453 19.9999 20.042 16.4109 20.042 11.9999C20.042 7.58894 16.453 3.99994 12.042 3.99994Z" fill="#3B3751"/>
</svg>
