<svg width="24" height="24" viewBox="0 0 24 24" fill="none" xmlns="http://www.w3.org/2000/svg">
<path d="M21 3.99597H15C14.447 3.99597 14 4.44397 14 4.99597V5.99597H10V2.99597C10 2.44397 9.553 1.99597 9 1.99597H3C2.447 1.99597 2 2.44497 2 2.99597V20.996C2 21.548 2.447 21.996 3 21.996H21C21.553 21.996 22 21.548 22 20.996V4.99597C22 4.44497 21.553 3.99597 21 3.99597ZM4 3.99597H8V19.996H4V3.99597ZM10 7.99597H14V19.996H10V7.99597ZM20 19.996H16V5.99597H20V19.996Z" fill="#3B3751"/>
<path d="M7 4.99597H5V12.996H7V4.99597Z" fill="#3B3751"/>
<path d="M13 8.99597H11V14.996H13V8.99597Z" fill="#3B3751"/>
<path d="M19 6.99597H17V13.996H19V6.99597Z" fill="#3B3751"/>
</svg>
