<svg width="24" height="24" viewBox="0 0 24 24" fill="none" xmlns="http://www.w3.org/2000/svg">
<path d="M21.9991 1.99996C21.6751 1.67699 21.1841 1.526 20.4541 1.526C18.9921 1.526 16.1251 2.21594 14.2211 4.12078L10.2711 8.06946H3.61512C3.35012 8.06946 3.09512 8.17545 2.90712 8.36243L2.20012 9.07037C1.81012 9.46134 1.81012 10.0943 2.20012 10.4853L13.5141 21.7973C13.7091 21.9923 13.9651 22.0903 14.2211 22.0903C14.4771 22.0903 14.7331 21.9923 14.9281 21.7973L15.6361 21.0904C15.8241 20.9024 15.9281 20.6484 15.9281 20.3824V13.726L19.8781 9.77631C21.3161 8.33943 21.9501 6.48359 22.1991 5.50767C22.4011 4.71474 22.7861 2.7869 21.9991 1.99996ZM8.27212 10.0693L6.44312 11.8981L4.61312 10.0693H8.27212ZM7.85712 13.313L14.9281 6.24261L17.7561 9.06937L10.6861 16.1408L7.85712 13.313ZM13.9291 19.3835L12.1001 17.5557L13.9291 15.7258V19.3835ZM19.1001 7.5855L16.4121 4.89772C17.8121 3.9148 19.5451 3.52583 20.4541 3.52583C20.4641 3.52583 20.4731 3.52583 20.4821 3.52583C20.4941 4.33177 20.1191 6.13362 19.1001 7.5855Z" fill="#3B3751"/>
<path d="M7.85612 18.9695C7.40612 19.4185 5.68912 19.8075 4.00212 19.9945C4.19312 18.3016 4.58912 16.5787 5.02812 16.1408C5.28612 15.8818 5.60112 15.7178 5.93112 15.6298L4.42112 14.12C4.13512 14.2879 3.85912 14.4809 3.61412 14.7259C2.24112 16.0998 1.95312 20.2234 1.90912 21.0364L1.84912 22.1483L2.96212 22.0883C3.77512 22.0443 7.89912 21.7543 9.27112 20.3824C9.51712 20.1365 9.70912 19.8615 9.87712 19.5745L8.36712 18.0636C8.28012 18.3966 8.11612 18.7096 7.85612 18.9695Z" fill="#3B3751"/>
</svg>
