<svg width="24" height="24" viewBox="0 0 24 24" fill="none" xmlns="http://www.w3.org/2000/svg">
<path d="M22.9971 20.5605L17.5211 15.086C18.5907 13.711 19.2341 11.989 19.2341 10.1158C19.2341 5.63986 15.592 1.99799 11.1156 1.99799C6.63925 1.99799 2.99707 5.63986 2.99707 10.1158C2.99707 14.5928 6.63925 18.2337 11.1156 18.2337C12.989 18.2337 14.7111 17.5904 16.0852 16.5208L21.5611 21.9963L22.9971 20.5605ZM11.1166 16.2042C7.75859 16.2042 5.02772 13.4736 5.02772 10.1158C5.02772 6.75911 7.75859 4.02745 11.1166 4.02745C14.4746 4.02745 17.2055 6.75911 17.2055 10.1158C17.2055 13.4736 14.4746 16.2042 11.1166 16.2042Z" fill="#3B3751"/>
</svg>
