<svg width="24" height="24" viewBox="0 0 24 24" fill="none" xmlns="http://www.w3.org/2000/svg">
<path fill-rule="evenodd" clip-rule="evenodd" d="M-8.74228e-08 19L-6.99382e-07 5C-7.47596e-07 3.897 0.895999 3 2 3L22 3C23.103 3 24 3.897 24 5L24 19C24 20.103 23.103 21 22 21L2 21C0.896 21 -3.92091e-08 20.103 -8.74228e-08 19ZM2 5L2 19L22 19L22 5L2 5Z" fill="#3B3751"/>
<path d="M7 16H5V10L3 11V9L5 8H7V16ZM10.9492 8C11.556 8 12.0833 8.10156 12.5312 8.30469C12.9792 8.50781 13.3255 8.79167 13.5703 9.15625C13.8177 9.51823 13.9414 9.9388 13.9414 10.418C13.9414 10.7227 13.8802 11.0247 13.7578 11.3242C13.6354 11.6237 13.4154 11.9544 13.0977 12.3164C12.7826 12.6784 12.3346 13.112 11.7539 13.6172L10.7969 14.5V14.5508H14V16H8V14.5508L11.0352 12.1641C11.2539 11.9661 11.4401 11.7852 11.5938 11.6211C11.7474 11.4544 11.8646 11.2878 11.9453 11.1211C12.026 10.9518 12.0664 10.7682 12.0664 10.5703C12.0664 10.349 12.0182 10.1602 11.9219 10.0039C11.8255 9.84505 11.6927 9.72266 11.5234 9.63672C11.3542 9.55078 11.1602 9.50781 10.9414 9.50781C10.7201 9.50781 10.526 9.55339 10.3594 9.64453C10.1927 9.73307 10.0625 9.86198 9.96875 10.0312C9.8776 10.2005 9.83203 10.4063 9.83203 10.6484H8C8 10.1042 8.1224 9.63411 8.36719 9.23828C8.61198 8.84245 8.95573 8.53776 9.39844 8.32422C9.84375 8.10807 10.3607 8 10.9492 8ZM17.9873 8C18.5287 8.00003 19.005 8.09781 19.416 8.29297C19.8269 8.48809 20.1471 8.75385 20.376 9.09082C20.6049 9.42542 20.7197 9.80519 20.7197 10.2285C20.7221 10.6669 20.5823 11.0277 20.3018 11.3115C20.0236 11.5954 19.6657 11.771 19.2275 11.8369V11.8975C19.8131 11.9684 20.2549 12.1633 20.5527 12.4824C20.853 12.8018 21.0025 13.2016 21 13.6807C21 14.1318 20.8707 14.5321 20.6123 14.8818C20.3564 15.229 19.9996 15.5029 19.542 15.7031C19.0867 15.9008 18.5633 16 17.9727 16C17.3969 16 16.8858 15.8989 16.4404 15.6963C15.9974 15.491 15.6476 15.2076 15.3916 14.8477C15.1356 14.4877 15.0049 14.0734 15 13.6045H16.8389C16.8462 13.7741 16.8988 13.9249 16.9971 14.0566C17.0955 14.1859 17.2305 14.2878 17.4004 14.3613C17.5701 14.4347 17.7631 14.4717 17.9795 14.4717C18.196 14.4717 18.3869 14.4321 18.5518 14.3535C18.7191 14.2724 18.8498 14.1619 18.9434 14.0225C19.0368 13.8806 19.0825 13.7185 19.0801 13.5361C19.0825 13.3538 19.0319 13.1917 18.9287 13.0498C18.8253 12.9079 18.6788 12.7973 18.4893 12.7188C18.3022 12.6402 18.0802 12.6006 17.8242 12.6006H17.0898V11.2627H17.8242C18.0481 11.2627 18.2453 11.2244 18.415 11.1484C18.5872 11.0725 18.7214 10.9658 18.8174 10.8291C18.9134 10.6897 18.9605 10.5296 18.958 10.3496C18.9604 10.1748 18.9196 10.0214 18.8359 9.88965C18.7548 9.75549 18.6406 9.65159 18.4932 9.57812C18.348 9.50465 18.1792 9.4678 17.9873 9.46777C17.7855 9.46777 17.6014 9.50461 17.4365 9.57812C17.2742 9.65163 17.1448 9.75541 17.0488 9.88965C16.9529 10.024 16.9024 10.18 16.8975 10.3574H15.1514C15.1563 9.89354 15.2822 9.48516 15.5283 9.13281C15.7744 8.77815 16.1091 8.50096 16.5322 8.30078C16.9581 8.10053 17.4433 8 17.9873 8Z" fill="#3B3751"/>
</svg>
