<svg width="24" height="24" viewBox="0 0 24 24" fill="none" xmlns="http://www.w3.org/2000/svg">
<path d="M18.0001 2C17.5341 2 17.1311 2.322 17.0251 2.775L16.0511 7H3.00006C2.69106 7 2.40106 7.142 2.21206 7.385C2.02306 7.627 1.95506 7.945 2.02906 8.243L4.02906 16.243C4.14106 16.688 4.54106 17 5.00006 17H15.0001C15.4661 17 15.8691 16.679 15.9751 16.225L18.7951 4H22.0001V2H18.0001ZM15.5891 9L15.1271 11H4.78106L4.28106 9H15.5891ZM5.78106 15L5.28106 13H14.6661L14.2051 15H5.78106Z" fill="#3B3751"/>
<path d="M6.00006 22C7.10463 22 8.00006 21.1046 8.00006 20C8.00006 18.8954 7.10463 18 6.00006 18C4.89549 18 4.00006 18.8954 4.00006 20C4.00006 21.1046 4.89549 22 6.00006 22Z" fill="#3B3751"/>
<path d="M14.0001 22C15.1046 22 16.0001 21.1046 16.0001 20C16.0001 18.8954 15.1046 18 14.0001 18C12.8955 18 12.0001 18.8954 12.0001 20C12.0001 21.1046 12.8955 22 14.0001 22Z" fill="#3B3751"/>
</svg>
