<svg width="24" height="24" viewBox="0 0 24 24" fill="none" xmlns="http://www.w3.org/2000/svg">
<path d="M2.63199 21.9947C2.12624 21.9947 1.67553 21.9047 1.27987 21.7247C0.884212 21.5412 0.571125 21.2713 0.340611 20.9148C0.113537 20.5549 0 20.1067 0 19.5703C0 19.1185 0.0808521 18.7392 0.242556 18.4321C0.40426 18.1251 0.624453 17.8781 0.903135 17.691C1.18182 17.504 1.49834 17.3628 1.85272 17.2676C2.21053 17.1723 2.58554 17.1052 2.97776 17.0664C3.43879 17.017 3.81037 16.9711 4.09249 16.9288C4.37461 16.8829 4.57932 16.8158 4.70662 16.7276C4.83392 16.6394 4.89757 16.5088 4.89757 16.3359V16.3041C4.89757 15.9689 4.79435 15.7095 4.58792 15.526C4.38493 15.3425 4.09593 15.2507 3.72091 15.2507C3.32526 15.2507 3.01045 15.3407 2.77649 15.5207C2.54254 15.6971 2.38772 15.9195 2.31202 16.1877L0.278681 16.0183C0.381897 15.5242 0.584887 15.0972 0.887652 14.7372C1.19042 14.3738 1.58092 14.095 2.05915 13.9009C2.54082 13.7032 3.09818 13.6044 3.73124 13.6044C4.17162 13.6044 4.59308 13.6574 4.99562 13.7632C5.4016 13.8691 5.76114 14.0332 6.07422 14.2555C6.39075 14.4779 6.64019 14.7637 6.82254 15.1131C7.00488 15.4589 7.09606 15.8736 7.09606 16.3571V21.8412H5.01111V20.7137H4.94918C4.82188 20.9678 4.65157 21.1919 4.43826 21.3859C4.22495 21.5765 3.96863 21.7265 3.66931 21.8359C3.36998 21.9418 3.02421 21.9947 2.63199 21.9947ZM3.26161 20.4384C3.58501 20.4384 3.87058 20.3731 4.11829 20.2425C4.36601 20.1084 4.5604 19.9285 4.70146 19.7026C4.84252 19.4767 4.91305 19.2209 4.91305 18.935V18.0722C4.84424 18.1181 4.74963 18.1604 4.62921 18.1992C4.51223 18.2345 4.37977 18.268 4.23183 18.2998C4.08389 18.328 3.93595 18.3545 3.788 18.3792C3.64006 18.4004 3.50588 18.4198 3.38546 18.4374C3.12743 18.4763 2.90207 18.538 2.7094 18.6227C2.51673 18.7074 2.36707 18.8221 2.26042 18.9668C2.15376 19.108 2.10043 19.2844 2.10043 19.4962C2.10043 19.8032 2.20881 20.0379 2.42556 20.2002C2.64575 20.359 2.92444 20.4384 3.26161 20.4384Z" fill="#3B3751"/>
<path d="M8.26167 21.8412V11H10.4602V15.076H10.5272C10.6236 14.8572 10.7629 14.6349 10.9453 14.409C11.1311 14.1797 11.3719 13.9891 11.6678 13.8373C11.9671 13.6821 12.3387 13.6044 12.7825 13.6044C13.3605 13.6044 13.8938 13.7597 14.3823 14.0703C14.8709 14.3773 15.2614 14.8414 15.5538 15.4625C15.8463 16.08 15.9925 16.8547 15.9925 17.7863C15.9925 18.6933 15.8497 19.4591 15.5642 20.0837C15.282 20.7048 14.8967 21.176 14.4081 21.4971C13.923 21.8147 13.3794 21.9735 12.7773 21.9735C12.3507 21.9735 11.9877 21.9012 11.6884 21.7565C11.3925 21.6118 11.15 21.4301 10.9607 21.2113C10.7715 20.9889 10.627 20.7648 10.5272 20.539H10.4292V21.8412H8.26167ZM10.4137 17.7757C10.4137 18.2592 10.4791 18.6809 10.6098 19.0409C10.7406 19.4009 10.9298 19.6814 11.1775 19.8826C11.4252 20.0802 11.7263 20.179 12.0806 20.179C12.4384 20.179 12.7412 20.0784 12.9889 19.8773C13.2366 19.6726 13.4242 19.3903 13.5515 19.0303C13.6822 18.6668 13.7476 18.2486 13.7476 17.7757C13.7476 17.3064 13.6839 16.8935 13.5566 16.5371C13.4293 16.1806 13.2418 15.9018 12.9941 15.7007C12.7464 15.4995 12.4419 15.3989 12.0806 15.3989C11.7228 15.3989 11.4201 15.496 11.1723 15.6901C10.9281 15.8842 10.7406 16.1594 10.6098 16.5159C10.4791 16.8723 10.4137 17.2923 10.4137 17.7757Z" fill="#3B3751"/>
<path d="M20.4597 22C19.6478 22 18.9493 21.8235 18.3644 21.4706C17.783 21.1142 17.3357 20.6201 17.0226 19.9885C16.713 19.3568 16.5582 18.6298 16.5582 17.8075C16.5582 16.9747 16.7147 16.2441 17.0278 15.616C17.3443 14.9843 17.7933 14.492 18.3748 14.1391C18.9562 13.7826 19.6478 13.6044 20.4494 13.6044C21.1409 13.6044 21.7465 13.7332 22.266 13.9909C22.7855 14.2485 23.1966 14.6102 23.4994 15.076C23.8022 15.5419 23.969 16.0889 24 16.717H21.9254C21.8669 16.3112 21.7121 15.9848 21.4609 15.7377C21.2132 15.4872 20.8881 15.3619 20.4855 15.3619C20.1449 15.3619 19.8473 15.4572 19.5927 15.6477C19.3415 15.8348 19.1454 16.1083 19.0044 16.4682C18.8633 16.8282 18.7928 17.264 18.7928 17.7757C18.7928 18.2945 18.8616 18.7356 18.9992 19.0991C19.1403 19.4626 19.3381 19.7397 19.5927 19.9302C19.8473 20.1208 20.1449 20.2161 20.4855 20.2161C20.7367 20.2161 20.962 20.1631 21.1616 20.0573C21.3646 19.9514 21.5314 19.7979 21.6622 19.5967C21.7964 19.392 21.8841 19.1468 21.9254 18.8609H24C23.9656 19.482 23.8005 20.029 23.5046 20.5019C23.2121 20.9713 22.8079 21.3383 22.2918 21.603C21.7757 21.8677 21.165 22 20.4597 22Z" fill="#3B3751"/>
<path d="M14.55 8.20883L11.3668 4.95988L10 6.35496L14.55 11L23 2.39509L21.6332 1L14.55 8.20883Z" fill="#3B3751"/>
</svg>
