<svg width="24" height="24" viewBox="0 0 24 24" fill="none" xmlns="http://www.w3.org/2000/svg">
<path fill-rule="evenodd" clip-rule="evenodd" d="M17.445 21.832C17.613 21.944 17.807 22 18 22C18.207 22 18.414 21.936 18.59 21.808C18.928 21.561 19.076 21.129 18.961 20.726L17.123 14.291L21.707 9.70703C21.993 9.42203 22.078 8.99103 21.924 8.61703C21.77 8.24405 21.404 8.00003 21 8.00003H15.619L12.895 2.55304C12.556 1.87604 11.445 1.87604 11.106 2.55304L8.38198 8.00003H3C2.59597 8.00003 2.22998 8.24405 2.07598 8.61703C1.92199 8.99103 2.00698 9.42203 2.293 9.70703L6.87698 14.291L5.039 20.726C4.92398 21.129 5.07199 21.561 5.41 21.808C5.75 22.056 6.207 22.064 6.55499 21.832L12 18.202L17.445 21.832Z" fill="#3B3751"/>
</svg>
