<svg width="24" height="24" viewBox="0 0 24 24" fill="none" xmlns="http://www.w3.org/2000/svg">
<path d="M18 22C17.807 22 17.613 21.944 17.445 21.832L12 18.202L6.55499 21.832C6.20699 22.064 5.74999 22.056 5.40999 21.808C5.07199 21.561 4.92399 21.129 5.03899 20.726L6.87699 14.291L2.29299 9.70704C2.00699 9.42204 1.92199 8.99104 2.07599 8.61704C2.22999 8.24404 2.59599 8.00004 2.99999 8.00004H8.38199L11.106 2.55304C11.445 1.87604 12.556 1.87604 12.895 2.55304L15.619 8.00004H21C21.404 8.00004 21.77 8.24404 21.924 8.61704C22.078 8.99104 21.993 9.42204 21.707 9.70704L17.123 14.291L18.961 20.726C19.076 21.129 18.928 21.561 18.59 21.808C18.414 21.936 18.207 22 18 22ZM12 16C12.193 16 12.387 16.057 12.555 16.168L16.291 18.659L15.039 14.275C14.938 13.925 15.036 13.549 15.293 13.293L18.586 10H15C14.621 10 14.275 9.78604 14.105 9.44704L12 5.23604L9.89499 9.44704C9.72499 9.78604 9.37899 10 8.99999 10H5.41399L8.70699 13.293C8.96399 13.55 9.06099 13.926 8.96099 14.275L7.70899 18.659L11.445 16.168C11.613 16.057 11.807 16 12 16Z" fill="#3B3751"/>
</svg>
