<svg width="24" height="24" viewBox="0 0 24 24" fill="none" xmlns="http://www.w3.org/2000/svg">
<path d="M20.2931 4.707L2.80713 22.192L4.22113 23.606L7.05213 20.775C8.17713 21.547 9.53613 22 11.0001 22C14.8601 22 18.0001 18.859 18.0001 15V9.828L21.7071 6.121L20.2931 4.707ZM16.0001 15C16.0001 17.757 13.7561 20 11.0001 20C10.0911 20 9.24413 19.745 8.50913 19.319L14.8281 13H16.0001V15Z" fill="#3B3751"/>
<path d="M15.0001 7.171V3H13.0001V9.171L15.0001 7.171Z" fill="#3B3751"/>
<path d="M12.0001 10.171V1H10.0001V11H9.00012V3H7.00012V15H6.00012V12H4.00012V15C4.00012 15.936 4.20012 16.819 4.53512 17.636L12.0001 10.171Z" fill="#3B3751"/>
</svg>
