<svg width="24" height="24" viewBox="0 0 24 24" fill="none" xmlns="http://www.w3.org/2000/svg">
<path fill-rule="evenodd" clip-rule="evenodd" d="M18.0853 15.4009C18.4925 15.1266 18.9849 15 19.5204 15C20.1985 15 20.8122 15.198 21.2599 15.6284C21.7097 16.061 21.9104 16.6501 21.9104 17.2697C21.9104 17.978 21.6092 18.5294 21.2211 18.9548C20.8492 19.3625 20.3729 19.681 19.9724 19.9393C19.9123 19.9779 19.8542 20.0152 19.798 20.0512C19.6284 20.1599 19.4758 20.2577 19.3392 20.3515H21.1735C21.6321 20.3515 22 20.7184 22 21.1758C22 21.6332 21.6321 22 21.1735 22H17.8266C17.3679 22 17 21.6332 17 21.1758C17 20.4725 17.3149 19.9438 17.7094 19.5454C18.0681 19.1832 18.5278 18.8952 18.9052 18.6587C18.9188 18.6502 18.9323 18.6418 18.9456 18.6334C19.3651 18.3704 19.691 18.1607 19.9232 17.9231C20.1327 17.7087 20.2248 17.5128 20.2248 17.2697C20.2248 17.0333 20.1539 16.8951 20.0771 16.8179C20.003 16.7434 19.8471 16.6485 19.5204 16.6485C19.2165 16.6485 19.0759 16.7189 19.0079 16.7696C18.9366 16.8229 18.8679 16.9126 18.8087 17.0817L18.8035 17.0967L18.7976 17.1114C18.6539 17.4695 18.3151 17.623 18.0301 17.623C17.5715 17.623 17.2036 17.2561 17.2036 16.7987C17.2036 16.7535 17.2061 16.6527 17.2477 16.5272C17.3976 16.0733 17.6745 15.6776 18.0853 15.4009Z" fill="#3B3751"/>
<path fill-rule="evenodd" clip-rule="evenodd" d="M2.34509 2.24433C2.76244 1.88262 3.394 1.92773 3.7557 2.34509L9.50002 8.97314L15.2443 2.34509C15.606 1.92773 16.2376 1.88262 16.6549 2.24433C17.0723 2.60604 17.1174 3.23759 16.7557 3.65495L10.8233 10.5L16.7557 17.3451C17.1174 17.7624 17.0723 18.394 16.6549 18.7557C16.2376 19.1174 15.606 19.0723 15.2443 18.6549L9.50002 12.0269L3.7557 18.6549C3.394 19.0723 2.76244 19.1174 2.34509 18.7557C1.92773 18.394 1.88262 17.7624 2.24433 17.3451L8.17672 10.5L2.24433 3.65495C1.88262 3.23759 1.92773 2.60603 2.34509 2.24433Z" fill="#3B3751"/>
</svg>
