<svg width="24" height="24" viewBox="0 0 24 24" fill="none" xmlns="http://www.w3.org/2000/svg">
<path fill-rule="evenodd" clip-rule="evenodd" d="M18.0853 2.40092C18.4925 2.12656 18.9849 2 19.5204 2C20.1985 2 20.8122 2.19798 21.2599 2.62841C21.7097 3.06095 21.9104 3.65005 21.9104 4.26972C21.9104 4.97797 21.6092 5.52938 21.2211 5.95479C20.8492 6.36249 20.3729 6.68103 19.9724 6.93924C19.9123 6.97793 19.8542 7.01517 19.798 7.05123C19.6284 7.15989 19.4758 7.25772 19.3392 7.35151H21.1735C21.6321 7.35151 22 7.71836 22 8.17575C22 8.63315 21.6321 9 21.1735 9H17.8266C17.3679 9 17 8.63315 17 8.17575C17 7.47244 17.3149 6.94378 17.7094 6.54542C18.0681 6.18323 18.5278 5.89522 18.9052 5.65872C18.9188 5.65021 18.9323 5.64177 18.9456 5.63339C19.3651 5.37037 19.691 5.1607 19.9232 4.92312C20.1327 4.70873 20.2248 4.51275 20.2248 4.26972C20.2248 4.03333 20.1539 3.89512 20.0771 3.81785C20.003 3.74339 19.8471 3.64849 19.5204 3.64849C19.2165 3.64849 19.0759 3.71886 19.0079 3.7696C18.9366 3.8229 18.8679 3.91258 18.8087 4.08171L18.8035 4.09665L18.7976 4.11134C18.6539 4.46949 18.3151 4.62297 18.0301 4.62297C17.5715 4.62297 17.2036 4.25612 17.2036 3.79872C17.2036 3.75345 17.2061 3.65265 17.2477 3.52723C17.3976 3.07324 17.6745 2.67761 18.0853 2.40092Z" fill="#3B3751"/>
<path fill-rule="evenodd" clip-rule="evenodd" d="M2.34509 5.24431C2.76244 4.8826 3.394 4.92771 3.7557 5.34507L9.50002 11.9731L15.2443 5.34507C15.606 4.92771 16.2376 4.8826 16.6549 5.24431C17.0723 5.60602 17.1174 6.23758 16.7557 6.65493L10.8233 13.5L16.7557 20.3451C17.1174 20.7624 17.0723 21.394 16.6549 21.7557C16.2376 22.1174 15.606 22.0723 15.2443 21.6549L9.50002 15.0269L3.7557 21.6549C3.394 22.0723 2.76244 22.1174 2.34509 21.7557C1.92773 21.394 1.88262 20.7624 2.24433 20.3451L8.17672 13.5L2.24433 6.65493C1.88262 6.23758 1.92773 5.60602 2.34509 5.24431Z" fill="#3B3751"/>
</svg>
