<svg width="24" height="24" viewBox="0 0 24 24" fill="none" xmlns="http://www.w3.org/2000/svg">
<path d="M12.9999 6.08C16.1909 6.545 18.7379 9.184 18.9799 12.478C18.9929 12.65 18.9999 12.824 18.9999 13H20.9999C20.9999 12.774 20.9909 12.551 20.9749 12.331C20.6559 7.996 17.2379 4.538 12.9999 4.062V1L8.99991 5L12.9999 9V6.08Z" fill="#3B3751"/>
<path d="M5.50391 15.596C5.17591 14.774 4.99991 13.894 4.99991 13C4.99991 10.509 6.34191 8.18601 8.49991 6.93601L7.49791 5.20401C4.72391 6.81001 2.99991 9.79701 2.99991 13C2.99991 14.245 3.26791 15.47 3.76191 16.602L1.10791 18.134L6.57291 19.598L8.03591 14.134L5.50391 15.596Z" fill="#3B3751"/>
<path d="M21.8929 19.866L20.4279 14.402L14.9639 15.866L17.4889 17.324C16.1759 18.993 14.1719 20 11.9999 20C10.8829 20 9.81591 19.745 8.82791 19.242L7.92091 21.024C9.19091 21.672 10.5639 22 11.9999 22C14.8929 22 17.5609 20.621 19.2419 18.336L21.8929 19.866Z" fill="#3B3751"/>
</svg>
