<svg width="24" height="24" viewBox="0 0 24 24" fill="none" xmlns="http://www.w3.org/2000/svg">
<path fill-rule="evenodd" clip-rule="evenodd" d="M5.7 4C4.76112 4 4 4.76112 4 5.7V18.3C4 19.2389 4.76112 20 5.7 20H18.3C19.2389 20 20 19.2389 20 18.3V5.7C20 4.76112 19.2389 4 18.3 4H5.7ZM2 5.7C2 3.65655 3.65655 2 5.7 2H18.3C20.3435 2 22 3.65655 22 5.7V18.3C22 20.3435 20.3435 22 18.3 22H5.7C3.65655 22 2 20.3435 2 18.3V5.7Z" fill="#3B3751"/>
<rect x="5" y="6" width="4" height="2" rx="1" fill="#3B3751"/>
<rect x="10" y="6" width="4" height="2" rx="1" fill="#3B3751"/>
<rect x="15" y="6" width="4" height="2" rx="1" fill="#3B3751"/>
<rect x="4" y="10" width="16" height="2" fill="#3B3751"/>
</svg>
