<svg width="24" height="24" viewBox="0 0 24 24" fill="none" xmlns="http://www.w3.org/2000/svg">
<path fill-rule="evenodd" clip-rule="evenodd" d="M0 5C0 3.89543 0.89543 3 2 3H5.41968C6.13739 3 6.80008 3.38457 7.15616 4.00772L10.5847 11.0077C10.9361 11.6226 10.9361 12.3774 10.5847 12.9923L7.15616 19.9923C6.80008 20.6154 6.13739 21 5.41968 21H2C0.895431 21 0 20.1046 0 19V5ZM5.41968 5L2 5V19H5.41968L8.84825 12L5.41968 5Z" fill="#3B3751"/>
<path fill-rule="evenodd" clip-rule="evenodd" d="M23.8481 5C23.8481 3.89543 22.9527 3 21.8481 3H18.4285C17.7108 3 17.0481 3.38457 16.692 4.00772L13.2634 11.0077C12.9121 11.6226 12.9121 12.3774 13.2634 12.9923L16.692 19.9923C17.0481 20.6154 17.7108 21 18.4285 21H21.8481C22.9527 21 23.8481 20.1046 23.8481 19V5ZM18.4285 5L21.8481 5V19H18.4285L14.9999 12L18.4285 5Z" fill="#3B3751"/>
</svg>
