<svg width="24" height="24" viewBox="0 0 24 24" fill="none" xmlns="http://www.w3.org/2000/svg">
<path d="M14 24C13.744 24 13.488 23.902 13.293 23.707L2.293 12.707C2.105 12.52 2 12.266 2 12V5C2 4.447 2.447 4 3 4H10C10.266 4 10.52 4.105 10.707 4.293L21.707 15.293C22.098 15.684 22.098 16.316 21.707 16.707L14.707 23.707C14.512 23.902 14.256 24 14 24ZM4 11.586L14 21.586L19.586 16L9.586 6H4V11.586Z" fill="#3B3751"/>
<path d="M7 11C8.10457 11 9 10.1046 9 9C9 7.89543 8.10457 7 7 7C5.89543 7 5 7.89543 5 9C5 10.1046 5.89543 11 7 11Z" fill="#3B3751"/>
<path d="M22.293 12.707L11.586 2H5V0H12C12.266 0 12.52 0.105 12.707 0.293L23.707 11.293L22.293 12.707Z" fill="#3B3751"/>
</svg>
