<svg width="24" height="24" viewBox="0 0 24 24" fill="none" xmlns="http://www.w3.org/2000/svg">
<path d="M19 6C19 7.10457 18.1046 8 17 8C15.8954 8 15 7.10457 15 6C15 4.89543 15.8954 4 17 4C18.1046 4 19 4.89543 19 6Z" fill="#3B3751"/>
<path fill-rule="evenodd" clip-rule="evenodd" d="M7 1C4.23858 1 2 3.23858 2 6C2 8.76142 4.23858 11 7 11H17C19.7614 11 22 8.76142 22 6C22 3.23858 19.7614 1 17 1H7ZM17 3H7C5.34315 3 4 4.34315 4 6C4 7.65685 5.34315 9 7 9H17C18.6569 9 20 7.65685 20 6C20 4.34315 18.6569 3 17 3Z" fill="#3B3751"/>
<path fill-rule="evenodd" clip-rule="evenodd" d="M2 18C2 15.2386 4.23858 13 7 13H17C19.7614 13 22 15.2386 22 18C22 20.7614 19.7614 23 17 23H7C4.23858 23 2 20.7614 2 18ZM9 18C9 19.1046 8.10457 20 7 20C5.89543 20 5 19.1046 5 18C5 16.8954 5.89543 16 7 16C8.10457 16 9 16.8954 9 18Z" fill="#3B3751"/>
</svg>
