<svg width="24" height="24" viewBox="0 0 24 24" fill="none" xmlns="http://www.w3.org/2000/svg">
<path fill-rule="evenodd" clip-rule="evenodd" d="M6.98776 2C6.73186 2 6.53024 2.09233 6.37499 2.2422C6.22281 2.3891 6.12428 2.5823 6.05725 2.76955L0.0869118 20.3432C0.0545148 20.4216 0.0338241 20.5162 0.0209298 20.5987C0.00727149 20.6862 0 20.7757 0 20.8456C0 21.4575 0.435541 22 0.991716 22C1.49055 22 1.80888 21.6182 1.94832 21.1972L3.6941 16.1029H10.3051L12.0274 21.2262C12.1696 21.656 12.4915 22 12.9838 22C13.5889 22 14 21.4575 14 20.8456C14 20.7393 13.9723 20.516 13.9152 20.3493L7.94385 2.77269L7.94273 2.76956C7.80281 2.37867 7.48518 2 6.98776 2ZM4.33249 13.9651L6.98839 5.94794L9.6668 13.9651H4.33249Z" fill="#3B3751"/>
<path fill-rule="evenodd" clip-rule="evenodd" d="M19.7071 10C17.7281 10 16.4348 10.873 15.76 11.9922L15.7579 11.9958C15.6792 12.1342 15.6214 12.2837 15.6214 12.4902C15.6214 12.9663 15.9878 13.353 16.439 13.353C16.5614 13.353 16.678 13.3309 16.7983 13.2656C16.9153 13.2019 17.0271 13.1019 17.1484 12.9611L17.1497 12.9596C17.4967 12.5461 17.8429 12.2524 18.2443 12.0607C18.6458 11.8688 19.1126 11.7742 19.7071 11.7742C20.5189 11.7742 21.1579 12.0203 21.5927 12.4482C22.0263 12.8748 22.2728 13.498 22.2728 14.2876V14.785H19.1778C17.9123 14.785 16.8685 15.1125 16.1379 15.7307C15.4033 16.3522 15 17.2554 15 18.3682C15 19.5275 15.4019 20.4435 16.1317 21.0661C16.8572 21.6849 17.89 22 19.1318 22C20.3579 22 21.5735 21.5326 22.2728 20.6178V20.9672C22.2728 21.4676 22.6623 21.8786 23.1364 21.8786C23.6106 21.8786 24 21.4676 24 20.9672V14.2876C24 13.0153 23.6211 11.9388 22.8845 11.1805C22.1481 10.4225 21.0713 10 19.7071 10ZM16.7962 18.3682C16.7962 17.7105 17.0351 17.2439 17.4389 16.936C17.8498 16.6227 18.4473 16.462 19.1778 16.462H22.2728V17.3238C22.2728 18.3102 21.9063 19.0427 21.3541 19.5311C20.7986 20.0225 20.0463 20.2744 19.2698 20.2744C18.3903 20.2744 17.7725 20.0776 17.3776 19.7497C16.9883 19.4265 16.7962 18.96 16.7962 18.3682Z" fill="#3B3751"/>
</svg>
