<svg width="25" height="24" viewBox="0 0 25 24" fill="none" xmlns="http://www.w3.org/2000/svg">
<path fill-rule="evenodd" clip-rule="evenodd" d="M3.69969 3.99994C2.76089 3.99994 1.99983 4.76105 1.99983 5.69994V18.2999C1.99983 19.2388 2.76089 19.9999 3.69969 19.9999H20.2983C21.2371 19.9999 21.9982 19.2388 21.9982 18.2999V5.69994C21.9982 4.76106 21.2371 3.99994 20.2983 3.99994H3.69969ZM0 5.69994C0 3.65649 1.65641 1.99994 3.69969 1.99994H20.2983C22.3416 1.99994 23.998 3.65649 23.998 5.69994V18.2999C23.998 20.3434 22.3416 21.9999 20.2983 21.9999H3.69969C1.65641 21.9999 0 20.3434 0 18.2999V5.69994Z" fill="#3B3751"/>
<path d="M12.303 16.9589V6.99092H15.6147C16.4466 6.99092 17.1292 7.11359 17.6625 7.35892C18.2065 7.60426 18.6064 7.95092 18.8624 8.39892C19.1291 8.84692 19.2624 9.36959 19.2624 9.96692C19.2624 10.3296 19.1877 10.6923 19.0384 11.0549C18.8998 11.4069 18.6971 11.7323 18.4305 12.0309C18.1638 12.3189 17.8492 12.5483 17.4865 12.7189L19.5344 16.9589H17.1986L15.2947 12.9909H14.6068V16.9589H12.303ZM14.6068 11.1509H15.7267C16.1 11.1509 16.3933 11.0549 16.6066 10.8629C16.8306 10.6603 16.9426 10.3883 16.9426 10.0469C16.9426 9.83359 16.8946 9.64159 16.7986 9.47092C16.7026 9.30026 16.564 9.16159 16.3826 9.05492C16.2013 8.94826 15.9827 8.89492 15.7267 8.89492H14.6068V11.1509Z" fill="#3B3751"/>
<path d="M6.57545 16.9589V8.86292H3.99966V6.99092H11.455V8.86292H8.71927V16.9589H6.57545Z" fill="#3B3751"/>
</svg>
