<svg width="24" height="24" viewBox="0 0 24 24" fill="none" xmlns="http://www.w3.org/2000/svg">
<path d="M4 4.77778C4 4.47293 4.33199 4 5.03983 4H12.7767C12.7972 4 12.8147 4.00365 12.8274 4.00825C12.8366 4.01154 12.8417 4.01497 12.8417 4.01497L12.8516 4.02347L17 7.53654V9.33206C17 9.88434 17.4477 10.3321 18 10.3321C18.5523 10.3321 19 9.88434 19 9.33206V7.53654C19 6.94852 18.7412 6.3903 18.2925 6.01029L14.1486 2.50105C13.7635 2.16821 13.2687 2 12.7767 2H5.03983C3.49454 2 2 3.11895 2 4.77778V18.2222C2 19.8811 3.49454 21 5.03983 21H9.11949C9.67177 21 10.1195 20.5523 10.1195 20C10.1195 19.4477 9.67177 19 9.11949 19H5.03983C4.33199 19 4 18.5271 4 18.2222V4.77778Z" fill="#3B3751"/>
<path fill-rule="evenodd" clip-rule="evenodd" d="M21.1734 16.8021L20.0848 17.8872L20.0821 17.8899L16.2514 21.7082C16.064 21.8951 15.8101 22 15.5455 22H13C12.4477 22 12 21.5523 12 21V18.4112C12 18.1454 12.1058 17.8906 12.294 17.703L16.097 13.9123L16.1 13.9093L17.1902 12.8226C18.2905 11.7258 20.0731 11.7258 21.1734 12.8226C22.2755 13.9211 22.2755 15.7036 21.1734 16.8021ZM18.6021 14.2391C18.9219 13.9203 19.4417 13.9203 19.7615 14.2391C20.0795 14.556 20.0795 15.0686 19.7615 15.3856L19.3766 15.7693L18.2217 14.6182L18.6021 14.2391ZM16.8052 16.0302L17.9601 17.1813L15.1322 20H14V18.8264L16.8052 16.0302Z" fill="#3B3751"/>
<path d="M10 7H12C12.5523 7 13 6.55228 13 6C13 5.44772 12.5523 5 12 5H6C5.44772 5 5 5.44772 5 6C5 6.55228 5.44772 7 6 7H8V12C8 12.5523 8.44772 13 9 13C9.55228 13 10 12.5523 10 12V7Z" fill="#3B3751"/>
</svg>
