<svg width="24" height="24" viewBox="0 0 24 24" fill="none" xmlns="http://www.w3.org/2000/svg">
<path d="M23 10H17C16.4477 10 16 10.4477 16 11C16 11.5523 16.4477 12 17 12H22V22H12V17C12 16.4477 11.5523 16 11 16C10.4477 16 10 16.4477 10 17V23C10 23.553 10.448 24 11 24H23C23.553 24 24 23.553 24 23V11C24 10.447 23.553 10 23 10Z" fill="#3B3751"/>
<path d="M14.919 21.394L15.517 20H18.484L19.082 21.394L20.92 20.606L17.92 13.606C17.762 13.238 17.4 13 17 13C16.601 13 16.238 13.238 16.081 13.606L13.081 20.606L14.919 21.394ZM17.627 18H16.374L17 16.538L17.627 18Z" fill="#3B3751"/>
<path d="M6 7.381L7 7.881L8 7.381V6H6V7.381Z" fill="#3B3751"/>
<path d="M14 1C14 0.447716 13.5523 0 13 0H1C0.447716 0 0 0.447715 0 1V13C0 13.5523 0.447715 14 1 14H13C13.5523 14 14 13.5523 14 13V1ZM12 6H10V8C10 8.379 9.786 8.726 9.447 8.894L9.236 9L11.447 10.105L10.552 11.894L7 10.118L3.447 11.894L2.552 10.105L4.764 9L4.553 8.894C4.214 8.725 4 8.378 4 8V6H2V4H6V2H8V4H12V6Z" fill="#3B3751"/>
<path d="M23 3H19.414L20.2827 2.13126C20.517 1.89695 20.517 1.51705 20.2827 1.28273L19.7173 0.717263C19.4829 0.482949 19.103 0.482949 18.8687 0.717263L16.0103 3.57574C15.7759 3.81005 15.7759 4.18995 16.0103 4.42426L18.8687 7.28273C19.103 7.51705 19.4829 7.51705 19.7173 7.28274L20.2827 6.71726C20.517 6.48295 20.517 6.10305 20.2827 5.86873L19.414 5H21.8C21.9105 5 22 5.08954 22 5.2V7.4C22 7.73137 22.2686 8 22.6 8H23.4C23.7314 8 24 7.73137 24 7.4V4C24 3.447 23.553 3 23 3Z" fill="#3B3751"/>
<path d="M4.71726 17.2827C4.48295 17.5171 4.48295 17.8969 4.71726 18.1313L5.586 19H2V16.6C2 16.2686 1.73137 16 1.4 16H0.6C0.268629 16 0 16.2686 0 16.6V20C0 20.553 0.448 21 1 21H5.586L4.71726 21.8687C4.48295 22.1031 4.48295 22.4829 4.71726 22.7173L5.28274 23.2827C5.51705 23.5171 5.89695 23.5171 6.13126 23.2827L8.98974 20.4243C9.22405 20.1899 9.22405 19.8101 8.98974 19.5757L6.13126 16.7173C5.89695 16.4829 5.51705 16.4829 5.28274 16.7173L4.71726 17.2827Z" fill="#3B3751"/>
</svg>
