<svg width="24" height="24" viewBox="0 0 24 24" fill="none" xmlns="http://www.w3.org/2000/svg">
<path d="M15.586 14L13.586 16H10.414L8.414 14H2V22H22V14H15.586ZM20 20H4V16H7.586L9.586 18H14.414L16.414 16H20V20Z" fill="#3B3751"/>
<path d="M5 11H19V13H5V11Z" fill="#3B3751"/>
<path d="M5 7H19V9H5V7Z" fill="#3B3751"/>
<path d="M5 3H19V5H5V3Z" fill="#3B3751"/>
<path d="M2 14H3.99999V22H2V14Z" fill="#3B3751"/>
<path d="M4 20H20L20 22H3.99999L4 20Z" fill="#3B3751"/>
<path d="M20 14H22V22H20V14Z" fill="#3B3751"/>
</svg>
