<svg width="24" height="24" viewBox="0 0 24 24" fill="none" xmlns="http://www.w3.org/2000/svg">
<path d="M13.5 16.5C13.5 17.3284 12.8284 18 12 18C11.1716 18 10.5 17.3284 10.5 16.5C10.5 15.6716 11.1716 15 12 15C12.8284 15 13.5 15.6716 13.5 16.5Z" fill="#3B3751"/>
<path fill-rule="evenodd" clip-rule="evenodd" d="M9 8V11H17C18.103 11 19 11.897 19 13V20C19 21.103 18.103 22 17 22H7C5.897 22 5 21.103 5 20V13C5 11.898 5.897 11 7 11V8C7 5.243 9.243 3 12 3C14.757 3 17 5.243 17 8H15C15 6.346 13.654 5 12 5C10.346 5 9 6.346 9 8ZM7 13V20H17.001L17 13H7Z" fill="#3B3751"/>
</svg>
