<svg width="24" height="24" viewBox="0 0 24 24" fill="none" xmlns="http://www.w3.org/2000/svg">
<path d="M20.707 0.298914C20.316 -0.0919883 19.6841 -0.0919883 19.2931 0.298914L12.2938 7.29716C12.1668 7.42513 12.0748 7.58509 12.0308 7.76205L11.0299 11.761C10.9459 12.102 11.0459 12.4619 11.2939 12.7098C11.5419 12.9577 11.9028 13.0587 12.2428 12.9737L16.2424 11.973C16.4194 11.93 16.5794 11.837 16.7074 11.7101L23.7067 4.71181C24.0977 4.32091 24.0977 3.68907 23.7067 3.29816L20.707 0.298914ZM15.4895 10.0995L13.3747 10.6293L13.9046 8.51586L17.0014 5.41863L18.5872 7.00424L15.4895 10.0995ZM20.0001 5.59059L18.4142 4.00499L20.0001 2.41938L21.5859 4.00499L20.0001 5.59059Z" fill="#3B3751"/>
<path d="M16.0005 24H0.00195312V23.0002C0.00195312 19.4681 3.29064 17.0017 8.0012 17.0017C12.7118 17.0017 16.0005 19.4681 16.0005 23.0002V24ZM2.16075 22.0005H13.8437C13.2447 20.1929 11.0099 19.0012 8.0022 19.0012C4.99449 19.0012 2.75869 20.1929 2.16075 22.0005Z" fill="#3B3751"/>
<path d="M6.00139 12.003C6.00139 10.8993 6.89731 10.0035 8.0012 10.0035V8.00398C5.79641 8.00398 4.00158 9.79853 4.00158 12.003C4.00158 14.2074 5.79641 16.002 8.0012 16.002V14.0025C6.89831 14.0025 6.00139 13.1047 6.00139 12.003Z" fill="#3B3751"/>
</svg>
