<svg width="24" height="24" viewBox="0 0 24 24" fill="none" xmlns="http://www.w3.org/2000/svg">
<path d="M8.00195 16.0019C5.79695 16.0019 4.00195 14.2074 4.00195 12.0029C4.00195 9.79849 5.79695 8.00394 8.00195 8.00394C10.207 8.00394 12.002 9.79849 12.002 12.0029C12.002 14.2074 10.208 16.0019 8.00195 16.0019ZM8.00195 10.0034C6.89795 10.0034 6.00195 10.8992 6.00195 12.0029C6.00195 13.1057 6.89795 14.0024 8.00195 14.0024C9.10595 14.0024 10.002 13.1057 10.002 12.0029C10.002 10.8992 9.10595 10.0034 8.00195 10.0034Z" fill="#3B3751"/>
<path d="M16.002 24H0.00195312V23.0002C0.00195312 19.4681 3.29095 17.0017 8.00195 17.0017C12.713 17.0017 16.002 19.4681 16.002 23.0002V24ZM2.16095 22.0005H13.845C13.246 20.1929 11.011 19.0012 8.00295 19.0012C4.99495 19.0012 2.75895 20.1929 2.16095 22.0005Z" fill="#3B3751"/>
<path d="M22.002 7.00422H19.002V4.00497H17.002V7.00422H14.002V9.00372H17.002V12.003H19.002V9.00372H22.002V7.00422Z" fill="#3B3751"/>
</svg>
