<svg width="24" height="24" viewBox="0 0 24 24" fill="none" xmlns="http://www.w3.org/2000/svg">
<path fill-rule="evenodd" clip-rule="evenodd" d="M4.40395 15.507C6.00023 14.069 8.44602 13 12.0001 13C15.5541 13 17.9999 14.069 19.5962 15.507C21.1713 16.9261 21.8617 18.6548 21.9944 19.8935L22.1129 21H1.88721L2.00576 19.8935C2.13848 18.6548 2.82881 16.9261 4.40395 15.507ZM4.29649 19H19.7037C19.4368 18.3639 18.9801 17.6439 18.2575 16.993C17.0788 15.931 15.1317 15 12.0001 15C8.86842 15 6.92135 15.931 5.74262 16.993C5.02005 17.6439 4.56332 18.3639 4.29649 19Z" fill="#3B3751"/>
<path fill-rule="evenodd" clip-rule="evenodd" d="M12.0001 4C10.3432 4 9.00007 5.34315 9.00007 7C9.00007 8.65685 10.3432 10 12.0001 10C13.6569 10 15.0001 8.65685 15.0001 7C15.0001 5.34315 13.6569 4 12.0001 4ZM7.00007 7C7.00007 4.23858 9.23865 2 12.0001 2C14.7615 2 17.0001 4.23858 17.0001 7C17.0001 9.76142 14.7615 12 12.0001 12C9.23865 12 7.00007 9.76142 7.00007 7Z" fill="#3B3751"/>
</svg>
