<svg width="24" height="24" viewBox="0 0 24 24" fill="none" xmlns="http://www.w3.org/2000/svg">
<path d="M20.372 19.056C21.062 18.415 21.501 17.51 21.501 16.497C21.501 14.567 19.931 12.997 18.001 12.997C16.071 12.997 14.501 14.567 14.501 16.497C14.501 17.51 14.94 18.415 15.63 19.056C14.152 19.59 13.001 20.618 13.001 21.997H15.001C15.001 21.399 16.414 20.64 18.001 20.64C19.588 20.64 21.001 21.4 21.001 21.997H23.001C23.001 20.617 21.85 19.59 20.372 19.056ZM18.001 14.997C18.828 14.997 19.501 15.67 19.501 16.497C19.501 17.324 18.828 17.997 18.001 17.997C17.174 17.997 16.501 17.324 16.501 16.497C16.501 15.67 17.174 14.997 18.001 14.997Z" fill="#3B3751"/>
<path d="M8.37198 19.056C9.06198 18.415 9.50098 17.51 9.50098 16.497C9.50098 14.567 7.93098 12.997 6.00098 12.997C4.07098 12.997 2.50098 14.567 2.50098 16.497C2.50098 17.51 2.93998 18.415 3.62998 19.056C2.15198 19.59 1.00098 20.617 1.00098 21.997H3.00098C3.00098 21.399 4.41398 20.64 6.00098 20.64C7.58798 20.64 9.00098 21.4 9.00098 21.997H11.001C11.001 20.617 9.84998 19.59 8.37198 19.056ZM6.00098 14.997C6.82798 14.997 7.50098 15.67 7.50098 16.497C7.50098 17.324 6.82798 17.997 6.00098 17.997C5.17398 17.997 4.50098 17.324 4.50098 16.497C4.50098 15.67 5.17398 14.997 6.00098 14.997Z" fill="#3B3751"/>
<path d="M14.372 8.05604C15.062 7.41504 15.501 6.51004 15.501 5.49704C15.501 3.56704 13.931 1.99704 12.001 1.99704C10.071 1.99704 8.50098 3.56704 8.50098 5.49704C8.50098 6.51004 8.93998 7.41504 9.62998 8.05604C8.15198 8.59004 7.00098 9.61704 7.00098 10.997H9.00098C9.00098 10.399 10.414 9.64004 12.001 9.64004C13.588 9.64004 15.001 10.4 15.001 10.997H17.001C17.001 9.61704 15.85 8.59004 14.372 8.05604ZM12.001 3.99704C12.828 3.99704 13.501 4.67004 13.501 5.49704C13.501 6.32404 12.828 6.99704 12.001 6.99704C11.174 6.99704 10.501 6.32404 10.501 5.49704C10.501 4.67004 11.174 3.99704 12.001 3.99704Z" fill="#3B3751"/>
</svg>
