<svg width="24" height="24" viewBox="0 0 24 24" fill="none" xmlns="http://www.w3.org/2000/svg">
<path fill-rule="evenodd" clip-rule="evenodd" d="M9.97988 1.99997H4.5C3.11929 1.99997 2 3.11927 2 4.49997V19.5C2 20.8807 3.1193 22 4.5 22H19.5C20.8807 22 22 20.8807 22 19.5V4.49997C22 3.11928 20.8807 1.99997 19.5 1.99997H16.0217C16.0077 1.99968 15.9938 1.99968 15.9799 1.99997H10.0217C10.0077 1.99968 9.99379 1.99968 9.97988 1.99997ZM14.382 3.99997H10.618L9.11803 6.99997H12.882L14.382 3.99997ZM16.618 3.99997L15.118 6.99997H20V4.49997C20 4.22382 19.7762 3.99997 19.5 3.99997H16.618ZM20 8.99997H13.5201C13.5062 9.00027 13.4923 9.00027 13.4783 8.99997H7.52012C7.50621 9.00027 7.49228 9.00027 7.47833 8.99997H4V19.5C4 19.7761 4.22385 20 4.5 20H19.5C19.7762 20 20 19.7761 20 19.5V8.99997ZM4 6.99997H6.88197L8.38197 3.99997H4.5C4.22386 3.99997 4 4.22383 4 4.49997V6.99997ZM9.5073 10.1298C9.82081 9.95227 10.2056 9.95712 10.5145 10.1425L15.5145 13.1425C15.8157 13.3232 16 13.6487 16 14C16 14.3512 15.8157 14.6767 15.5145 14.8575L10.5145 17.8575C10.2056 18.0428 9.82081 18.0477 9.5073 17.8702C9.19379 17.6927 9 17.3602 9 17V11C9 10.6397 9.19379 10.3073 9.5073 10.1298ZM11 12.7662V15.2338L13.0563 14L11 12.7662Z" fill="#3B3751"/>
</svg>
