<svg width="24" height="24" viewBox="0 0 24 24" fill="none" xmlns="http://www.w3.org/2000/svg">
<path d="M21 4.99701V3.99701C21 3.44401 20.552 2.99701 20 2.99701H16C15.448 2.99701 15 3.44401 15 3.99701V7.99701C15 8.55001 15.448 8.99701 16 8.99701H20C20.552 8.99701 21 8.55001 21 7.99701V6.99701L24 7.99701V3.99701L21 4.99701Z" fill="#3B3751"/>
<path d="M11 11.997C12.1046 11.997 13 11.1016 13 9.997C13 8.89243 12.1046 7.997 11 7.997C9.89543 7.997 9 8.89243 9 9.997C9 11.1016 9.89543 11.997 11 11.997Z" fill="#3B3751"/>
<path d="M19 14.997H13.855C13.502 13.752 12.476 12.997 11 12.997C9.524 12.997 8.498 13.752 8.145 14.997H3V6.99701H13V4.99701H3C1.897 4.99701 1 5.89301 1 6.99701V17.997C1 19.101 1.897 19.997 3 19.997H10V21.997H6V23.997H16V21.997H12V19.997H19C20.103 19.997 21 19.101 21 17.997V10.997H19V14.997ZM3 17.997V16.997H19V17.997H3Z" fill="#3B3751"/>
</svg>
