<svg width="24" height="24" viewBox="0 0 24 24" fill="none" xmlns="http://www.w3.org/2000/svg">
<path d="M21 10H20V8.00003C20 6.89703 19.103 6.00003 18 6.00003H17.618L15.894 2.55303C15.662 2.08803 15.111 1.87903 14.628 2.07203L4.807 6.00003H4C2.897 6.00003 2 6.89703 2 8.00003V20C2 21.103 2.897 22 4 22H18C19.103 22 20 21.103 20 20V18H21C21.552 18 22 17.552 22 17V11C22 10.448 21.552 10 21 10ZM14.517 4.27003L15.382 6.00003H10.193L14.517 4.27003ZM17.997 20H4V8.00003H18V10H15C14.735 10 14.48 10.106 14.293 10.294L11.293 13.294C10.902 13.684 10.902 14.316 11.293 14.708L14.293 17.708C14.48 17.894 14.735 18 15 18H17.998L17.997 20ZM20 16H15.414L13.414 14L15.414 12H20V16Z" fill="#3B3751"/>
<path d="M16 15C16.5523 15 17 14.5523 17 14C17 13.4477 16.5523 13 16 13C15.4477 13 15 13.4477 15 14C15 14.5523 15.4477 15 16 15Z" fill="#3B3751"/>
</svg>
