<svg width="24" height="24" viewBox="0 0 24 24" fill="none" xmlns="http://www.w3.org/2000/svg">
<path d="M21 2H3C1.897 2 1 2.897 1 4V20C1 21.103 1.897 22 3 22H21C22.103 22 23 21.103 23 20V4C23 2.897 22.103 2 21 2ZM21 6H13V4H21V6ZM8 6V4H11V6H8ZM6 4V6H3V4H6ZM3 20V8H20.999L20.997 20H3Z" fill="#3B3751"/>
<path d="M6 12C6.55228 12 7 11.5523 7 11C7 10.4477 6.55228 10 6 10C5.44772 10 5 10.4477 5 11C5 11.5523 5.44772 12 6 12Z" fill="#3B3751"/>
<path d="M19 10H9V12H19V10Z" fill="#3B3751"/>
<path d="M6 15C6.55228 15 7 14.5523 7 14C7 13.4477 6.55228 13 6 13C5.44772 13 5 13.4477 5 14C5 14.5523 5.44772 15 6 15Z" fill="#3B3751"/>
<path d="M19 13H9V15H19V13Z" fill="#3B3751"/>
<path d="M6 18C6.55228 18 7 17.5523 7 17C7 16.4477 6.55228 16 6 16C5.44772 16 5 16.4477 5 17C5 17.5523 5.44772 18 6 18Z" fill="#3B3751"/>
<path d="M19 16H9V18H19V16Z" fill="#3B3751"/>
</svg>
