<svg width="24" height="24" viewBox="0 0 24 24" fill="none" xmlns="http://www.w3.org/2000/svg">
<path d="M22 11H18C18 9.346 16.654 8 15 8H12C11.449 8 11 7.551 11 7V6H16C16.553 6 17 5.553 17 5V1C17 0.447 16.553 0 16 0H4C3.447 0 3 0.447 3 1V5C3 5.553 3.447 6 4 6H9V7C9 8.654 10.346 10 12 10H15C15.551 10 16 10.449 16 11H10C9.447 11 9 11.447 9 12V16C9 16.553 9.447 17 10 17H17V19C17 19.551 16.551 20 16 20H15V19C15 18.447 14.553 18 14 18H2C1.447 18 1 18.447 1 19V23C1 23.553 1.447 24 2 24H14C14.553 24 15 23.553 15 23V22H16C17.654 22 19 20.654 19 19V17H22C22.553 17 23 16.553 23 16V12C23 11.447 22.553 11 22 11ZM5 2H15V4H5V2ZM3 22V20H12V22H3ZM21 15H11V13H21V15Z" fill="#3B3751"/>
</svg>
