<svg width="24" height="24" viewBox="0 0 24 24" fill="none" xmlns="http://www.w3.org/2000/svg">
<path d="M19 8.99996C19 6.04396 17.125 3.39396 14.334 2.40696L13 1.93396V7.99996C13 8.55296 12.551 8.99996 12 8.99996C11.449 8.99996 11 8.55296 11 7.99996V1.93396L9.666 2.40696C6.875 3.39396 5 6.04396 5 8.99996C5 11.786 6.639 14.188 9 15.315V22H11V16H13V22H15V15.315C17.361 14.188 19 11.785 19 8.99996ZM12 14C9.243 14 7 11.757 7 8.99996C7 7.40496 7.766 5.93496 9 5.00696V7.99996C9 9.65396 10.346 11 12 11C13.654 11 15 9.65396 15 7.99996V5.00596C16.234 5.93396 17 7.40396 17 8.99996C17 11.756 14.757 14 12 14Z" fill="#3B3751"/>
</svg>
