<svg width="24" height="24" viewBox="0 0 24 24" fill="none" xmlns="http://www.w3.org/2000/svg">
<path d="M18 21.998H4C2.897 21.998 2 21.101 2 19.998V5.99798C2 4.89598 2.897 3.99798 4 3.99798H11V5.99798H4V19.998H18V10.998H20V19.998C20 21.101 19.103 21.998 18 21.998Z" fill="#3B3751"/>
<path d="M9.808 10.363L12.636 13.19L9.101 13.897L9.808 10.363Z" fill="#3B3751"/>
<path d="M20.414 5.41198C21.195 4.63098 21.195 3.36498 20.414 2.58398C19.633 1.80298 18.367 1.80298 17.586 2.58398L11.222 8.94798L14.051 11.777L20.414 5.41198Z" fill="#3B3751"/>
</svg>
